Crimson-Bold.ufo
<glyph name="exclam" format="1">
  <advance width="270"/>
  <unicode hex="0021"/>
  <outline>
    <contour>
      <point x="59" y="66" type="curve" smooth="yes"/>
      <point x="59" y="106"/>
      <point x="93" y="139"/>
      <point x="134" y="139" type="curve" smooth="yes"/>
      <point x="176" y="139"/>
      <point x="209" y="103"/>
      <point x="209" y="63" type="curve" smooth="yes"/>
      <point x="209" y="23"/>
      <point x="176" y="-11"/>
      <point x="135" y="-11" type="curve" smooth="yes"/>
      <point x="93" y="-11"/>
      <point x="59" y="23"/>
    </contour>
    <contour>
      <point x="138" y="642" type="curve" smooth="yes"/>
      <point x="169" y="642"/>
      <point x="200" y="617"/>
      <point x="200" y="574" type="curve" smooth="yes"/>
      <point x="200" y="546"/>
      <point x="171" y="309"/>
      <point x="158" y="221" type="curve"/>
      <point x="154" y="208"/>
      <point x="150" y="199"/>
      <point x="138" y="195" type="curve"/>
      <point x="133" y="195"/>
      <point x="121" y="202"/>
      <point x="115" y="212" type="curve"/>
      <point x="104" y="279"/>
      <point x="72" y="524"/>
      <point x="72" y="575" type="curve" smooth="yes"/>
      <point x="72" y="617"/>
      <point x="102" y="642"/>
    </contour>
  </outline>
</glyph>
<glyph name="percent" format="1">
  <advance width="686"/>
  <unicode hex="0025"/>
  <outline>
    <contour>
      <point x="187" y="611" type="curve" smooth="yes"/>
      <point x="138" y="611"/>
      <point x="134" y="548"/>
      <point x="134" y="500" type="curve" smooth="yes"/>
      <point x="134" y="442"/>
      <point x="154" y="368"/>
      <point x="203" y="368" type="curve" smooth="yes"/>
      <point x="252" y="368"/>
      <point x="257" y="430"/>
      <point x="257" y="477" type="curve" smooth="yes"/>
      <point x="257" y="536"/>
      <point x="236" y="611"/>
    </contour>
    <contour>
      <point x="195" y="641" type="curve" smooth="yes"/>
      <point x="287" y="641"/>
      <point x="352" y="577"/>
      <point x="352" y="492" type="curve" smooth="yes"/>
      <point x="352" y="408"/>
      <point x="284" y="337"/>
      <point x="196" y="337" type="curve" smooth="yes"/>
      <point x="103" y="337"/>
      <point x="39" y="403"/>
      <point x="39" y="487" type="curve" smooth="yes"/>
      <point x="39" y="571"/>
      <point x="107" y="641"/>
    </contour>
    <contour>
      <point x="484" y="274" type="curve" smooth="yes"/>
      <point x="435" y="274"/>
      <point x="431" y="211"/>
      <point x="431" y="163" type="curve" smooth="yes"/>
      <point x="431" y="105"/>
      <point x="451" y="31"/>
      <point x="500" y="31" type="curve" smooth="yes"/>
      <point x="549" y="31"/>
      <point x="554" y="93"/>
      <point x="554" y="140" type="curve" smooth="yes"/>
      <point x="554" y="199"/>
      <point x="533" y="274"/>
    </contour>
    <contour>
      <point x="492" y="304" type="curve" smooth="yes"/>
      <point x="584" y="304"/>
      <point x="649" y="240"/>
      <point x="649" y="155" type="curve" smooth="yes"/>
      <point x="649" y="71"/>
      <point x="581" y="0"/>
      <point x="493" y="0" type="curve" smooth="yes"/>
      <point x="400" y="0"/>
      <point x="336" y="66"/>
      <point x="336" y="150" type="curve" smooth="yes"/>
      <point x="336" y="234"/>
      <point x="404" y="304"/>
    </contour>
    <contour>
      <point x="623" y="635" type="curve"/>
      <point x="107" y="-5" type="line" smooth="yes"/>
      <point x="103" y="-11"/>
      <point x="83" y="-20"/>
      <point x="66" y="-20" type="curve" smooth="yes"/>
      <point x="51" y="-20"/>
      <point x="51" y="-8"/>
      <point x="51" y="-8" type="curve"/>
      <point x="567" y="632" type="line"/>
      <point x="575" y="639"/>
      <point x="590" y="645"/>
      <point x="607" y="645" type="curve" smooth="yes"/>
      <point x="616" y="645"/>
      <point x="623" y="640"/>
    </contour>
  </outline>
</glyph>
<glyph name="ampersand" format="1">
  <advance width="696"/>
  <unicode hex="0026"/>
  <outline>
    <contour>
      <point x="382" y="95" type="curve"/>
      <point x="354" y="133"/>
      <point x="259" y="264"/>
      <point x="224" y="313" type="curve"/>
      <point x="202" y="294"/>
      <point x="186" y="266"/>
      <point x="186" y="220" type="curve" smooth="yes"/>
      <point x="186" y="154"/>
      <point x="227" y="72"/>
      <point x="318" y="72" type="curve" smooth="yes"/>
      <point x="352" y="72"/>
      <point x="369" y="84"/>
    </contour>
    <contour>
      <point x="312" y="609" type="curve" smooth="yes"/>
      <point x="277" y="609"/>
      <point x="255" y="574"/>
      <point x="255" y="526" type="curve" smooth="yes"/>
      <point x="255" y="474"/>
      <point x="287" y="430"/>
      <point x="304" y="407" type="curve"/>
      <point x="348" y="430"/>
      <point x="369" y="467"/>
      <point x="369" y="513" type="curve" smooth="yes"/>
      <point x="369" y="545"/>
      <point x="357" y="609"/>
    </contour>
    <contour>
      <point x="295" y="645" type="curve" smooth="yes"/>
      <point x="396" y="645"/>
      <point x="472" y="599"/>
      <point x="472" y="529" type="curve" smooth="yes"/>
      <point x="472" y="439"/>
      <point x="391" y="391"/>
      <point x="330" y="370" type="curve"/>
      <point x="358" y="333"/>
      <point x="439" y="222"/>
      <point x="470" y="181" type="curve"/>
      <point x="494" y="209"/>
      <point x="531" y="250"/>
      <point x="531" y="262" type="curve" smooth="yes"/>
      <point x="531" y="285"/>
      <point x="489" y="278"/>
      <point x="482" y="280" type="curve"/>
      <point x="478" y="286"/>
      <point x="478" y="310"/>
      <point x="483" y="312" type="curve"/>
      <point x="551" y="311" type="line" smooth="yes"/>
      <point x="586" y="310"/>
      <point x="634" y="312"/>
      <point x="679" y="314" type="curve"/>
      <point x="683" y="312"/>
      <point x="683" y="287"/>
      <point x="677" y="281" type="curve"/>
      <point x="670" y="280"/>
      <point x="625" y="280"/>
      <point x="608" y="266" type="curve" smooth="yes"/>
      <point x="594" y="255"/>
      <point x="525" y="173"/>
      <point x="498" y="145" type="curve"/>
      <point x="505" y="137"/>
      <point x="550" y="80"/>
      <point x="572" y="80" type="curve" smooth="yes"/>
      <point x="600" y="80"/>
      <point x="625" y="119"/>
      <point x="636" y="133" type="curve"/>
      <point x="645" y="133"/>
      <point x="656" y="125"/>
      <point x="661" y="115" type="curve"/>
      <point x="657" y="103"/>
      <point x="581" y="-3"/>
      <point x="519" y="-3" type="curve" smooth="yes"/>
      <point x="465" y="-3"/>
      <point x="437" y="28"/>
      <point x="409" y="60" type="curve"/>
      <point x="364" y="17"/>
      <point x="304" y="-4"/>
      <point x="237" y="-4" type="curve" smooth="yes"/>
      <point x="154" y="-4"/>
      <point x="56" y="55"/>
      <point x="56" y="156" type="curve" smooth="yes"/>
      <point x="56" y="273"/>
      <point x="142" y="320"/>
      <point x="196" y="354" type="curve"/>
      <point x="175" y="385"/>
      <point x="139" y="423"/>
      <point x="139" y="490" type="curve" smooth="yes"/>
      <point x="139" y="580"/>
      <point x="201" y="645"/>
    </contour>
  </outline>
</glyph>
<glyph name="asterisk" format="1">
  <advance width="441"/>
  <unicode hex="002A"/>
  <outline>
    <contour>
      <point x="287" y="618" type="curve" smooth="yes"/>
      <point x="308" y="642"/>
      <point x="341" y="640"/>
      <point x="356" y="626" type="curve" smooth="yes"/>
      <point x="372" y="610"/>
      <point x="376" y="581"/>
      <point x="355" y="557" type="curve" smooth="yes"/>
      <point x="323" y="521"/>
      <point x="286" y="533"/>
      <point x="258" y="506" type="curve"/>
      <point x="258" y="506"/>
      <point x="251" y="498"/>
      <point x="251" y="493" type="curve" smooth="yes"/>
      <point x="251" y="489"/>
      <point x="254" y="487"/>
      <point x="259" y="485" type="curve" smooth="yes"/>
      <point x="294" y="469"/>
      <point x="321" y="485"/>
      <point x="365" y="466" type="curve" smooth="yes"/>
      <point x="394" y="454"/>
      <point x="403" y="421"/>
      <point x="394" y="402" type="curve" smooth="yes"/>
      <point x="384" y="382"/>
      <point x="357" y="370"/>
      <point x="328" y="382" type="curve" smooth="yes"/>
      <point x="284" y="401"/>
      <point x="283" y="440"/>
      <point x="249" y="458" type="curve"/>
      <point x="249" y="458"/>
      <point x="239" y="464"/>
      <point x="235" y="461" type="curve" smooth="yes"/>
      <point x="233" y="460"/>
      <point x="232" y="459"/>
      <point x="231" y="453" type="curve" smooth="yes"/>
      <point x="227" y="415"/>
      <point x="250" y="395"/>
      <point x="245" y="347" type="curve" smooth="yes"/>
      <point x="242" y="316"/>
      <point x="214" y="298"/>
      <point x="194" y="300" type="curve" smooth="yes"/>
      <point x="172" y="304"/>
      <point x="151" y="325"/>
      <point x="154" y="356" type="curve" smooth="yes"/>
      <point x="159" y="404"/>
      <point x="195" y="417"/>
      <point x="202" y="455" type="curve"/>
      <point x="202" y="455"/>
      <point x="203" y="465"/>
      <point x="200" y="469" type="curve" smooth="yes"/>
      <point x="199" y="471"/>
      <point x="197" y="471"/>
      <point x="191" y="470" type="curve" smooth="yes"/>
      <point x="154" y="462"/>
      <point x="141" y="435"/>
      <point x="94" y="424" type="curve" smooth="yes"/>
      <point x="63" y="417"/>
      <point x="38" y="438"/>
      <point x="34" y="458" type="curve" smooth="yes"/>
      <point x="31" y="480"/>
      <point x="44" y="506"/>
      <point x="75" y="513" type="curve" smooth="yes"/>
      <point x="122" y="524"/>
      <point x="145" y="493"/>
      <point x="184" y="498" type="curve"/>
      <point x="184" y="498"/>
      <point x="196" y="499"/>
      <point x="197" y="504" type="curve" smooth="yes"/>
      <point x="198" y="507"/>
      <point x="196" y="510"/>
      <point x="193" y="515" type="curve" smooth="yes"/>
      <point x="174" y="548"/>
      <point x="144" y="551"/>
      <point x="119" y="593" type="curve" smooth="yes"/>
      <point x="103" y="620"/>
      <point x="115" y="651"/>
      <point x="133" y="661" type="curve" smooth="yes"/>
      <point x="153" y="671"/>
      <point x="182" y="666"/>
      <point x="198" y="639" type="curve" smooth="yes"/>
      <point x="223" y="597"/>
      <point x="200" y="566"/>
      <point x="217" y="531" type="curve"/>
      <point x="217" y="531"/>
      <point x="222" y="521"/>
      <point x="227" y="520" type="curve" smooth="yes"/>
      <point x="229" y="520"/>
      <point x="232" y="520"/>
      <point x="236" y="524" type="curve" smooth="yes"/>
      <point x="262" y="552"/>
      <point x="255" y="582"/>
    </contour>
  </outline>
</glyph>
<glyph name="comma" format="1">
  <advance width="224"/>
  <unicode hex="002C"/>
  <outline>
    <contour>
      <point x="119" y="139" type="curve" smooth="yes"/>
      <point x="136" y="139"/>
      <point x="152" y="131"/>
      <point x="163" y="123" type="curve"/>
      <point x="171" y="108"/>
      <point x="177" y="82"/>
      <point x="177" y="58" type="curve" smooth="yes"/>
      <point x="177" y="-37"/>
      <point x="110" y="-122"/>
      <point x="40" y="-157" type="curve"/>
      <point x="29" y="-154"/>
      <point x="19" y="-139"/>
      <point x="19" y="-133" type="curve"/>
      <point x="38" y="-121"/>
      <point x="90" y="-76"/>
      <point x="90" y="-27" type="curve" smooth="yes"/>
      <point x="90" y="6"/>
      <point x="42" y="3"/>
      <point x="42" y="68" type="curve" smooth="yes"/>
      <point x="42" y="84"/>
      <point x="57" y="139"/>
    </contour>
  </outline>
</glyph>
<glyph name="zero" format="1">
  <advance width="492"/>
  <unicode hex="0030"/>
  <outline>
    <contour>
      <point x="249.5" y="583" type="curve" smooth="yes"/>
      <point x="184.5" y="583"/>
      <point x="155.5" y="459"/>
      <point x="155.5" y="302" type="curve" smooth="yes"/>
      <point x="155.5" y="145"/>
      <point x="198.5" y="39"/>
      <point x="249.5" y="39" type="curve" smooth="yes"/>
      <point x="314.5" y="39"/>
      <point x="336.5" y="171"/>
      <point x="336.5" y="328" type="curve" smooth="yes"/>
      <point x="336.5" y="485"/>
      <point x="304.5" y="583"/>
    </contour>
    <contour>
      <point x="248.5" y="625" type="curve" smooth="yes"/>
      <point x="368.5" y="625"/>
      <point x="466.5" y="511"/>
      <point x="466.5" y="311" type="curve" smooth="yes"/>
      <point x="466.5" y="137"/>
      <point x="368.5" y="-3"/>
      <point x="248.5" y="-3" type="curve" smooth="yes"/>
      <point x="128.5" y="-3"/>
      <point x="25.5" y="111"/>
      <point x="25.5" y="311" type="curve" smooth="yes"/>
      <point x="25.5" y="485"/>
      <point x="128.5" y="625"/>
    </contour>
  </outline>
</glyph>
<glyph name="one" format="1">
  <advance width="492"/>
  <unicode hex="0031"/>
  <outline>
    <contour>
      <point x="196.388" y="145" type="curve" smooth="yes"/>
      <point x="196.388" y="482" type="line" smooth="yes"/>
      <point x="196.388" y="526"/>
      <point x="191.388" y="535"/>
      <point x="175.388" y="535" type="curve" smooth="yes"/>
      <point x="166.388" y="535"/>
      <point x="124.388" y="524"/>
      <point x="103.388" y="512" type="curve"/>
      <point x="95.3877" y="516"/>
      <point x="90.3877" y="525"/>
      <point x="90.3877" y="531" type="curve" smooth="yes"/>
      <point x="90.3877" y="533"/>
      <point x="89.3877" y="542"/>
      <point x="92.3877" y="543" type="curve" smooth="yes"/>
      <point x="207.388" y="592"/>
      <point x="318.388" y="643"/>
      <point x="321.388" y="643" type="curve" smooth="yes"/>
      <point x="323.388" y="643" type="line" smooth="yes"/>
      <point x="329.388" y="643"/>
      <point x="334.388" y="629"/>
      <point x="335.388" y="624" type="curve"/>
      <point x="335.388" y="624"/>
      <point x="326.388" y="595"/>
      <point x="326.388" y="530" type="curve" smooth="yes"/>
      <point x="326.388" y="145" type="line" smooth="yes"/>
      <point x="326.388" y="102"/>
      <point x="326.388" y="71"/>
      <point x="334.388" y="51" type="curve" smooth="yes"/>
      <point x="339.388" y="38"/>
      <point x="385.388" y="34"/>
      <point x="398.388" y="33" type="curve"/>
      <point x="403.388" y="26"/>
      <point x="402.388" y="2"/>
      <point x="398.388" y="-4" type="curve"/>
      <point x="359.388" y="0"/>
      <point x="303.388" y="3"/>
      <point x="261.388" y="3" type="curve" smooth="yes"/>
      <point x="219.388" y="3"/>
      <point x="163.388" y="0"/>
      <point x="124.388" y="-4" type="curve"/>
      <point x="120.388" y="2"/>
      <point x="119.388" y="26"/>
      <point x="124.388" y="33" type="curve"/>
      <point x="137.388" y="34"/>
      <point x="183.388" y="38"/>
      <point x="188.388" y="51" type="curve" smooth="yes"/>
      <point x="196.388" y="71"/>
      <point x="196.388" y="102"/>
    </contour>
  </outline>
</glyph>
<glyph name="six" format="1">
  <advance width="492"/>
  <unicode hex="0036"/>
  <outline>
    <contour>
      <point x="176.5" y="327" type="curve"/>
      <point x="171.5" y="292"/>
      <point x="169.5" y="249"/>
      <point x="169.5" y="221" type="curve" smooth="yes"/>
      <point x="169.5" y="137"/>
      <point x="189.5" y="36"/>
      <point x="253.5" y="36" type="curve" smooth="yes"/>
      <point x="292.5" y="36"/>
      <point x="322.5" y="92"/>
      <point x="322.5" y="182" type="curve" smooth="yes"/>
      <point x="322.5" y="267"/>
      <point x="297.5" y="346"/>
      <point x="226.5" y="346" type="curve" smooth="yes"/>
      <point x="214.5" y="346"/>
      <point x="190.5" y="341"/>
    </contour>
    <contour>
      <point x="270.5" y="405" type="curve" smooth="yes"/>
      <point x="367.5" y="405"/>
      <point x="453.5" y="352"/>
      <point x="453.5" y="207" type="curve" smooth="yes"/>
      <point x="453.5" y="90"/>
      <point x="348.5" y="-6"/>
      <point x="242.5" y="-6" type="curve" smooth="yes"/>
      <point x="130.5" y="-6"/>
      <point x="38.5" y="112"/>
      <point x="38.5" y="242" type="curve" smooth="yes"/>
      <point x="38.5" y="353"/>
      <point x="95.5" y="449"/>
      <point x="154.5" y="511" type="curve" smooth="yes"/>
      <point x="240.5" y="602"/>
      <point x="342.5" y="636"/>
      <point x="410.5" y="645" type="curve"/>
      <point x="418.5" y="639"/>
      <point x="419.5" y="629"/>
      <point x="417.5" y="619" type="curve"/>
      <point x="291.5" y="567"/>
      <point x="220.5" y="481"/>
      <point x="188.5" y="380" type="curve"/>
      <point x="214.5" y="395"/>
      <point x="245.5" y="405"/>
    </contour>
  </outline>
</glyph>
<glyph name="eight" format="1">
  <advance width="492"/>
  <unicode hex="0038"/>
  <outline>
    <contour>
      <point x="249.5" y="36" type="curve" smooth="yes"/>
      <point x="298.5" y="36"/>
      <point x="324.5" y="73"/>
      <point x="324.5" y="118" type="curve" smooth="yes"/>
      <point x="324.5" y="195"/>
      <point x="243.5" y="253"/>
      <point x="213.5" y="275" type="curve" smooth="yes"/>
      <point x="208.5" y="279"/>
      <point x="206.5" y="280"/>
      <point x="204.5" y="280" type="curve" smooth="yes"/>
      <point x="202.5" y="280"/>
      <point x="200.5" y="281"/>
      <point x="199.5" y="279" type="curve" smooth="yes"/>
      <point x="177.5" y="252"/>
      <point x="167.5" y="206"/>
      <point x="167.5" y="156" type="curve" smooth="yes"/>
      <point x="167.5" y="99"/>
      <point x="190.5" y="36"/>
    </contour>
    <contour>
      <point x="241.5" y="592" type="curve" smooth="yes"/>
      <point x="204.5" y="592"/>
      <point x="180.5" y="556"/>
      <point x="180.5" y="512" type="curve" smooth="yes"/>
      <point x="180.5" y="443"/>
      <point x="241.5" y="399"/>
      <point x="266.5" y="386" type="curve" smooth="yes"/>
      <point x="269.5" y="384"/>
      <point x="274.5" y="381"/>
      <point x="278.5" y="381" type="curve" smooth="yes"/>
      <point x="281.5" y="381"/>
      <point x="283.5" y="383"/>
      <point x="284.5" y="384" type="curve" smooth="yes"/>
      <point x="302.5" y="411"/>
      <point x="305.5" y="446"/>
      <point x="305.5" y="486" type="curve" smooth="yes"/>
      <point x="305.5" y="531"/>
      <point x="286.5" y="592"/>
    </contour>
    <contour>
      <point x="243.5" y="633" type="curve" smooth="yes"/>
      <point x="335.5" y="633"/>
      <point x="430.5" y="584"/>
      <point x="430.5" y="489" type="curve" smooth="yes"/>
      <point x="430.5" y="426"/>
      <point x="376.5" y="378"/>
      <point x="319.5" y="354" type="curve" smooth="yes"/>
      <point x="317.5" y="353"/>
      <point x="317.5" y="350"/>
      <point x="319.5" y="349" type="curve" smooth="yes"/>
      <point x="356.5" y="327"/>
      <point x="455.5" y="257"/>
      <point x="455.5" y="167" type="curve" smooth="yes"/>
      <point x="455.5" y="60"/>
      <point x="348.5" y="-6"/>
      <point x="241.5" y="-6" type="curve" smooth="yes"/>
      <point x="140.5" y="-6"/>
      <point x="36.5" y="33"/>
      <point x="36.5" y="153" type="curve" smooth="yes"/>
      <point x="36.5" y="236"/>
      <point x="104.5" y="288"/>
      <point x="164.5" y="306" type="curve" smooth="yes"/>
      <point x="166.5" y="307"/>
      <point x="166.5" y="308"/>
      <point x="162.5" y="311" type="curve" smooth="yes"/>
      <point x="127.5" y="341"/>
      <point x="51.5" y="392"/>
      <point x="51.5" y="486" type="curve" smooth="yes"/>
      <point x="51.5" y="574"/>
      <point x="149.5" y="633"/>
    </contour>
  </outline>
</glyph>
<glyph name="less" format="1">
  <advance width="495"/>
  <unicode hex="003C"/>
  <outline>
    <contour>
      <point x="444" y="45" type="curve" smooth="yes"/>
      <point x="444" y="38"/>
      <point x="434" y="-15"/>
      <point x="428" y="-15" type="curve" smooth="yes"/>
      <point x="427" y="-15"/>
      <point x="425" y="-14"/>
      <point x="423" y="-13" type="curve" smooth="yes"/>
      <point x="48" y="177" type="line" smooth="yes"/>
      <point x="33" y="185"/>
      <point x="30" y="200"/>
      <point x="30" y="217" type="curve" smooth="yes"/>
      <point x="30" y="228"/>
      <point x="38" y="236"/>
      <point x="48" y="241" type="curve" smooth="yes"/>
      <point x="421" y="428" type="line" smooth="yes"/>
      <point x="423" y="429"/>
      <point x="425" y="430"/>
      <point x="426" y="430" type="curve" smooth="yes"/>
      <point x="429" y="430"/>
      <point x="436" y="410"/>
      <point x="443" y="373" type="curve" smooth="yes"/>
      <point x="444" y="367"/>
      <point x="440" y="364"/>
      <point x="440" y="364" type="curve"/>
      <point x="122" y="209" type="line"/>
      <point x="441" y="51" type="line"/>
      <point x="441" y="51"/>
      <point x="444" y="50"/>
    </contour>
  </outline>
</glyph>
<glyph name="greater" format="1">
  <advance width="495"/>
  <unicode hex="003E"/>
  <outline>
    <contour>
      <point x="51" y="45" type="curve" smooth="yes"/>
      <point x="51" y="50"/>
      <point x="54" y="51"/>
      <point x="54" y="51" type="curve"/>
      <point x="373" y="209" type="line"/>
      <point x="55" y="364" type="line"/>
      <point x="55" y="364"/>
      <point x="51" y="367"/>
      <point x="52" y="373" type="curve" smooth="yes"/>
      <point x="59" y="410"/>
      <point x="66" y="430"/>
      <point x="69" y="430" type="curve" smooth="yes"/>
      <point x="70" y="430"/>
      <point x="72" y="429"/>
      <point x="74" y="428" type="curve" smooth="yes"/>
      <point x="447" y="241" type="line" smooth="yes"/>
      <point x="457" y="236"/>
      <point x="465" y="228"/>
      <point x="465" y="217" type="curve" smooth="yes"/>
      <point x="465" y="200"/>
      <point x="462" y="185"/>
      <point x="447" y="177" type="curve" smooth="yes"/>
      <point x="72" y="-13" type="line" smooth="yes"/>
      <point x="70" y="-14"/>
      <point x="68" y="-15"/>
      <point x="67" y="-15" type="curve" smooth="yes"/>
      <point x="61" y="-15"/>
      <point x="51" y="38"/>
    </contour>
  </outline>
</glyph>
<glyph name="question" format="1">
  <advance width="399"/>
  <unicode hex="003F"/>
  <outline>
    <contour>
      <point x="67" y="66" type="curve" smooth="yes"/>
      <point x="67" y="108"/>
      <point x="101" y="139"/>
      <point x="139" y="139" type="curve" smooth="yes"/>
      <point x="181" y="139"/>
      <point x="214" y="107"/>
      <point x="214" y="66" type="curve" smooth="yes"/>
      <point x="214" y="25"/>
      <point x="183" y="-11"/>
      <point x="143" y="-11" type="curve" smooth="yes"/>
      <point x="106" y="-11"/>
      <point x="67" y="21"/>
    </contour>
    <contour>
      <point x="116" y="518" type="curve" smooth="yes"/>
      <point x="78" y="518"/>
      <point x="54" y="551"/>
      <point x="54" y="584" type="curve" smooth="yes"/>
      <point x="54" y="601"/>
      <point x="62" y="624"/>
      <point x="69" y="630" type="curve"/>
      <point x="83" y="638"/>
      <point x="110" y="647"/>
      <point x="159" y="647" type="curve" smooth="yes"/>
      <point x="204" y="647"/>
      <point x="365" y="610"/>
      <point x="365" y="471" type="curve" smooth="yes"/>
      <point x="365" y="383"/>
      <point x="292" y="349"/>
      <point x="239" y="316" type="curve" smooth="yes"/>
      <point x="212" y="299"/>
      <point x="174" y="281"/>
      <point x="157" y="256" type="curve" smooth="yes"/>
      <point x="150" y="246"/>
      <point x="152" y="224"/>
      <point x="152" y="214" type="curve"/>
      <point x="150" y="208"/>
      <point x="142" y="196"/>
      <point x="137" y="196" type="curve" smooth="yes"/>
      <point x="129" y="196"/>
      <point x="118" y="204"/>
      <point x="114" y="208" type="curve"/>
      <point x="107" y="224"/>
      <point x="94" y="268"/>
      <point x="94" y="308" type="curve" smooth="yes"/>
      <point x="94" y="366"/>
      <point x="138" y="398"/>
      <point x="174" y="422" type="curve" smooth="yes"/>
      <point x="224" y="455"/>
      <point x="280" y="498"/>
      <point x="280" y="532" type="curve" smooth="yes"/>
      <point x="280" y="553"/>
      <point x="262" y="580"/>
      <point x="226" y="580" type="curve" smooth="yes"/>
      <point x="190" y="580"/>
      <point x="158" y="518"/>
    </contour>
  </outline>
</glyph>
<glyph name="B" format="1">
  <advance width="619"/>
  <unicode hex="0042"/>
  <outline>
    <contour>
      <point x="250" y="332" type="line"/>
      <point x="250" y="109" type="line" smooth="yes"/>
      <point x="250" y="103"/>
      <point x="250" y="63"/>
      <point x="258" y="51" type="curve" smooth="yes"/>
      <point x="266" y="40"/>
      <point x="295" y="39"/>
      <point x="321" y="39" type="curve" smooth="yes"/>
      <point x="367" y="39"/>
      <point x="427" y="73"/>
      <point x="427" y="176" type="curve" smooth="yes"/>
      <point x="427" y="251"/>
      <point x="397" y="332"/>
      <point x="302" y="332" type="curve" smooth="yes"/>
    </contour>
    <contour>
      <point x="250" y="371" type="line"/>
      <point x="302" y="371" type="line" smooth="yes"/>
      <point x="352" y="371"/>
      <point x="388" y="412"/>
      <point x="388" y="487" type="curve" smooth="yes"/>
      <point x="388" y="582"/>
      <point x="356" y="620"/>
      <point x="305" y="620" type="curve" smooth="yes"/>
      <point x="282" y="620"/>
      <point x="260" y="619"/>
      <point x="255" y="608" type="curve" smooth="yes"/>
      <point x="250" y="596"/>
      <point x="250" y="576"/>
      <point x="250" y="547" type="curve" smooth="yes"/>
    </contour>
    <contour>
      <point x="334" y="660" type="curve" smooth="yes"/>
      <point x="427" y="660"/>
      <point x="536" y="618"/>
      <point x="536" y="502" type="curve" smooth="yes"/>
      <point x="536" y="422"/>
      <point x="455" y="376"/>
      <point x="428" y="366" type="curve" smooth="yes"/>
      <point x="420" y="363"/>
      <point x="422" y="360"/>
      <point x="423" y="360" type="curve" smooth="yes"/>
      <point x="473" y="354"/>
      <point x="584" y="296"/>
      <point x="584" y="192" type="curve" smooth="yes"/>
      <point x="584" y="126"/>
      <point x="541" y="67"/>
      <point x="479" y="30" type="curve" smooth="yes"/>
      <point x="420" y="-5"/>
      <point x="345" y="-4"/>
      <point x="271" y="-3" type="curve" smooth="yes"/>
      <point x="229" y="-3"/>
      <point x="77" y="-2"/>
      <point x="38" y="-3" type="curve"/>
      <point x="34" y="3"/>
      <point x="33" y="27"/>
      <point x="38" y="34" type="curve"/>
      <point x="51" y="35"/>
      <point x="97" y="38"/>
      <point x="102" y="51" type="curve" smooth="yes"/>
      <point x="110" y="71"/>
      <point x="110" y="102"/>
      <point x="110" y="145" type="curve" smooth="yes"/>
      <point x="110" y="513" type="line" smooth="yes"/>
      <point x="110" y="556"/>
      <point x="110" y="587"/>
      <point x="102" y="607" type="curve" smooth="yes"/>
      <point x="97" y="620"/>
      <point x="51" y="622"/>
      <point x="38" y="623" type="curve"/>
      <point x="33" y="630"/>
      <point x="34" y="654"/>
      <point x="38" y="660" type="curve"/>
      <point x="83" y="657"/>
      <point x="139" y="657"/>
      <point x="181" y="657" type="curve" smooth="yes"/>
      <point x="223" y="657"/>
      <point x="276" y="660"/>
    </contour>
  </outline>
</glyph>
<glyph name="E" format="1">
  <advance width="602"/>
  <unicode hex="0045"/>
  <outline>
    <contour>
      <point x="181" y="657" type="curve" smooth="yes"/>
      <point x="223" y="657"/>
      <point x="447" y="663"/>
      <point x="506" y="664" type="curve"/>
      <point x="513" y="614"/>
      <point x="526" y="561"/>
      <point x="535" y="516" type="curve"/>
      <point x="532" y="513"/>
      <point x="519" y="511"/>
      <point x="512" y="511" type="curve" smooth="yes"/>
      <point x="505" y="511"/>
      <point x="498" y="514"/>
      <point x="496" y="519" type="curve" smooth="yes"/>
      <point x="475" y="574"/>
      <point x="449" y="620"/>
      <point x="388" y="620" type="curve" smooth="yes"/>
      <point x="305" y="620" type="line" smooth="yes"/>
      <point x="282" y="620"/>
      <point x="260" y="619"/>
      <point x="255" y="608" type="curve" smooth="yes"/>
      <point x="250" y="596"/>
      <point x="250" y="576"/>
      <point x="250" y="547" type="curve" smooth="yes"/>
      <point x="250" y="368" type="line" smooth="yes"/>
      <point x="250" y="362"/>
      <point x="271" y="357"/>
      <point x="293" y="357" type="curve" smooth="yes"/>
      <point x="346" y="357" type="line" smooth="yes"/>
      <point x="405" y="357"/>
      <point x="418" y="369"/>
      <point x="434" y="427" type="curve" smooth="yes"/>
      <point x="435" y="432"/>
      <point x="439" y="435"/>
      <point x="446" y="435" type="curve" smooth="yes"/>
      <point x="453" y="435"/>
      <point x="462" y="433"/>
      <point x="465" y="430" type="curve"/>
      <point x="465" y="238" type="line"/>
      <point x="463" y="236"/>
      <point x="454" y="234"/>
      <point x="447" y="234" type="curve" smooth="yes"/>
      <point x="440" y="234"/>
      <point x="434" y="237"/>
      <point x="433" y="242" type="curve" smooth="yes"/>
      <point x="421" y="290"/>
      <point x="407" y="299"/>
      <point x="398" y="303" type="curve" smooth="yes"/>
      <point x="386" y="308"/>
      <point x="360" y="310"/>
      <point x="322" y="310" type="curve" smooth="yes"/>
      <point x="294" y="310"/>
      <point x="250" y="308"/>
      <point x="250" y="296" type="curve" smooth="yes"/>
      <point x="250" y="141" type="line" smooth="yes"/>
      <point x="250" y="135"/>
      <point x="250" y="82"/>
      <point x="258" y="62" type="curve" smooth="yes"/>
      <point x="264" y="48"/>
      <point x="297" y="42"/>
      <point x="323" y="42" type="curve" smooth="yes"/>
      <point x="389" y="42" type="line" smooth="yes"/>
      <point x="427" y="42"/>
      <point x="459" y="52"/>
      <point x="482" y="75" type="curve" smooth="yes"/>
      <point x="503" y="96"/>
      <point x="519" y="125"/>
      <point x="536" y="170" type="curve" smooth="yes"/>
      <point x="537" y="174"/>
      <point x="543" y="176"/>
      <point x="550" y="176" type="curve" smooth="yes"/>
      <point x="560" y="176"/>
      <point x="577" y="173"/>
      <point x="580" y="170" type="curve"/>
      <point x="561" y="116"/>
      <point x="533" y="42"/>
      <point x="526" y="-2" type="curve"/>
      <point x="484" y="-2"/>
      <point x="77" y="-2"/>
      <point x="38" y="-3" type="curve"/>
      <point x="34" y="3"/>
      <point x="33" y="27"/>
      <point x="38" y="34" type="curve"/>
      <point x="51" y="35"/>
      <point x="97" y="38"/>
      <point x="102" y="51" type="curve" smooth="yes"/>
      <point x="110" y="71"/>
      <point x="110" y="102"/>
      <point x="110" y="145" type="curve" smooth="yes"/>
      <point x="110" y="513" type="line" smooth="yes"/>
      <point x="110" y="556"/>
      <point x="110" y="587"/>
      <point x="102" y="607" type="curve" smooth="yes"/>
      <point x="97" y="620"/>
      <point x="51" y="622"/>
      <point x="38" y="623" type="curve"/>
      <point x="33" y="630"/>
      <point x="34" y="654"/>
      <point x="38" y="660" type="curve"/>
      <point x="83" y="657"/>
      <point x="139" y="657"/>
    </contour>
  </outline>
</glyph>
<glyph name="F" format="1">
  <advance width="549"/>
  <unicode hex="0046"/>
  <outline>
    <contour>
      <point x="181" y="657" type="curve" smooth="yes"/>
      <point x="223" y="657"/>
      <point x="447" y="663"/>
      <point x="506" y="664" type="curve"/>
      <point x="513" y="614"/>
      <point x="526" y="561"/>
      <point x="535" y="516" type="curve"/>
      <point x="532" y="513"/>
      <point x="519" y="511"/>
      <point x="512" y="511" type="curve" smooth="yes"/>
      <point x="505" y="511"/>
      <point x="498" y="514"/>
      <point x="496" y="519" type="curve" smooth="yes"/>
      <point x="475" y="574"/>
      <point x="449" y="620"/>
      <point x="388" y="620" type="curve" smooth="yes"/>
      <point x="305" y="620" type="line" smooth="yes"/>
      <point x="282" y="620"/>
      <point x="260" y="619"/>
      <point x="255" y="608" type="curve" smooth="yes"/>
      <point x="250" y="596"/>
      <point x="250" y="576"/>
      <point x="250" y="547" type="curve" smooth="yes"/>
      <point x="250" y="364" type="line" smooth="yes"/>
      <point x="250" y="358"/>
      <point x="271" y="353"/>
      <point x="293" y="353" type="curve" smooth="yes"/>
      <point x="346" y="353" type="line" smooth="yes"/>
      <point x="405" y="353"/>
      <point x="418" y="365"/>
      <point x="434" y="423" type="curve" smooth="yes"/>
      <point x="435" y="428"/>
      <point x="439" y="431"/>
      <point x="446" y="431" type="curve" smooth="yes"/>
      <point x="453" y="431"/>
      <point x="462" y="429"/>
      <point x="465" y="426" type="curve"/>
      <point x="465" y="234" type="line"/>
      <point x="463" y="232"/>
      <point x="454" y="230"/>
      <point x="447" y="230" type="curve" smooth="yes"/>
      <point x="440" y="230"/>
      <point x="434" y="233"/>
      <point x="433" y="238" type="curve" smooth="yes"/>
      <point x="421" y="286"/>
      <point x="407" y="295"/>
      <point x="398" y="299" type="curve" smooth="yes"/>
      <point x="386" y="304"/>
      <point x="360" y="306"/>
      <point x="322" y="306" type="curve" smooth="yes"/>
      <point x="294" y="306"/>
      <point x="250" y="304"/>
      <point x="250" y="292" type="curve" smooth="yes"/>
      <point x="250" y="145" type="line" smooth="yes"/>
      <point x="250" y="102"/>
      <point x="250" y="71"/>
      <point x="258" y="51" type="curve" smooth="yes"/>
      <point x="263" y="38"/>
      <point x="318" y="34"/>
      <point x="331" y="33" type="curve"/>
      <point x="336" y="26"/>
      <point x="335" y="2"/>
      <point x="331" y="-4" type="curve"/>
      <point x="292" y="0"/>
      <point x="221" y="3"/>
      <point x="179" y="3" type="curve" smooth="yes"/>
      <point x="137" y="3"/>
      <point x="77" y="0"/>
      <point x="38" y="-4" type="curve"/>
      <point x="34" y="2"/>
      <point x="33" y="26"/>
      <point x="38" y="33" type="curve"/>
      <point x="51" y="34"/>
      <point x="97" y="38"/>
      <point x="102" y="51" type="curve" smooth="yes"/>
      <point x="110" y="71"/>
      <point x="110" y="102"/>
      <point x="110" y="145" type="curve" smooth="yes"/>
      <point x="110" y="513" type="line" smooth="yes"/>
      <point x="110" y="556"/>
      <point x="110" y="587"/>
      <point x="102" y="607" type="curve" smooth="yes"/>
      <point x="97" y="620"/>
      <point x="51" y="622"/>
      <point x="38" y="623" type="curve"/>
      <point x="33" y="630"/>
      <point x="34" y="654"/>
      <point x="38" y="660" type="curve"/>
      <point x="83" y="657"/>
      <point x="139" y="657"/>
    </contour>
  </outline>
</glyph>
<glyph name="G" format="1">
  <advance width="722"/>
  <unicode hex="0047"/>
  <outline>
    <contour>
      <point x="499" y="183" type="curve" smooth="yes"/>
      <point x="499" y="203"/>
      <point x="500" y="212"/>
      <point x="494" y="234" type="curve" smooth="yes"/>
      <point x="487" y="259"/>
      <point x="440" y="261"/>
      <point x="428" y="261" type="curve" smooth="yes"/>
      <point x="423" y="261"/>
      <point x="422" y="293"/>
      <point x="427" y="298" type="curve"/>
      <point x="478" y="296"/>
      <point x="529" y="292"/>
      <point x="580" y="292" type="curve" smooth="yes"/>
      <point x="622" y="292"/>
      <point x="663" y="296"/>
      <point x="703" y="298" type="curve"/>
      <point x="707" y="285"/>
      <point x="705" y="261"/>
      <point x="702" y="261" type="curve"/>
      <point x="694" y="261"/>
      <point x="660" y="255"/>
      <point x="649" y="248" type="curve" smooth="yes"/>
      <point x="643" y="244"/>
      <point x="637" y="224"/>
      <point x="637" y="205" type="curve" smooth="yes"/>
      <point x="637" y="168"/>
      <point x="637" y="132"/>
      <point x="637" y="98" type="curve" smooth="yes"/>
      <point x="637" y="89"/>
      <point x="643" y="74"/>
      <point x="643" y="69" type="curve" smooth="yes"/>
      <point x="643" y="58"/>
      <point x="621" y="48"/>
      <point x="608" y="43" type="curve" smooth="yes"/>
      <point x="545" y="19"/>
      <point x="476" y="-7"/>
      <point x="384" y="-7" type="curve" smooth="yes"/>
      <point x="195" y="-7"/>
      <point x="40" y="133"/>
      <point x="40" y="322" type="curve" smooth="yes"/>
      <point x="40" y="509"/>
      <point x="196" y="667"/>
      <point x="386" y="667" type="curve" smooth="yes"/>
      <point x="452" y="667"/>
      <point x="535" y="660"/>
      <point x="594" y="648" type="curve"/>
      <point x="596" y="637"/>
      <point x="628" y="509"/>
      <point x="628" y="497" type="curve" smooth="yes"/>
      <point x="628" y="491"/>
      <point x="614" y="482"/>
      <point x="602" y="482" type="curve" smooth="yes"/>
      <point x="597" y="482"/>
      <point x="592" y="482"/>
      <point x="588" y="486" type="curve"/>
      <point x="578" y="525"/>
      <point x="538" y="624"/>
      <point x="397" y="624" type="curve" smooth="yes"/>
      <point x="249" y="624"/>
      <point x="200" y="487"/>
      <point x="200" y="347" type="curve" smooth="yes"/>
      <point x="200" y="191"/>
      <point x="271" y="36"/>
      <point x="412" y="36" type="curve" smooth="yes"/>
      <point x="450" y="36"/>
      <point x="472" y="44"/>
      <point x="490" y="52" type="curve" smooth="yes"/>
      <point x="494" y="54"/>
      <point x="499" y="58"/>
      <point x="499" y="67" type="curve" smooth="yes"/>
      <point x="499" y="82"/>
      <point x="499" y="135"/>
    </contour>
  </outline>
</glyph>
<glyph name="H" format="1">
  <advance width="741"/>
  <unicode hex="0048"/>
  <outline>
    <contour>
      <point x="181" y="655" type="curve" smooth="yes"/>
      <point x="223" y="655"/>
      <point x="283" y="658"/>
      <point x="322" y="662" type="curve"/>
      <point x="326" y="656"/>
      <point x="327" y="632"/>
      <point x="322" y="625" type="curve"/>
      <point x="309" y="624"/>
      <point x="263" y="620"/>
      <point x="258" y="607" type="curve" smooth="yes"/>
      <point x="250" y="587"/>
      <point x="250" y="556"/>
      <point x="250" y="513" type="curve" smooth="yes"/>
      <point x="250" y="371" type="line"/>
      <point x="250" y="369"/>
      <point x="252" y="368"/>
      <point x="252" y="368" type="curve"/>
      <point x="291" y="367"/>
      <point x="328" y="365"/>
      <point x="373" y="365" type="curve" smooth="yes"/>
      <point x="410" y="365"/>
      <point x="454" y="367"/>
      <point x="490" y="368" type="curve"/>
      <point x="490" y="368"/>
      <point x="492" y="370"/>
      <point x="492" y="372" type="curve" smooth="yes"/>
      <point x="491" y="513" type="line" smooth="yes"/>
      <point x="491" y="556"/>
      <point x="491" y="587"/>
      <point x="483" y="607" type="curve" smooth="yes"/>
      <point x="478" y="620"/>
      <point x="432" y="624"/>
      <point x="419" y="625" type="curve"/>
      <point x="414" y="632"/>
      <point x="415" y="656"/>
      <point x="419" y="662" type="curve"/>
      <point x="458" y="658"/>
      <point x="520" y="655"/>
      <point x="562" y="655" type="curve" smooth="yes"/>
      <point x="604" y="655"/>
      <point x="664" y="658"/>
      <point x="703" y="662" type="curve"/>
      <point x="707" y="656"/>
      <point x="708" y="632"/>
      <point x="703" y="625" type="curve"/>
      <point x="690" y="624"/>
      <point x="644" y="620"/>
      <point x="639" y="607" type="curve" smooth="yes"/>
      <point x="631" y="587"/>
      <point x="631" y="556"/>
      <point x="631" y="513" type="curve" smooth="yes"/>
      <point x="631" y="145" type="line" smooth="yes"/>
      <point x="631" y="102"/>
      <point x="631" y="71"/>
      <point x="639" y="51" type="curve" smooth="yes"/>
      <point x="644" y="38"/>
      <point x="690" y="34"/>
      <point x="703" y="33" type="curve"/>
      <point x="708" y="26"/>
      <point x="707" y="2"/>
      <point x="703" y="-4" type="curve"/>
      <point x="664" y="0"/>
      <point x="602" y="3"/>
      <point x="560" y="3" type="curve" smooth="yes"/>
      <point x="518" y="3"/>
      <point x="458" y="0"/>
      <point x="419" y="-4" type="curve"/>
      <point x="415" y="2"/>
      <point x="414" y="26"/>
      <point x="419" y="33" type="curve"/>
      <point x="432" y="34"/>
      <point x="478" y="38"/>
      <point x="483" y="51" type="curve" smooth="yes"/>
      <point x="491" y="71"/>
      <point x="491" y="102"/>
      <point x="491" y="145" type="curve" smooth="yes"/>
      <point x="491" y="310" type="line" smooth="yes"/>
      <point x="491" y="312"/>
      <point x="489" y="315"/>
      <point x="489" y="315" type="curve"/>
      <point x="452" y="316"/>
      <point x="414" y="317"/>
      <point x="373" y="317" type="curve" smooth="yes"/>
      <point x="262" y="317"/>
      <point x="254" y="315"/>
      <point x="251" y="313" type="curve"/>
      <point x="250" y="312"/>
      <point x="250" y="309"/>
      <point x="250" y="309" type="curve"/>
      <point x="250" y="145" type="line" smooth="yes"/>
      <point x="250" y="102"/>
      <point x="250" y="71"/>
      <point x="258" y="51" type="curve" smooth="yes"/>
      <point x="263" y="38"/>
      <point x="309" y="34"/>
      <point x="322" y="33" type="curve"/>
      <point x="327" y="26"/>
      <point x="326" y="2"/>
      <point x="322" y="-4" type="curve"/>
      <point x="283" y="0"/>
      <point x="221" y="3"/>
      <point x="179" y="3" type="curve" smooth="yes"/>
      <point x="137" y="3"/>
      <point x="77" y="0"/>
      <point x="38" y="-4" type="curve"/>
      <point x="34" y="2"/>
      <point x="33" y="26"/>
      <point x="38" y="33" type="curve"/>
      <point x="51" y="34"/>
      <point x="97" y="38"/>
      <point x="102" y="51" type="curve" smooth="yes"/>
      <point x="110" y="71"/>
      <point x="110" y="102"/>
      <point x="110" y="145" type="curve" smooth="yes"/>
      <point x="110" y="513" type="line" smooth="yes"/>
      <point x="110" y="556"/>
      <point x="110" y="587"/>
      <point x="102" y="607" type="curve" smooth="yes"/>
      <point x="97" y="620"/>
      <point x="51" y="624"/>
      <point x="38" y="625" type="curve"/>
      <point x="33" y="632"/>
      <point x="34" y="656"/>
      <point x="38" y="662" type="curve"/>
      <point x="77" y="658"/>
      <point x="139" y="655"/>
    </contour>
  </outline>
</glyph>
<glyph name="O" format="1">
  <advance width="760"/>
  <unicode hex="004F"/>
  <outline>
    <contour>
      <point x="356" y="624" type="curve" smooth="yes"/>
      <point x="238" y="624"/>
      <point x="200" y="484"/>
      <point x="200" y="363" type="curve" smooth="yes"/>
      <point x="200" y="210"/>
      <point x="252" y="33"/>
      <point x="401" y="33" type="curve" smooth="yes"/>
      <point x="520" y="33"/>
      <point x="560" y="171"/>
      <point x="560" y="292" type="curve" smooth="yes"/>
      <point x="560" y="445"/>
      <point x="505" y="624"/>
    </contour>
    <contour>
      <point x="380" y="667" type="curve" smooth="yes"/>
      <point x="556" y="667"/>
      <point x="720" y="515"/>
      <point x="720" y="328" type="curve" smooth="yes"/>
      <point x="720" y="141"/>
      <point x="556" y="-10"/>
      <point x="380" y="-10" type="curve" smooth="yes"/>
      <point x="204" y="-10"/>
      <point x="40" y="141"/>
      <point x="40" y="328" type="curve" smooth="yes"/>
      <point x="40" y="515"/>
      <point x="204" y="667"/>
    </contour>
  </outline>
</glyph>
<glyph name="P" format="1">
  <advance width="585"/>
  <unicode hex="0050"/>
  <outline>
    <contour>
      <point x="565" y="482" type="curve" smooth="yes"/>
      <point x="565" y="362"/>
      <point x="465" y="287"/>
      <point x="364" y="287" type="curve" smooth="yes"/>
      <point x="328" y="287"/>
      <point x="302" y="303"/>
      <point x="295" y="310" type="curve" smooth="yes"/>
      <point x="291" y="314"/>
      <point x="288" y="327"/>
      <point x="288" y="335" type="curve" smooth="yes"/>
      <point x="288" y="339"/>
      <point x="289" y="342"/>
      <point x="291" y="342" type="curve"/>
      <point x="301" y="339"/>
      <point x="317" y="338"/>
      <point x="332" y="338" type="curve" smooth="yes"/>
      <point x="381" y="338"/>
      <point x="416" y="391"/>
      <point x="416" y="468" type="curve" smooth="yes"/>
      <point x="416" y="547"/>
      <point x="372" y="620"/>
      <point x="305" y="620" type="curve" smooth="yes"/>
      <point x="282" y="620"/>
      <point x="260" y="619"/>
      <point x="255" y="608" type="curve" smooth="yes"/>
      <point x="250" y="596"/>
      <point x="250" y="576"/>
      <point x="250" y="547" type="curve" smooth="yes"/>
      <point x="250" y="145" type="line" smooth="yes"/>
      <point x="250" y="102"/>
      <point x="250" y="71"/>
      <point x="258" y="51" type="curve" smooth="yes"/>
      <point x="263" y="38"/>
      <point x="309" y="34"/>
      <point x="322" y="33" type="curve"/>
      <point x="327" y="26"/>
      <point x="326" y="2"/>
      <point x="322" y="-4" type="curve"/>
      <point x="283" y="0"/>
      <point x="221" y="3"/>
      <point x="179" y="3" type="curve" smooth="yes"/>
      <point x="137" y="3"/>
      <point x="77" y="0"/>
      <point x="38" y="-4" type="curve"/>
      <point x="34" y="2"/>
      <point x="33" y="26"/>
      <point x="38" y="33" type="curve"/>
      <point x="51" y="34"/>
      <point x="97" y="38"/>
      <point x="102" y="51" type="curve" smooth="yes"/>
      <point x="110" y="71"/>
      <point x="110" y="102"/>
      <point x="110" y="145" type="curve" smooth="yes"/>
      <point x="110" y="513" type="line" smooth="yes"/>
      <point x="110" y="556"/>
      <point x="110" y="587"/>
      <point x="102" y="607" type="curve" smooth="yes"/>
      <point x="97" y="620"/>
      <point x="51" y="622"/>
      <point x="38" y="623" type="curve"/>
      <point x="33" y="630"/>
      <point x="34" y="654"/>
      <point x="38" y="660" type="curve"/>
      <point x="83" y="657"/>
      <point x="139" y="657"/>
      <point x="181" y="657" type="curve" smooth="yes"/>
      <point x="223" y="657"/>
      <point x="276" y="660"/>
      <point x="335" y="660" type="curve" smooth="yes"/>
      <point x="460" y="660"/>
      <point x="565" y="596"/>
    </contour>
  </outline>
</glyph>
<glyph name="Q" format="1">
  <advance width="760"/>
  <unicode hex="0051"/>
  <outline>
    <contour>
      <point x="380" y="667" type="curve" smooth="yes"/>
      <point x="556" y="667"/>
      <point x="720" y="515"/>
      <point x="720" y="328" type="curve" smooth="yes"/>
      <point x="720" y="178"/>
      <point x="614" y="51"/>
      <point x="482" y="7" type="curve"/>
      <point x="574" y="-38"/>
      <point x="603" y="-74"/>
      <point x="705" y="-74" type="curve" smooth="yes"/>
      <point x="745" y="-74"/>
      <point x="769" y="-66"/>
      <point x="776" y="-66" type="curve"/>
      <point x="782" y="-66"/>
      <point x="794" y="-71"/>
      <point x="799" y="-79" type="curve" smooth="yes"/>
      <point x="801" y="-82"/>
      <point x="801" y="-84"/>
      <point x="801" y="-84" type="curve"/>
      <point x="746" y="-113"/>
      <point x="657" y="-143"/>
      <point x="596" y="-143" type="curve" smooth="yes"/>
      <point x="486" y="-143"/>
      <point x="409" y="-33"/>
      <point x="301" y="0" type="curve" smooth="yes"/>
      <point x="157" y="38"/>
      <point x="40" y="170"/>
      <point x="40" y="328" type="curve" smooth="yes"/>
      <point x="40" y="515"/>
      <point x="204" y="667"/>
    </contour>
    <contour>
      <point x="356" y="624" type="curve" smooth="yes"/>
      <point x="238" y="624"/>
      <point x="200" y="484"/>
      <point x="200" y="363" type="curve" smooth="yes"/>
      <point x="200" y="210"/>
      <point x="252" y="33"/>
      <point x="401" y="33" type="curve" smooth="yes"/>
      <point x="520" y="33"/>
      <point x="560" y="171"/>
      <point x="560" y="292" type="curve" smooth="yes"/>
      <point x="560" y="445"/>
      <point x="505" y="624"/>
    </contour>
  </outline>
</glyph>
<glyph name="R" format="1">
  <advance width="693"/>
  <unicode hex="0052"/>
  <outline>
    <contour>
      <point x="335" y="660" type="curve" smooth="yes"/>
      <point x="460" y="660"/>
      <point x="554" y="598"/>
      <point x="554" y="478" type="curve" smooth="yes"/>
      <point x="554" y="396"/>
      <point x="466" y="328"/>
      <point x="418" y="316" type="curve"/>
      <point x="491" y="218"/>
      <point x="563" y="130"/>
      <point x="563" y="130" type="curve"/>
      <point x="637" y="36"/>
      <point x="721" y="33"/>
      <point x="729" y="33" type="curve"/>
      <point x="734" y="26"/>
      <point x="730" y="-2"/>
      <point x="729" y="-4" type="curve"/>
      <point x="700" y="-6"/>
      <point x="639" y="-8"/>
      <point x="598" y="-8" type="curve" smooth="yes"/>
      <point x="521" y="-8"/>
      <point x="470" y="33"/>
      <point x="445" y="67" type="curve" smooth="yes"/>
      <point x="283" y="284" type="line" smooth="yes"/>
      <point x="283" y="284"/>
      <point x="273" y="299"/>
      <point x="265" y="299" type="curve" smooth="yes"/>
      <point x="250" y="299" type="line"/>
      <point x="250" y="145" type="line" smooth="yes"/>
      <point x="250" y="102"/>
      <point x="250" y="71"/>
      <point x="258" y="51" type="curve" smooth="yes"/>
      <point x="263" y="38"/>
      <point x="309" y="34"/>
      <point x="322" y="33" type="curve"/>
      <point x="327" y="26"/>
      <point x="326" y="2"/>
      <point x="322" y="-4" type="curve"/>
      <point x="283" y="0"/>
      <point x="221" y="3"/>
      <point x="179" y="3" type="curve" smooth="yes"/>
      <point x="137" y="3"/>
      <point x="77" y="0"/>
      <point x="38" y="-4" type="curve"/>
      <point x="34" y="2"/>
      <point x="33" y="26"/>
      <point x="38" y="33" type="curve"/>
      <point x="51" y="34"/>
      <point x="97" y="38"/>
      <point x="102" y="51" type="curve" smooth="yes"/>
      <point x="110" y="71"/>
      <point x="110" y="102"/>
      <point x="110" y="145" type="curve" smooth="yes"/>
      <point x="110" y="513" type="line" smooth="yes"/>
      <point x="110" y="556"/>
      <point x="110" y="587"/>
      <point x="102" y="607" type="curve" smooth="yes"/>
      <point x="97" y="620"/>
      <point x="51" y="622"/>
      <point x="38" y="623" type="curve"/>
      <point x="33" y="630"/>
      <point x="34" y="654"/>
      <point x="38" y="660" type="curve"/>
      <point x="83" y="657"/>
      <point x="139" y="657"/>
      <point x="181" y="657" type="curve" smooth="yes"/>
      <point x="223" y="657"/>
      <point x="276" y="660"/>
    </contour>
    <contour>
      <point x="405" y="468" type="curve" smooth="yes"/>
      <point x="405" y="547"/>
      <point x="387" y="620"/>
      <point x="305" y="620" type="curve" smooth="yes"/>
      <point x="282" y="620"/>
      <point x="260" y="619"/>
      <point x="255" y="608" type="curve" smooth="yes"/>
      <point x="250" y="596"/>
      <point x="250" y="576"/>
      <point x="250" y="547" type="curve" smooth="yes"/>
      <point x="250" y="338" type="line"/>
      <point x="296" y="338" type="line" smooth="yes"/>
      <point x="353" y="338"/>
      <point x="405" y="391"/>
    </contour>
  </outline>
</glyph>
<glyph name="S" format="1">
  <advance width="521"/>
  <unicode hex="0053"/>
  <outline>
    <contour>
      <point x="267" y="670" type="curve" smooth="yes"/>
      <point x="326" y="670"/>
      <point x="374" y="655"/>
      <point x="435" y="642" type="curve"/>
      <point x="440" y="589"/>
      <point x="443" y="537"/>
      <point x="446" y="476" type="curve"/>
      <point x="443" y="472"/>
      <point x="439" y="470"/>
      <point x="435" y="470" type="curve" smooth="yes"/>
      <point x="432" y="470"/>
      <point x="407" y="469"/>
      <point x="405" y="477" type="curve" smooth="yes"/>
      <point x="397" y="533"/>
      <point x="349" y="628"/>
      <point x="272" y="628" type="curve" smooth="yes"/>
      <point x="233" y="628"/>
      <point x="187" y="608"/>
      <point x="187" y="541" type="curve" smooth="yes"/>
      <point x="187" y="479"/>
      <point x="271" y="422"/>
      <point x="332" y="381" type="curve" smooth="yes"/>
      <point x="398" y="337"/>
      <point x="479" y="294"/>
      <point x="479" y="175" type="curve" smooth="yes"/>
      <point x="479" y="65"/>
      <point x="371" y="-10"/>
      <point x="261" y="-10" type="curve" smooth="yes"/>
      <point x="202" y="-10"/>
      <point x="131" y="2"/>
      <point x="71" y="16" type="curve"/>
      <point x="61" y="60"/>
      <point x="49" y="158"/>
      <point x="47" y="186" type="curve"/>
      <point x="51" y="192"/>
      <point x="71" y="200"/>
      <point x="76" y="200" type="curve" smooth="yes"/>
      <point x="83" y="200"/>
      <point x="88" y="198"/>
      <point x="89" y="192" type="curve" smooth="yes"/>
      <point x="98" y="138"/>
      <point x="161" y="32"/>
      <point x="251" y="32" type="curve" smooth="yes"/>
      <point x="302" y="32"/>
      <point x="348" y="58"/>
      <point x="348" y="129" type="curve" smooth="yes"/>
      <point x="348" y="200"/>
      <point x="250" y="258"/>
      <point x="200" y="292" type="curve" smooth="yes"/>
      <point x="127" y="341"/>
      <point x="54" y="385"/>
      <point x="54" y="489" type="curve" smooth="yes"/>
      <point x="54" y="592"/>
      <point x="164" y="670"/>
    </contour>
  </outline>
</glyph>
<glyph name="T" format="1">
  <advance width="634"/>
  <unicode hex="0054"/>
  <outline>
    <contour>
      <point x="483" y="657" type="curve" smooth="yes"/>
      <point x="555" y="657"/>
      <point x="569" y="676"/>
      <point x="587" y="676" type="curve" smooth="yes"/>
      <point x="595" y="676"/>
      <point x="595" y="675"/>
      <point x="599" y="673" type="curve"/>
      <point x="626" y="489" type="line"/>
      <point x="623" y="486"/>
      <point x="606" y="482"/>
      <point x="597" y="482" type="curve" smooth="yes"/>
      <point x="592" y="482"/>
      <point x="588" y="483"/>
      <point x="587" y="487" type="curve" smooth="yes"/>
      <point x="577" y="552"/>
      <point x="531" y="613"/>
      <point x="480" y="613" type="curve" smooth="yes"/>
      <point x="387" y="613" type="line"/>
      <point x="387" y="145" type="line" smooth="yes"/>
      <point x="387" y="102"/>
      <point x="387" y="71"/>
      <point x="395" y="51" type="curve" smooth="yes"/>
      <point x="400" y="38"/>
      <point x="446" y="34"/>
      <point x="459" y="33" type="curve"/>
      <point x="464" y="26"/>
      <point x="463" y="2"/>
      <point x="459" y="-4" type="curve"/>
      <point x="420" y="0"/>
      <point x="358" y="3"/>
      <point x="316" y="3" type="curve" smooth="yes"/>
      <point x="274" y="3"/>
      <point x="214" y="0"/>
      <point x="175" y="-4" type="curve"/>
      <point x="171" y="2"/>
      <point x="170" y="26"/>
      <point x="175" y="33" type="curve"/>
      <point x="188" y="34"/>
      <point x="234" y="38"/>
      <point x="239" y="51" type="curve" smooth="yes"/>
      <point x="247" y="71"/>
      <point x="247" y="102"/>
      <point x="247" y="145" type="curve" smooth="yes"/>
      <point x="247" y="613" type="line"/>
      <point x="154" y="613" type="line" smooth="yes"/>
      <point x="103" y="613"/>
      <point x="57" y="552"/>
      <point x="47" y="487" type="curve" smooth="yes"/>
      <point x="46" y="483"/>
      <point x="42" y="482"/>
      <point x="37" y="482" type="curve" smooth="yes"/>
      <point x="28" y="482"/>
      <point x="11" y="486"/>
      <point x="8" y="489" type="curve"/>
      <point x="35" y="673" type="line"/>
      <point x="39" y="675"/>
      <point x="39" y="676"/>
      <point x="47" y="676" type="curve" smooth="yes"/>
      <point x="65" y="676"/>
      <point x="79" y="657"/>
      <point x="151" y="657" type="curve" smooth="yes"/>
      <point x="240" y="657"/>
      <point x="394" y="657"/>
    </contour>
  </outline>
</glyph>
<glyph name="W" format="1">
  <advance width="951"/>
  <unicode hex="0057"/>
  <outline>
    <contour>
      <point x="141" y="655" type="curve" smooth="yes"/>
      <point x="183" y="655"/>
      <point x="243" y="658"/>
      <point x="282" y="662" type="curve"/>
      <point x="286" y="656"/>
      <point x="287" y="632"/>
      <point x="282" y="625" type="curve"/>
      <point x="269" y="624"/>
      <point x="221" y="623"/>
      <point x="221" y="598" type="curve" smooth="yes"/>
      <point x="221" y="582"/>
      <point x="234" y="552"/>
      <point x="245" y="523" type="curve" smooth="yes"/>
      <point x="289" y="401"/>
      <point x="343" y="251"/>
      <point x="343" y="251" type="curve"/>
      <point x="343" y="251"/>
      <point x="452" y="560"/>
      <point x="476" y="625" type="curve" smooth="yes"/>
      <point x="483" y="644"/>
      <point x="496" y="662"/>
      <point x="507" y="662" type="curve" smooth="yes"/>
      <point x="511" y="662"/>
      <point x="515" y="657"/>
      <point x="519" y="646" type="curve" smooth="yes"/>
      <point x="585" y="478"/>
      <point x="690" y="214"/>
      <point x="690" y="214" type="curve"/>
      <point x="690" y="214"/>
      <point x="778" y="489"/>
      <point x="788" y="521" type="curve" smooth="yes"/>
      <point x="796" y="547"/>
      <point x="808" y="580"/>
      <point x="808" y="601" type="curve" smooth="yes"/>
      <point x="808" y="619"/>
      <point x="743" y="624"/>
      <point x="730" y="625" type="curve"/>
      <point x="725" y="632"/>
      <point x="726" y="656"/>
      <point x="730" y="662" type="curve"/>
      <point x="777" y="658"/>
      <point x="803" y="655"/>
      <point x="849" y="655" type="curve" smooth="yes"/>
      <point x="893" y="655"/>
      <point x="920" y="660"/>
      <point x="961" y="662" type="curve"/>
      <point x="965" y="656"/>
      <point x="966" y="632"/>
      <point x="961" y="625" type="curve"/>
      <point x="948" y="624"/>
      <point x="903" y="623"/>
      <point x="891" y="607" type="curve" smooth="yes"/>
      <point x="876" y="587"/>
      <point x="861" y="559"/>
      <point x="850" y="524" type="curve" smooth="yes"/>
      <point x="788" y="335"/>
      <point x="749" y="225"/>
      <point x="686" y="40" type="curve" smooth="yes"/>
      <point x="677" y="15"/>
      <point x="658" y="-11"/>
      <point x="646" y="-11" type="curve" smooth="yes"/>
      <point x="637" y="-11"/>
      <point x="632" y="-4"/>
      <point x="627" y="3" type="curve"/>
      <point x="462" y="418" type="line"/>
      <point x="462" y="418"/>
      <point x="384" y="188"/>
      <point x="335" y="44" type="curve" smooth="yes"/>
      <point x="331" y="33"/>
      <point x="312" y="-11"/>
      <point x="300" y="-11" type="curve" smooth="yes"/>
      <point x="291" y="-11"/>
      <point x="286" y="-4"/>
      <point x="281" y="3" type="curve"/>
      <point x="101" y="510" type="line" smooth="yes"/>
      <point x="91" y="540"/>
      <point x="75" y="572"/>
      <point x="66" y="592" type="curve" smooth="yes"/>
      <point x="54" y="618"/>
      <point x="11" y="624"/>
      <point x="-2" y="625" type="curve"/>
      <point x="-8" y="632"/>
      <point x="-6" y="656"/>
      <point x="-2" y="662" type="curve"/>
      <point x="37" y="658"/>
      <point x="99" y="655"/>
    </contour>
  </outline>
</glyph>
<glyph name="Z" format="1">
  <advance width="640"/>
  <unicode hex="005A"/>
  <outline>
    <contour>
      <point x="233" y="610" type="line" smooth="yes"/>
      <point x="127" y="610"/>
      <point x="111" y="536"/>
      <point x="88" y="474" type="curve" smooth="yes"/>
      <point x="87" y="471"/>
      <point x="85" y="468"/>
      <point x="75" y="468" type="curve" smooth="yes"/>
      <point x="64" y="468"/>
      <point x="49" y="470"/>
      <point x="46" y="473" type="curve"/>
      <point x="57" y="531"/>
      <point x="72" y="598"/>
      <point x="82" y="662" type="curve"/>
      <point x="98" y="658"/>
      <point x="199" y="655"/>
      <point x="213" y="655" type="curve" smooth="yes"/>
      <point x="353" y="656" type="line" smooth="yes"/>
      <point x="437" y="657"/>
      <point x="501" y="660"/>
      <point x="585" y="666" type="curve"/>
      <point x="589" y="665"/>
      <point x="595" y="643"/>
      <point x="595" y="633" type="curve"/>
      <point x="593" y="625"/>
      <point x="206" y="47"/>
      <point x="206" y="47" type="curve"/>
      <point x="422" y="47" type="line" smooth="yes"/>
      <point x="460" y="47"/>
      <point x="494" y="59"/>
      <point x="517" y="82" type="curve" smooth="yes"/>
      <point x="538" y="103"/>
      <point x="553" y="125"/>
      <point x="570" y="170" type="curve" smooth="yes"/>
      <point x="571" y="174"/>
      <point x="577" y="176"/>
      <point x="584" y="176" type="curve" smooth="yes"/>
      <point x="594" y="176"/>
      <point x="611" y="173"/>
      <point x="614" y="170" type="curve"/>
      <point x="598" y="117"/>
      <point x="569" y="44"/>
      <point x="560" y="1" type="curve"/>
      <point x="518" y="1"/>
      <point x="46" y="0"/>
      <point x="46" y="0" type="curve"/>
      <point x="33" y="0"/>
      <point x="17" y="18"/>
      <point x="20" y="22" type="curve" smooth="yes"/>
      <point x="416" y="610" type="line"/>
    </contour>
  </outline>
</glyph>
<glyph name="bracketleft" format="1">
  <advance width="309"/>
  <unicode hex="005B"/>
  <outline>
    <contour>
      <point x="94" y="770" type="curve" smooth="yes"/>
      <point x="197" y="770"/>
      <point x="263" y="779"/>
      <point x="299" y="786" type="curve"/>
      <point x="301" y="786"/>
      <point x="305" y="783"/>
      <point x="305" y="777" type="curve" smooth="yes"/>
      <point x="305" y="764"/>
      <point x="297" y="752"/>
      <point x="295" y="751" type="curve" smooth="yes"/>
      <point x="265" y="736"/>
      <point x="209" y="730"/>
      <point x="182" y="724" type="curve"/>
      <point x="182" y="-76" type="line"/>
      <point x="209" y="-82"/>
      <point x="265" y="-88"/>
      <point x="295" y="-103" type="curve" smooth="yes"/>
      <point x="297" y="-104"/>
      <point x="305" y="-116"/>
      <point x="305" y="-129" type="curve" smooth="yes"/>
      <point x="305" y="-135"/>
      <point x="301" y="-138"/>
      <point x="299" y="-138" type="curve"/>
      <point x="263" y="-131"/>
      <point x="197" y="-122"/>
      <point x="94" y="-122" type="curve" smooth="yes"/>
      <point x="81" y="-121"/>
      <point x="75" y="-110"/>
      <point x="75" y="-99" type="curve" smooth="yes"/>
      <point x="75" y="747" type="line" smooth="yes"/>
      <point x="75" y="758"/>
      <point x="81" y="769"/>
    </contour>
  </outline>
</glyph>
<glyph name="underscore" format="1">
  <advance width="493"/>
  <unicode hex="005F"/>
  <outline>
    <contour>
      <point x="8" y="-33" type="curve"/>
      <point x="8" y="-33"/>
      <point x="13" y="13"/>
      <point x="23" y="13" type="curve" smooth="yes"/>
      <point x="472" y="13" type="line" smooth="yes"/>
      <point x="474" y="13"/>
      <point x="476" y="12"/>
      <point x="476" y="8" type="curve" smooth="yes"/>
      <point x="476" y="-1"/>
      <point x="472" y="-15"/>
      <point x="466" y="-37" type="curve" smooth="yes"/>
      <point x="464" y="-43"/>
      <point x="460" y="-43"/>
      <point x="460" y="-43" type="curve"/>
      <point x="15" y="-43" type="line"/>
      <point x="15" y="-43"/>
      <point x="8" y="-43"/>
    </contour>
  </outline>
</glyph>
<glyph name="b" format="1">
  <advance width="542"/>
  <unicode hex="0062"/>
  <outline>
    <contour>
      <point x="243" y="-8" type="curve" smooth="yes"/>
      <point x="191" y="-8"/>
      <point x="143" y="15"/>
      <point x="117" y="15" type="curve" smooth="yes"/>
      <point x="99" y="15"/>
      <point x="87" y="11"/>
      <point x="80" y="8" type="curve"/>
      <point x="77" y="8"/>
      <point x="56" y="26"/>
      <point x="56" y="33" type="curve"/>
      <point x="63" y="51"/>
      <point x="68" y="86"/>
      <point x="68" y="152" type="curve" smooth="yes"/>
      <point x="68" y="558" type="line" smooth="yes"/>
      <point x="68" y="575"/>
      <point x="68" y="589"/>
      <point x="61" y="606" type="curve" smooth="yes"/>
      <point x="56" y="618"/>
      <point x="13" y="624"/>
      <point x="1" y="624" type="curve"/>
      <point x="-3" y="624"/>
      <point x="-4" y="652"/>
      <point x="1" y="656" type="curve"/>
      <point x="113" y="666"/>
      <point x="191" y="695"/>
      <point x="194" y="695" type="curve"/>
      <point x="200" y="694"/>
      <point x="208" y="683"/>
      <point x="209" y="678" type="curve"/>
      <point x="209" y="678"/>
      <point x="198" y="633"/>
      <point x="198" y="577" type="curve" smooth="yes"/>
      <point x="198" y="415" type="line" smooth="yes"/>
      <point x="198" y="410"/>
      <point x="198" y="397"/>
      <point x="204" y="402" type="curve" smooth="yes"/>
      <point x="219" y="414"/>
      <point x="269" y="449"/>
      <point x="303" y="449" type="curve" smooth="yes"/>
      <point x="419" y="449"/>
      <point x="511" y="359"/>
      <point x="511" y="236" type="curve" smooth="yes"/>
      <point x="511" y="76"/>
      <point x="373" y="-8"/>
    </contour>
    <contour>
      <point x="253" y="375" type="curve" smooth="yes"/>
      <point x="225" y="375"/>
      <point x="210" y="363"/>
      <point x="201" y="353" type="curve" smooth="yes"/>
      <point x="198" y="350"/>
      <point x="198" y="347"/>
      <point x="198" y="344" type="curve" smooth="yes"/>
      <point x="198" y="98" type="line" smooth="yes"/>
      <point x="198" y="64"/>
      <point x="222" y="36"/>
      <point x="264" y="36" type="curve" smooth="yes"/>
      <point x="328" y="36"/>
      <point x="367" y="122"/>
      <point x="367" y="196" type="curve" smooth="yes"/>
      <point x="367" y="333"/>
      <point x="315" y="375"/>
    </contour>
  </outline>
</glyph>
<glyph name="f" format="1">
  <advance width="355"/>
  <unicode hex="0066"/>
  <outline>
    <contour>
      <point x="306" y="698" type="curve" smooth="yes"/>
      <point x="338" y="698"/>
      <point x="356" y="692"/>
      <point x="370" y="688" type="curve"/>
      <point x="387" y="679"/>
      <point x="409" y="666"/>
      <point x="409" y="642" type="curve" smooth="yes"/>
      <point x="409" y="609"/>
      <point x="391" y="573"/>
      <point x="358" y="573" type="curve" smooth="yes"/>
      <point x="328" y="573"/>
      <point x="311" y="596"/>
      <point x="292" y="611" type="curve" smooth="yes"/>
      <point x="281" y="620"/>
      <point x="268" y="626"/>
      <point x="252" y="626" type="curve" smooth="yes"/>
      <point x="236" y="626"/>
      <point x="222" y="591"/>
      <point x="222" y="544" type="curve" smooth="yes"/>
      <point x="222" y="498"/>
      <point x="224" y="459"/>
      <point x="226" y="428" type="curve"/>
      <point x="233" y="428"/>
      <point x="310" y="428"/>
      <point x="343" y="428" type="curve" smooth="yes"/>
      <point x="347" y="428"/>
      <point x="349" y="420"/>
      <point x="349" y="415" type="curve" smooth="yes"/>
      <point x="349" y="406"/>
      <point x="336" y="388"/>
      <point x="326" y="381" type="curve"/>
      <point x="296" y="381"/>
      <point x="262" y="381"/>
      <point x="229" y="381" type="curve"/>
      <point x="229" y="145" type="line" smooth="yes"/>
      <point x="229" y="102"/>
      <point x="229" y="71"/>
      <point x="237" y="51" type="curve" smooth="yes"/>
      <point x="242" y="38"/>
      <point x="288" y="34"/>
      <point x="301" y="33" type="curve"/>
      <point x="306" y="26"/>
      <point x="305" y="2"/>
      <point x="301" y="-4" type="curve"/>
      <point x="262" y="0"/>
      <point x="206" y="3"/>
      <point x="164" y="3" type="curve" smooth="yes"/>
      <point x="122" y="3"/>
      <point x="66" y="0"/>
      <point x="27" y="-4" type="curve"/>
      <point x="23" y="2"/>
      <point x="22" y="26"/>
      <point x="27" y="33" type="curve"/>
      <point x="40" y="34"/>
      <point x="86" y="38"/>
      <point x="91" y="51" type="curve" smooth="yes"/>
      <point x="99" y="71"/>
      <point x="99" y="102"/>
      <point x="99" y="145" type="curve" smooth="yes"/>
      <point x="99" y="145"/>
      <point x="99" y="292"/>
      <point x="99" y="381" type="curve"/>
      <point x="72" y="381"/>
      <point x="54" y="381"/>
      <point x="28" y="381" type="curve"/>
      <point x="23" y="383"/>
      <point x="23" y="390"/>
      <point x="23" y="394" type="curve"/>
      <point x="33" y="408"/>
      <point x="43" y="418"/>
      <point x="55" y="428" type="curve"/>
      <point x="68" y="428"/>
      <point x="89" y="428"/>
      <point x="99" y="428" type="curve"/>
      <point x="99" y="443" type="line" smooth="yes"/>
      <point x="99" y="580"/>
      <point x="231" y="698"/>
    </contour>
  </outline>
</glyph>
<glyph name="g" format="1">
  <advance width="478"/>
  <unicode hex="0067"/>
  <outline>
    <contour>
      <point x="215" y="406" type="curve" smooth="yes"/>
      <point x="163" y="406"/>
      <point x="160" y="352"/>
      <point x="160" y="307" type="curve" smooth="yes"/>
      <point x="160" y="251"/>
      <point x="179" y="185"/>
      <point x="231" y="185" type="curve" smooth="yes"/>
      <point x="283" y="185"/>
      <point x="282" y="241"/>
      <point x="282" y="285" type="curve" smooth="yes"/>
      <point x="282" y="340"/>
      <point x="267" y="406"/>
    </contour>
    <contour>
      <point x="260" y="-14" type="curve" smooth="yes"/>
      <point x="223" y="-14"/>
      <point x="169" y="-14"/>
      <point x="150" y="-14" type="curve"/>
      <point x="143" y="-22"/>
      <point x="134" y="-35"/>
      <point x="134" y="-58" type="curve" smooth="yes"/>
      <point x="134" y="-124"/>
      <point x="184" y="-162"/>
      <point x="254" y="-162" type="curve" smooth="yes"/>
      <point x="350" y="-162"/>
      <point x="372" y="-112"/>
      <point x="372" y="-79" type="curve" smooth="yes"/>
      <point x="372" y="-37"/>
      <point x="324" y="-14"/>
    </contour>
    <contour>
      <point x="326" y="96" type="curve" smooth="yes"/>
      <point x="418" y="91"/>
      <point x="459" y="20"/>
      <point x="459" y="-14" type="curve" smooth="yes"/>
      <point x="459" y="-135"/>
      <point x="327" y="-218"/>
      <point x="191" y="-218" type="curve" smooth="yes"/>
      <point x="93" y="-218"/>
      <point x="24" y="-171"/>
      <point x="24" y="-103" type="curve" smooth="yes"/>
      <point x="24" y="-63"/>
      <point x="72" y="-24"/>
      <point x="109" y="-6" type="curve"/>
      <point x="75" y="3"/>
      <point x="49" y="50"/>
      <point x="49" y="92" type="curve" smooth="yes"/>
      <point x="49" y="110"/>
      <point x="94" y="144"/>
      <point x="132" y="165" type="curve"/>
      <point x="75" y="188"/>
      <point x="39" y="237"/>
      <point x="39" y="294" type="curve" smooth="yes"/>
      <point x="39" y="377"/>
      <point x="118" y="443"/>
      <point x="220" y="443" type="curve" smooth="yes"/>
      <point x="265" y="443"/>
      <point x="299" y="437"/>
      <point x="327" y="418" type="curve" smooth="yes"/>
      <point x="330" y="415"/>
      <point x="331" y="415"/>
      <point x="333" y="415" type="curve" smooth="yes"/>
      <point x="458" y="427" type="line"/>
      <point x="461" y="426"/>
      <point x="469" y="422"/>
      <point x="469" y="416" type="curve" smooth="yes"/>
      <point x="469" y="409"/>
      <point x="454" y="373"/>
      <point x="444" y="366" type="curve"/>
      <point x="422" y="368"/>
      <point x="414" y="369"/>
      <point x="388" y="372" type="curve" smooth="yes"/>
      <point x="386" y="372"/>
      <point x="382" y="371"/>
      <point x="382" y="369" type="curve"/>
      <point x="398" y="347"/>
      <point x="403" y="327"/>
      <point x="403" y="299" type="curve" smooth="yes"/>
      <point x="403" y="216"/>
      <point x="325" y="148"/>
      <point x="222" y="148" type="curve" smooth="yes"/>
      <point x="204" y="148"/>
      <point x="186" y="150"/>
      <point x="170" y="153" type="curve"/>
      <point x="159" y="144"/>
      <point x="146" y="132"/>
      <point x="146" y="122" type="curve" smooth="yes"/>
      <point x="146" y="107"/>
      <point x="170" y="97"/>
      <point x="194" y="97" type="curve" smooth="yes"/>
      <point x="232" y="97"/>
      <point x="291" y="98"/>
    </contour>
  </outline>
</glyph>
<glyph name="k" format="1">
  <advance width="590"/>
  <unicode hex="006B"/>
  <outline>
    <contour>
      <point x="218" y="145" type="line" smooth="yes"/>
      <point x="218" y="102"/>
      <point x="218" y="71"/>
      <point x="226" y="51" type="curve" smooth="yes"/>
      <point x="231" y="38"/>
      <point x="277" y="34"/>
      <point x="290" y="33" type="curve"/>
      <point x="295" y="26"/>
      <point x="294" y="2"/>
      <point x="290" y="-4" type="curve"/>
      <point x="251" y="0"/>
      <point x="195" y="3"/>
      <point x="153" y="3" type="curve" smooth="yes"/>
      <point x="111" y="3"/>
      <point x="55" y="0"/>
      <point x="16" y="-4" type="curve"/>
      <point x="12" y="2"/>
      <point x="11" y="26"/>
      <point x="16" y="33" type="curve"/>
      <point x="29" y="34"/>
      <point x="75" y="38"/>
      <point x="80" y="51" type="curve" smooth="yes"/>
      <point x="88" y="71"/>
      <point x="88" y="102"/>
      <point x="88" y="145" type="curve" smooth="yes"/>
      <point x="88" y="558" type="line" smooth="yes"/>
      <point x="88" y="575"/>
      <point x="88" y="589"/>
      <point x="81" y="606" type="curve" smooth="yes"/>
      <point x="76" y="618"/>
      <point x="33" y="624"/>
      <point x="21" y="624" type="curve"/>
      <point x="17" y="624"/>
      <point x="16" y="652"/>
      <point x="21" y="656" type="curve"/>
      <point x="133" y="666"/>
      <point x="211" y="695"/>
      <point x="214" y="695" type="curve"/>
      <point x="220" y="694"/>
      <point x="228" y="683"/>
      <point x="229" y="678" type="curve"/>
      <point x="229" y="678"/>
      <point x="218" y="616"/>
      <point x="218" y="576" type="curve" smooth="yes"/>
      <point x="217" y="236" type="line"/>
      <point x="234" y="242"/>
      <point x="257" y="257"/>
      <point x="292" y="287" type="curve" smooth="yes"/>
      <point x="362" y="347"/>
      <point x="380" y="368"/>
      <point x="380" y="383" type="curve" smooth="yes"/>
      <point x="380" y="395"/>
      <point x="334" y="404"/>
      <point x="316" y="405" type="curve"/>
      <point x="313" y="414"/>
      <point x="313" y="437"/>
      <point x="318" y="439" type="curve"/>
      <point x="318" y="439"/>
      <point x="407" y="435"/>
      <point x="449" y="435" type="curve" smooth="yes"/>
      <point x="485" y="435"/>
      <point x="515" y="438"/>
      <point x="560" y="440" type="curve"/>
      <point x="566" y="430"/>
      <point x="563" y="408"/>
      <point x="557" y="405" type="curve"/>
      <point x="526" y="402"/>
      <point x="484" y="392"/>
      <point x="458" y="374" type="curve" smooth="yes"/>
      <point x="437" y="359"/>
      <point x="387" y="310"/>
      <point x="326" y="256" type="curve"/>
      <point x="397" y="173"/>
      <point x="412" y="161"/>
      <point x="468" y="98" type="curve" smooth="yes"/>
      <point x="523" y="37"/>
      <point x="555" y="36"/>
      <point x="587" y="36" type="curve"/>
      <point x="593" y="25"/>
      <point x="588" y="8"/>
      <point x="587" y="6" type="curve"/>
      <point x="571" y="0"/>
      <point x="524" y="-6"/>
      <point x="486" y="-6" type="curve" smooth="yes"/>
      <point x="428" y="-6"/>
      <point x="379" y="18"/>
      <point x="349" y="53" type="curve" smooth="yes"/>
      <point x="349" y="53"/>
      <point x="280" y="127"/>
      <point x="231" y="188" type="curve" smooth="yes"/>
      <point x="227" y="194"/>
      <point x="218" y="201"/>
      <point x="218" y="201" type="curve"/>
    </contour>
  </outline>
</glyph>
<glyph name="l" format="1">
  <advance width="306"/>
  <unicode hex="006C"/>
  <outline>
    <contour>
      <point x="88" y="558" type="line" smooth="yes"/>
      <point x="88" y="575"/>
      <point x="88" y="589"/>
      <point x="81" y="606" type="curve" smooth="yes"/>
      <point x="76" y="618"/>
      <point x="33" y="624"/>
      <point x="21" y="624" type="curve"/>
      <point x="17" y="624"/>
      <point x="16" y="652"/>
      <point x="21" y="656" type="curve"/>
      <point x="133" y="666"/>
      <point x="211" y="695"/>
      <point x="214" y="695" type="curve"/>
      <point x="220" y="694"/>
      <point x="228" y="683"/>
      <point x="229" y="678" type="curve"/>
      <point x="229" y="678"/>
      <point x="218" y="616"/>
      <point x="218" y="576" type="curve" smooth="yes"/>
      <point x="218" y="145" type="line" smooth="yes"/>
      <point x="218" y="102"/>
      <point x="218" y="71"/>
      <point x="226" y="51" type="curve" smooth="yes"/>
      <point x="231" y="38"/>
      <point x="277" y="34"/>
      <point x="290" y="33" type="curve"/>
      <point x="295" y="26"/>
      <point x="294" y="2"/>
      <point x="290" y="-4" type="curve"/>
      <point x="251" y="0"/>
      <point x="195" y="3"/>
      <point x="153" y="3" type="curve" smooth="yes"/>
      <point x="111" y="3"/>
      <point x="55" y="0"/>
      <point x="16" y="-4" type="curve"/>
      <point x="12" y="2"/>
      <point x="11" y="26"/>
      <point x="16" y="33" type="curve"/>
      <point x="29" y="34"/>
      <point x="75" y="38"/>
      <point x="80" y="51" type="curve" smooth="yes"/>
      <point x="88" y="71"/>
      <point x="88" y="102"/>
      <point x="88" y="145" type="curve" smooth="yes"/>
    </contour>
  </outline>
</glyph>
<glyph name="o" format="1">
  <advance width="532"/>
  <unicode hex="006F"/>
  <outline>
    <contour>
      <point x="254" y="406" type="curve" smooth="yes"/>
      <point x="181" y="406"/>
      <point x="174" y="310"/>
      <point x="174" y="237" type="curve" smooth="yes"/>
      <point x="174" y="149"/>
      <point x="204" y="35"/>
      <point x="277" y="35" type="curve" smooth="yes"/>
      <point x="350" y="35"/>
      <point x="358" y="130"/>
      <point x="358" y="202" type="curve" smooth="yes"/>
      <point x="358" y="291"/>
      <point x="327" y="406"/>
    </contour>
    <contour>
      <point x="265" y="447" type="curve" smooth="yes"/>
      <point x="403" y="447"/>
      <point x="500" y="352"/>
      <point x="500" y="225" type="curve" smooth="yes"/>
      <point x="500" y="99"/>
      <point x="399" y="-7"/>
      <point x="267" y="-7" type="curve" smooth="yes"/>
      <point x="128" y="-7"/>
      <point x="32" y="91"/>
      <point x="32" y="217" type="curve" smooth="yes"/>
      <point x="32" y="343"/>
      <point x="134" y="447"/>
    </contour>
  </outline>
</glyph>
<glyph name="p" format="1">
  <advance width="553"/>
  <unicode hex="0070"/>
  <outline>
    <contour>
      <point x="325" y="448" type="curve" smooth="yes"/>
      <point x="446" y="448"/>
      <point x="521" y="345"/>
      <point x="521" y="234" type="curve" smooth="yes"/>
      <point x="521" y="81"/>
      <point x="386" y="-8"/>
      <point x="276" y="-8" type="curve" smooth="yes"/>
      <point x="248" y="-8"/>
      <point x="222" y="1"/>
      <point x="218" y="1" type="curve"/>
      <point x="215" y="1"/>
      <point x="215" y="-3"/>
      <point x="215" y="-15" type="curve" smooth="yes"/>
      <point x="215" y="-69" type="line" smooth="yes"/>
      <point x="215" y="-112"/>
      <point x="215" y="-143"/>
      <point x="223" y="-163" type="curve" smooth="yes"/>
      <point x="228" y="-176"/>
      <point x="274" y="-180"/>
      <point x="287" y="-181" type="curve"/>
      <point x="292" y="-188"/>
      <point x="291" y="-212"/>
      <point x="287" y="-218" type="curve"/>
      <point x="248" y="-214"/>
      <point x="192" y="-211"/>
      <point x="150" y="-211" type="curve" smooth="yes"/>
      <point x="108" y="-211"/>
      <point x="52" y="-214"/>
      <point x="13" y="-218" type="curve"/>
      <point x="9" y="-212"/>
      <point x="8" y="-188"/>
      <point x="13" y="-181" type="curve"/>
      <point x="26" y="-180"/>
      <point x="72" y="-176"/>
      <point x="77" y="-163" type="curve" smooth="yes"/>
      <point x="85" y="-143"/>
      <point x="85" y="-112"/>
      <point x="85" y="-69" type="curve" smooth="yes"/>
      <point x="85" y="260" type="line" smooth="yes"/>
      <point x="85" y="270"/>
      <point x="84" y="327"/>
      <point x="76" y="342" type="curve" smooth="yes"/>
      <point x="68" y="357"/>
      <point x="20" y="362"/>
      <point x="13" y="362" type="curve"/>
      <point x="10" y="364"/>
      <point x="9" y="393"/>
      <point x="14" y="393" type="curve"/>
      <point x="90" y="399"/>
      <point x="171" y="427"/>
      <point x="209" y="446" type="curve"/>
      <point x="216" y="444"/>
      <point x="226" y="432"/>
      <point x="226" y="429" type="curve"/>
      <point x="224" y="423"/>
      <point x="217" y="411"/>
      <point x="217" y="395" type="curve" smooth="yes"/>
      <point x="217" y="389"/>
      <point x="219" y="387"/>
      <point x="221" y="389" type="curve" smooth="yes"/>
      <point x="251" y="421"/>
      <point x="294" y="448"/>
    </contour>
    <contour>
      <point x="270" y="375" type="curve" smooth="yes"/>
      <point x="233" y="375"/>
      <point x="215" y="352"/>
      <point x="215" y="347" type="curve" smooth="yes"/>
      <point x="215" y="96" type="line" smooth="yes"/>
      <point x="215" y="56"/>
      <point x="248" y="36"/>
      <point x="283" y="36" type="curve" smooth="yes"/>
      <point x="316" y="36"/>
      <point x="377" y="83"/>
      <point x="377" y="199" type="curve" smooth="yes"/>
      <point x="377" y="302"/>
      <point x="351" y="375"/>
    </contour>
  </outline>
</glyph>
<glyph name="q" format="1">
  <advance width="534"/>
  <unicode hex="0071"/>
  <outline>
    <contour>
      <point x="262" y="394" type="curve" smooth="yes"/>
      <point x="192" y="394"/>
      <point x="174" y="314"/>
      <point x="174" y="243" type="curve" smooth="yes"/>
      <point x="174" y="160"/>
      <point x="199" y="56"/>
      <point x="276" y="56" type="curve" smooth="yes"/>
      <point x="312" y="56"/>
      <point x="336" y="76"/>
      <point x="336" y="80" type="curve" smooth="yes"/>
      <point x="336" y="344" type="line" smooth="yes"/>
      <point x="336" y="354"/>
      <point x="314" y="394"/>
    </contour>
    <contour>
      <point x="300" y="446" type="curve" smooth="yes"/>
      <point x="338" y="446"/>
      <point x="388" y="423"/>
      <point x="418" y="423" type="curve" smooth="yes"/>
      <point x="439" y="423"/>
      <point x="448" y="428"/>
      <point x="454" y="430" type="curve"/>
      <point x="460" y="428"/>
      <point x="478" y="412"/>
      <point x="478" y="405" type="curve"/>
      <point x="473" y="393"/>
      <point x="466" y="360"/>
      <point x="466" y="291" type="curve" smooth="yes"/>
      <point x="466" y="-69" type="line" smooth="yes"/>
      <point x="466" y="-112"/>
      <point x="466" y="-143"/>
      <point x="474" y="-163" type="curve" smooth="yes"/>
      <point x="479" y="-176"/>
      <point x="525" y="-180"/>
      <point x="538" y="-181" type="curve"/>
      <point x="543" y="-188"/>
      <point x="542" y="-212"/>
      <point x="538" y="-218" type="curve"/>
      <point x="499" y="-214"/>
      <point x="443" y="-211"/>
      <point x="401" y="-211" type="curve" smooth="yes"/>
      <point x="359" y="-211"/>
      <point x="303" y="-214"/>
      <point x="264" y="-218" type="curve"/>
      <point x="260" y="-212"/>
      <point x="259" y="-188"/>
      <point x="264" y="-181" type="curve"/>
      <point x="277" y="-180"/>
      <point x="323" y="-176"/>
      <point x="328" y="-163" type="curve" smooth="yes"/>
      <point x="336" y="-143"/>
      <point x="336" y="-112"/>
      <point x="336" y="-69" type="curve" smooth="yes"/>
      <point x="336" y="17" type="line" smooth="yes"/>
      <point x="336" y="23"/>
      <point x="336" y="35"/>
      <point x="330" y="30" type="curve" smooth="yes"/>
      <point x="315" y="19"/>
      <point x="263" y="-8"/>
      <point x="216" y="-8" type="curve" smooth="yes"/>
      <point x="115" y="-8"/>
      <point x="32" y="84"/>
      <point x="32" y="192" type="curve" smooth="yes"/>
      <point x="32" y="349"/>
      <point x="173" y="446"/>
    </contour>
  </outline>
</glyph>
<glyph name="s" format="1">
  <advance width="404"/>
  <unicode hex="0073"/>
  <outline>
    <contour>
      <point x="224" y="448" type="curve" smooth="yes"/>
      <point x="271" y="448"/>
      <point x="303" y="436"/>
      <point x="336" y="429" type="curve"/>
      <point x="344" y="395"/>
      <point x="357" y="323"/>
      <point x="357" y="306" type="curve" smooth="yes"/>
      <point x="357" y="302"/>
      <point x="346" y="299"/>
      <point x="339" y="299" type="curve" smooth="yes"/>
      <point x="331" y="299"/>
      <point x="326" y="303"/>
      <point x="320" y="307" type="curve"/>
      <point x="310" y="352"/>
      <point x="284" y="408"/>
      <point x="214" y="408" type="curve" smooth="yes"/>
      <point x="181" y="408"/>
      <point x="157" y="390"/>
      <point x="157" y="354" type="curve" smooth="yes"/>
      <point x="157" y="302"/>
      <point x="215" y="287"/>
      <point x="259" y="265" type="curve" smooth="yes"/>
      <point x="311" y="239"/>
      <point x="367" y="215"/>
      <point x="367" y="130" type="curve" smooth="yes"/>
      <point x="367" y="30"/>
      <point x="274" y="-8"/>
      <point x="170" y="-8" type="curve" smooth="yes"/>
      <point x="126" y="-8"/>
      <point x="78" y="7"/>
      <point x="53" y="13" type="curve"/>
      <point x="49" y="36"/>
      <point x="45" y="132"/>
      <point x="45" y="143" type="curve" smooth="yes"/>
      <point x="45" y="149"/>
      <point x="55" y="150"/>
      <point x="60" y="150" type="curve" smooth="yes"/>
      <point x="67" y="150"/>
      <point x="79" y="146"/>
      <point x="82" y="140" type="curve"/>
      <point x="96" y="53"/>
      <point x="150" y="32"/>
      <point x="190" y="32" type="curve" smooth="yes"/>
      <point x="225" y="32"/>
      <point x="247" y="58"/>
      <point x="247" y="86" type="curve" smooth="yes"/>
      <point x="247" y="136"/>
      <point x="191" y="149"/>
      <point x="144" y="175" type="curve" smooth="yes"/>
      <point x="86" y="207"/>
      <point x="38" y="242"/>
      <point x="38" y="310" type="curve" smooth="yes"/>
      <point x="38" y="410"/>
      <point x="145" y="448"/>
    </contour>
  </outline>
</glyph>
<glyph name="u" format="1">
  <advance width="566"/>
  <unicode hex="0075"/>
  <outline>
    <contour>
      <point x="356" y="260" type="line" smooth="yes"/>
      <point x="356" y="270"/>
      <point x="354" y="327"/>
      <point x="346" y="342" type="curve" smooth="yes"/>
      <point x="338" y="357"/>
      <point x="291" y="362"/>
      <point x="284" y="362" type="curve"/>
      <point x="281" y="364"/>
      <point x="279" y="393"/>
      <point x="284" y="393" type="curve"/>
      <point x="360" y="399"/>
      <point x="442" y="427"/>
      <point x="480" y="446" type="curve"/>
      <point x="487" y="444"/>
      <point x="496" y="432"/>
      <point x="496" y="429" type="curve"/>
      <point x="493" y="421"/>
      <point x="487" y="386"/>
      <point x="486" y="372" type="curve" smooth="yes"/>
      <point x="485" y="350"/>
      <point x="486" y="315"/>
      <point x="486" y="309" type="curve" smooth="yes"/>
      <point x="486" y="108" type="line" smooth="yes"/>
      <point x="486" y="93"/>
      <point x="485" y="80"/>
      <point x="494" y="70" type="curve" smooth="yes"/>
      <point x="503" y="60"/>
      <point x="531" y="60"/>
      <point x="540" y="60" type="curve"/>
      <point x="542" y="58"/>
      <point x="542" y="54"/>
      <point x="542" y="47" type="curve" smooth="yes"/>
      <point x="542" y="41"/>
      <point x="540" y="34"/>
      <point x="536" y="28" type="curve"/>
      <point x="477" y="22"/>
      <point x="377" y="-7"/>
      <point x="364" y="-7" type="curve" smooth="yes"/>
      <point x="360" y="-7"/>
      <point x="356" y="2"/>
      <point x="356" y="17" type="curve" smooth="yes"/>
      <point x="356" y="33" type="line" smooth="yes"/>
      <point x="356" y="35"/>
      <point x="355" y="40"/>
      <point x="352" y="38" type="curve" smooth="yes"/>
      <point x="336" y="27"/>
      <point x="282" y="-5"/>
      <point x="212" y="-5" type="curve" smooth="yes"/>
      <point x="115" y="-5"/>
      <point x="84" y="80"/>
      <point x="84" y="174" type="curve" smooth="yes"/>
      <point x="84" y="260" type="line" smooth="yes"/>
      <point x="84" y="270"/>
      <point x="82" y="327"/>
      <point x="74" y="342" type="curve" smooth="yes"/>
      <point x="66" y="357"/>
      <point x="19" y="362"/>
      <point x="12" y="362" type="curve"/>
      <point x="9" y="364"/>
      <point x="7" y="393"/>
      <point x="12" y="393" type="curve"/>
      <point x="88" y="399"/>
      <point x="170" y="427"/>
      <point x="208" y="446" type="curve"/>
      <point x="215" y="444"/>
      <point x="224" y="432"/>
      <point x="224" y="429" type="curve"/>
      <point x="221" y="421"/>
      <point x="215" y="386"/>
      <point x="214" y="372" type="curve" smooth="yes"/>
      <point x="213" y="350"/>
      <point x="214" y="315"/>
      <point x="214" y="309" type="curve" smooth="yes"/>
      <point x="214" y="219" type="line" smooth="yes"/>
      <point x="214" y="113"/>
      <point x="230" y="56"/>
      <point x="292" y="56" type="curve" smooth="yes"/>
      <point x="320" y="56"/>
      <point x="356" y="78"/>
      <point x="356" y="93" type="curve" smooth="yes"/>
    </contour>
  </outline>
</glyph>
<glyph name="w" format="1">
  <advance width="789"/>
  <unicode hex="0077"/>
  <outline>
    <contour>
      <point x="128" y="436" type="curve" smooth="yes"/>
      <point x="170" y="436"/>
      <point x="236" y="440"/>
      <point x="261" y="443" type="curve"/>
      <point x="266" y="438"/>
      <point x="266" y="412"/>
      <point x="261" y="406" type="curve"/>
      <point x="249" y="406"/>
      <point x="202" y="396"/>
      <point x="202" y="379" type="curve" smooth="yes"/>
      <point x="202" y="376"/>
      <point x="202" y="369"/>
      <point x="204" y="364" type="curve" smooth="yes"/>
      <point x="240" y="294"/>
      <point x="301" y="172"/>
      <point x="301" y="172" type="curve"/>
      <point x="301" y="172"/>
      <point x="367" y="320"/>
      <point x="367" y="335" type="curve" smooth="yes"/>
      <point x="367" y="346"/>
      <point x="361" y="362"/>
      <point x="358" y="368" type="curve" smooth="yes"/>
      <point x="343" y="397"/>
      <point x="303" y="406"/>
      <point x="295" y="406" type="curve"/>
      <point x="288" y="414"/>
      <point x="290" y="437"/>
      <point x="294" y="443" type="curve"/>
      <point x="334" y="438"/>
      <point x="390" y="437"/>
      <point x="429" y="436" type="curve"/>
      <point x="471" y="436"/>
      <point x="530" y="440"/>
      <point x="555" y="443" type="curve"/>
      <point x="560" y="438"/>
      <point x="560" y="412"/>
      <point x="555" y="406" type="curve"/>
      <point x="543" y="406"/>
      <point x="496" y="396"/>
      <point x="496" y="379" type="curve" smooth="yes"/>
      <point x="496" y="376"/>
      <point x="496" y="369"/>
      <point x="498" y="364" type="curve" smooth="yes"/>
      <point x="530" y="292"/>
      <point x="582" y="180"/>
      <point x="582" y="180" type="curve"/>
      <point x="582" y="180"/>
      <point x="618" y="269"/>
      <point x="650" y="342" type="curve" smooth="yes"/>
      <point x="654" y="352"/>
      <point x="661" y="368"/>
      <point x="661" y="379" type="curve" smooth="yes"/>
      <point x="661" y="404"/>
      <point x="598" y="406"/>
      <point x="590" y="406" type="curve"/>
      <point x="585" y="411"/>
      <point x="585" y="436"/>
      <point x="589" y="443" type="curve"/>
      <point x="619" y="439"/>
      <point x="655" y="436"/>
      <point x="694" y="436" type="curve" smooth="yes"/>
      <point x="736" y="436"/>
      <point x="774" y="441"/>
      <point x="789" y="443" type="curve"/>
      <point x="793" y="438"/>
      <point x="794" y="413"/>
      <point x="789" y="406" type="curve"/>
      <point x="777" y="406"/>
      <point x="734" y="405"/>
      <point x="721" y="375" type="curve" smooth="yes"/>
      <point x="665" y="245"/>
      <point x="633" y="172"/>
      <point x="574" y="44" type="curve" smooth="yes"/>
      <point x="556" y="5"/>
      <point x="533" y="-11"/>
      <point x="524" y="-11" type="curve" smooth="yes"/>
      <point x="521" y="-11"/>
      <point x="515" y="-6"/>
      <point x="512" y="-3" type="curve"/>
      <point x="512" y="-3"/>
      <point x="434" y="198"/>
      <point x="401" y="276" type="curve"/>
      <point x="370" y="198"/>
      <point x="302" y="44"/>
      <point x="302" y="44" type="curve" smooth="yes"/>
      <point x="285" y="5"/>
      <point x="261" y="-11"/>
      <point x="252" y="-11" type="curve" smooth="yes"/>
      <point x="249" y="-11"/>
      <point x="243" y="-6"/>
      <point x="240" y="-3" type="curve"/>
      <point x="170" y="146"/>
      <point x="131" y="231"/>
      <point x="63" y="368" type="curve"/>
      <point x="49" y="398"/>
      <point x="8" y="406"/>
      <point x="-0" y="406" type="curve"/>
      <point x="-6" y="414"/>
      <point x="-4" y="437"/>
      <point x="-0" y="443" type="curve"/>
      <point x="26" y="440"/>
      <point x="89" y="436"/>
    </contour>
  </outline>
</glyph>
<glyph name="x" format="1">
  <advance width="558"/>
  <unicode hex="0078"/>
  <outline>
    <contour>
      <point x="155" y="436" type="curve"/>
      <point x="197" y="436"/>
      <point x="256" y="440"/>
      <point x="281" y="443" type="curve"/>
      <point x="286" y="438"/>
      <point x="286" y="412"/>
      <point x="281" y="406" type="curve"/>
      <point x="269" y="406"/>
      <point x="233" y="401"/>
      <point x="233" y="384" type="curve" smooth="yes"/>
      <point x="233" y="381"/>
      <point x="239" y="375"/>
      <point x="243" y="370" type="curve" smooth="yes"/>
      <point x="307" y="288" type="line"/>
      <point x="336" y="319"/>
      <point x="384" y="370"/>
      <point x="384" y="379" type="curve" smooth="yes"/>
      <point x="384" y="404"/>
      <point x="321" y="406"/>
      <point x="313" y="406" type="curve"/>
      <point x="308" y="411"/>
      <point x="308" y="436"/>
      <point x="312" y="443" type="curve"/>
      <point x="342" y="439"/>
      <point x="378" y="436"/>
      <point x="417" y="436" type="curve" smooth="yes"/>
      <point x="459" y="436"/>
      <point x="523" y="441"/>
      <point x="538" y="443" type="curve"/>
      <point x="542" y="438"/>
      <point x="543" y="413"/>
      <point x="538" y="406" type="curve"/>
      <point x="520" y="406"/>
      <point x="483" y="403"/>
      <point x="455" y="374" type="curve" smooth="yes"/>
      <point x="419" y="336"/>
      <point x="389" y="302"/>
      <point x="340" y="246" type="curve"/>
      <point x="395" y="176"/>
      <point x="428" y="135"/>
      <point x="482" y="66" type="curve" smooth="yes"/>
      <point x="502" y="40"/>
      <point x="541" y="33"/>
      <point x="549" y="33" type="curve"/>
      <point x="556" y="25"/>
      <point x="554" y="2"/>
      <point x="550" y="-4" type="curve"/>
      <point x="510" y="1"/>
      <point x="450" y="2"/>
      <point x="411" y="3" type="curve"/>
      <point x="369" y="3"/>
      <point x="309" y="-1"/>
      <point x="284" y="-4" type="curve"/>
      <point x="279" y="1"/>
      <point x="279" y="27"/>
      <point x="284" y="33" type="curve"/>
      <point x="296" y="33"/>
      <point x="332" y="38"/>
      <point x="332" y="55" type="curve" smooth="yes"/>
      <point x="332" y="58"/>
      <point x="326" y="64"/>
      <point x="322" y="69" type="curve" smooth="yes"/>
      <point x="251" y="156" type="line"/>
      <point x="229" y="132"/>
      <point x="192" y="97"/>
      <point x="176" y="75" type="curve" smooth="yes"/>
      <point x="171" y="68"/>
      <point x="168" y="63"/>
      <point x="168" y="60" type="curve" smooth="yes"/>
      <point x="168" y="35"/>
      <point x="231" y="33"/>
      <point x="239" y="33" type="curve"/>
      <point x="244" y="28"/>
      <point x="244" y="3"/>
      <point x="240" y="-4" type="curve"/>
      <point x="210" y="0"/>
      <point x="174" y="3"/>
      <point x="135" y="3" type="curve" smooth="yes"/>
      <point x="93" y="3"/>
      <point x="23" y="-2"/>
      <point x="8" y="-4" type="curve"/>
      <point x="4" y="1"/>
      <point x="3" y="26"/>
      <point x="8" y="33" type="curve"/>
      <point x="26" y="33"/>
      <point x="68" y="44"/>
      <point x="92" y="67" type="curve" smooth="yes"/>
      <point x="141" y="114"/>
      <point x="169" y="148"/>
      <point x="218" y="199" type="curve"/>
      <point x="167" y="267"/>
      <point x="141" y="305"/>
      <point x="87" y="374" type="curve" smooth="yes"/>
      <point x="67" y="400"/>
      <point x="26" y="406"/>
      <point x="18" y="406" type="curve"/>
      <point x="11" y="414"/>
      <point x="13" y="437"/>
      <point x="17" y="443" type="curve"/>
      <point x="57" y="438"/>
      <point x="116" y="437"/>
    </contour>
  </outline>
</glyph>
<glyph name="y" format="1">
  <advance width="534"/>
  <unicode hex="0079"/>
  <outline>
    <contour>
      <point x="135" y="436" type="curve" smooth="yes"/>
      <point x="177" y="436"/>
      <point x="236" y="440"/>
      <point x="261" y="443" type="curve"/>
      <point x="266" y="438"/>
      <point x="266" y="412"/>
      <point x="261" y="406" type="curve"/>
      <point x="249" y="406"/>
      <point x="202" y="396"/>
      <point x="202" y="379" type="curve" smooth="yes"/>
      <point x="202" y="376"/>
      <point x="202" y="369"/>
      <point x="204" y="364" type="curve" smooth="yes"/>
      <point x="240" y="294"/>
      <point x="307" y="167"/>
      <point x="307" y="167" type="curve"/>
      <point x="307" y="167"/>
      <point x="353" y="268"/>
      <point x="386" y="342" type="curve" smooth="yes"/>
      <point x="391" y="352"/>
      <point x="397" y="368"/>
      <point x="397" y="379" type="curve" smooth="yes"/>
      <point x="397" y="404"/>
      <point x="334" y="406"/>
      <point x="326" y="406" type="curve"/>
      <point x="321" y="411"/>
      <point x="321" y="436"/>
      <point x="325" y="443" type="curve"/>
      <point x="355" y="439"/>
      <point x="391" y="436"/>
      <point x="430" y="436" type="curve" smooth="yes"/>
      <point x="472" y="436"/>
      <point x="519" y="441"/>
      <point x="534" y="443" type="curve"/>
      <point x="538" y="438"/>
      <point x="539" y="413"/>
      <point x="534" y="406" type="curve"/>
      <point x="522" y="406"/>
      <point x="467" y="402"/>
      <point x="453" y="373" type="curve" smooth="yes"/>
      <point x="453" y="373"/>
      <point x="351" y="157"/>
      <point x="288" y="25" type="curve" smooth="yes"/>
      <point x="257" y="-40"/>
      <point x="242" y="-82"/>
      <point x="200" y="-135" type="curve" smooth="yes"/>
      <point x="148" y="-200"/>
      <point x="103" y="-218"/>
      <point x="73" y="-218" type="curve" smooth="yes"/>
      <point x="31" y="-218"/>
      <point x="6" y="-192"/>
      <point x="6" y="-165" type="curve" smooth="yes"/>
      <point x="6" y="-142"/>
      <point x="16" y="-127"/>
      <point x="29" y="-118" type="curve"/>
      <point x="108" y="-118"/>
      <point x="153" y="-108"/>
      <point x="194" y="-40" type="curve" smooth="yes"/>
      <point x="212" y="-10"/>
      <point x="216" y="1"/>
      <point x="229" y="31" type="curve"/>
      <point x="188" y="114"/>
      <point x="63" y="368"/>
      <point x="63" y="368" type="curve"/>
      <point x="50" y="398"/>
      <point x="8" y="406"/>
      <point x="-0" y="406" type="curve"/>
      <point x="-6" y="414"/>
      <point x="-4" y="437"/>
      <point x="-0" y="443" type="curve"/>
      <point x="26" y="440"/>
      <point x="96" y="436"/>
    </contour>
  </outline>
</glyph>
<glyph name="z" format="1">
  <advance width="460"/>
  <unicode hex="007A"/>
  <outline>
    <contour>
      <point x="150" y="428" type="curve" smooth="yes"/>
      <point x="288" y="428" type="line" smooth="yes"/>
      <point x="342" y="428"/>
      <point x="376" y="431"/>
      <point x="417" y="436" type="curve"/>
      <point x="422" y="428"/>
      <point x="420" y="417"/>
      <point x="420" y="412" type="curve"/>
      <point x="177" y="46" type="line"/>
      <point x="291" y="46" type="line" smooth="yes"/>
      <point x="352" y="46"/>
      <point x="388" y="109"/>
      <point x="396" y="147" type="curve" smooth="yes"/>
      <point x="397" y="152"/>
      <point x="405" y="154"/>
      <point x="409" y="154" type="curve" smooth="yes"/>
      <point x="420" y="154"/>
      <point x="433" y="145"/>
      <point x="434" y="144" type="curve"/>
      <point x="421" y="105"/>
      <point x="394" y="0"/>
      <point x="394" y="0" type="curve"/>
      <point x="39" y="0" type="line"/>
      <point x="39" y="0"/>
      <point x="29" y="8"/>
      <point x="29" y="17" type="curve" smooth="yes"/>
      <point x="29" y="22"/>
      <point x="31" y="30"/>
      <point x="33" y="34" type="curve" smooth="yes"/>
      <point x="257" y="381" type="line"/>
      <point x="257" y="381"/>
      <point x="185" y="382"/>
      <point x="153" y="382" type="curve" smooth="yes"/>
      <point x="102" y="382"/>
      <point x="83" y="323"/>
      <point x="72" y="288" type="curve" smooth="yes"/>
      <point x="71" y="284"/>
      <point x="59" y="281"/>
      <point x="49" y="281" type="curve" smooth="yes"/>
      <point x="43" y="281"/>
      <point x="37" y="283"/>
      <point x="37" y="285" type="curve"/>
      <point x="40" y="301"/>
      <point x="52" y="381"/>
      <point x="55" y="434" type="curve"/>
      <point x="55" y="434"/>
      <point x="114" y="428"/>
    </contour>
  </outline>
</glyph>
<glyph name="braceright" format="1">
  <advance width="299"/>
  <unicode hex="007D"/>
  <outline>
    <contour>
      <point x="34" y="760" type="curve"/>
      <point x="83" y="756"/>
      <point x="219" y="670"/>
      <point x="219" y="566" type="curve" smooth="yes"/>
      <point x="219" y="539"/>
      <point x="213" y="518"/>
      <point x="207" y="498" type="curve" smooth="yes"/>
      <point x="200" y="474"/>
      <point x="192" y="452"/>
      <point x="192" y="424" type="curve" smooth="yes"/>
      <point x="192" y="371"/>
      <point x="238" y="332"/>
      <point x="280" y="319" type="curve"/>
      <point x="282" y="317"/>
      <point x="283" y="312"/>
      <point x="283" y="308" type="curve" smooth="yes"/>
      <point x="283" y="305"/>
      <point x="282" y="299"/>
      <point x="280" y="297" type="curve"/>
      <point x="238" y="284"/>
      <point x="192" y="245"/>
      <point x="192" y="192" type="curve" smooth="yes"/>
      <point x="192" y="166"/>
      <point x="198" y="145"/>
      <point x="205" y="124" type="curve" smooth="yes"/>
      <point x="212" y="102"/>
      <point x="219" y="80"/>
      <point x="219" y="50" type="curve" smooth="yes"/>
      <point x="219" y="-54"/>
      <point x="83" y="-140"/>
      <point x="34" y="-144" type="curve"/>
      <point x="31" y="-144"/>
      <point x="21" y="-126"/>
      <point x="27" y="-118" type="curve"/>
      <point x="55" y="-103"/>
      <point x="105" y="-58"/>
      <point x="105" y="7" type="curve" smooth="yes"/>
      <point x="105" y="45"/>
      <point x="97" y="61"/>
      <point x="90" y="80" type="curve" smooth="yes"/>
      <point x="83" y="97"/>
      <point x="77" y="117"/>
      <point x="77" y="157" type="curve" smooth="yes"/>
      <point x="77" y="244"/>
      <point x="165" y="308"/>
      <point x="201" y="308" type="curve"/>
      <point x="165" y="308"/>
      <point x="77" y="372"/>
      <point x="77" y="459" type="curve" smooth="yes"/>
      <point x="77" y="507"/>
      <point x="86" y="525"/>
      <point x="94" y="546" type="curve" smooth="yes"/>
      <point x="100" y="561"/>
      <point x="105" y="578"/>
      <point x="105" y="609" type="curve" smooth="yes"/>
      <point x="105" y="674"/>
      <point x="55" y="719"/>
      <point x="27" y="734" type="curve"/>
      <point x="21" y="742"/>
      <point x="31" y="760"/>
    </contour>
  </outline>
</glyph>
<glyph name="asciitilde" format="1">
  <advance width="550"/>
  <unicode hex="007E"/>
  <outline>
    <contour>
      <point x="261" y="273" type="curve" smooth="yes"/>
      <point x="226" y="287"/>
      <point x="186" y="306"/>
      <point x="141" y="306" type="curve" smooth="yes"/>
      <point x="102" y="306"/>
      <point x="67" y="275"/>
      <point x="55" y="259" type="curve"/>
      <point x="52" y="260"/>
      <point x="49" y="263"/>
      <point x="48" y="267" type="curve"/>
      <point x="48" y="307"/>
      <point x="112" y="366"/>
      <point x="171" y="366" type="curve" smooth="yes"/>
      <point x="218" y="366"/>
      <point x="260" y="347"/>
      <point x="295" y="332" type="curve" smooth="yes"/>
      <point x="329" y="318"/>
      <point x="370" y="299"/>
      <point x="415" y="299" type="curve" smooth="yes"/>
      <point x="454" y="299"/>
      <point x="489" y="330"/>
      <point x="501" y="346" type="curve"/>
      <point x="504" y="345"/>
      <point x="507" y="342"/>
      <point x="508" y="338" type="curve"/>
      <point x="508" y="298"/>
      <point x="444" y="239"/>
      <point x="385" y="239" type="curve" smooth="yes"/>
      <point x="338" y="239"/>
      <point x="296" y="259"/>
    </contour>
  </outline>
</glyph>
<glyph name="currency" format="1">
  <advance width="563"/>
  <unicode hex="00A4"/>
  <outline>
    <contour>
      <point x="288" y="160" type="curve" smooth="yes"/>
      <point x="338" y="160"/>
      <point x="369" y="219"/>
      <point x="369" y="294" type="curve" smooth="yes"/>
      <point x="369" y="386"/>
      <point x="326" y="456"/>
      <point x="274" y="456" type="curve" smooth="yes"/>
      <point x="224" y="456"/>
      <point x="190" y="394"/>
      <point x="190" y="319" type="curve" smooth="yes"/>
      <point x="190" y="227"/>
      <point x="236" y="160"/>
    </contour>
    <contour>
      <point x="393" y="455" type="curve"/>
      <point x="452" y="510" type="line" smooth="yes"/>
      <point x="460" y="518"/>
      <point x="486" y="490"/>
      <point x="493" y="466" type="curve"/>
      <point x="433" y="410" type="line"/>
      <point x="451" y="380"/>
      <point x="462" y="344"/>
      <point x="462" y="307" type="curve" smooth="yes"/>
      <point x="462" y="267"/>
      <point x="450" y="230"/>
      <point x="429" y="199" type="curve"/>
      <point x="483" y="141" type="line" smooth="yes"/>
      <point x="491" y="133"/>
      <point x="463" y="107"/>
      <point x="439" y="100" type="curve"/>
      <point x="387" y="155" type="line"/>
      <point x="357" y="133"/>
      <point x="321" y="120"/>
      <point x="281" y="120" type="curve" smooth="yes"/>
      <point x="238" y="120"/>
      <point x="198" y="135"/>
      <point x="167" y="160" type="curve"/>
      <point x="114" y="110" type="line" smooth="yes"/>
      <point x="106" y="102"/>
      <point x="80" y="130"/>
      <point x="73" y="154" type="curve"/>
      <point x="127" y="205" type="line"/>
      <point x="108" y="235"/>
      <point x="97" y="270"/>
      <point x="97" y="307" type="curve" smooth="yes"/>
      <point x="97" y="351"/>
      <point x="111" y="391"/>
      <point x="135" y="423" type="curve"/>
      <point x="83" y="479" type="line" smooth="yes"/>
      <point x="75" y="487"/>
      <point x="103" y="513"/>
      <point x="127" y="520" type="curve"/>
      <point x="179" y="465" type="line"/>
      <point x="208" y="485"/>
      <point x="243" y="496"/>
      <point x="281" y="496" type="curve" smooth="yes"/>
      <point x="324" y="496"/>
      <point x="362" y="481"/>
    </contour>
  </outline>
</glyph>
<glyph name="yen" format="1">
  <advance width="692"/>
  <unicode hex="00A5"/>
  <outline>
    <contour>
      <point x="182" y="191" type="curve"/>
      <point x="198" y="191"/>
      <point x="487" y="191"/>
      <point x="498" y="191" type="curve"/>
      <point x="512" y="180"/>
      <point x="494" y="153"/>
      <point x="488" y="149" type="curve"/>
      <point x="162" y="149" type="line"/>
      <point x="156" y="155"/>
      <point x="173" y="191"/>
    </contour>
    <contour>
      <point x="182" y="271" type="curve"/>
      <point x="198" y="271"/>
      <point x="487" y="271"/>
      <point x="498" y="271" type="curve"/>
      <point x="512" y="260"/>
      <point x="494" y="233"/>
      <point x="488" y="229" type="curve"/>
      <point x="162" y="229" type="line"/>
      <point x="156" y="235"/>
      <point x="173" y="271"/>
    </contour>
    <contour>
      <point x="261" y="145" type="curve" smooth="yes"/>
      <point x="261" y="264" type="line" smooth="yes"/>
      <point x="261" y="265"/>
      <point x="260" y="275"/>
      <point x="258" y="280" type="curve" smooth="yes"/>
      <point x="237" y="328"/>
      <point x="130" y="518"/>
      <point x="130" y="518" type="curve" smooth="yes"/>
      <point x="115" y="546"/>
      <point x="111" y="553"/>
      <point x="99" y="573" type="curve" smooth="yes"/>
      <point x="84" y="598"/>
      <point x="44" y="605"/>
      <point x="31" y="606" type="curve"/>
      <point x="26" y="613"/>
      <point x="27" y="637"/>
      <point x="31" y="643" type="curve"/>
      <point x="70" y="639"/>
      <point x="132" y="636"/>
      <point x="174" y="636" type="curve" smooth="yes"/>
      <point x="216" y="636"/>
      <point x="276" y="639"/>
      <point x="315" y="643" type="curve"/>
      <point x="319" y="637"/>
      <point x="320" y="613"/>
      <point x="315" y="606" type="curve"/>
      <point x="302" y="605"/>
      <point x="254" y="604"/>
      <point x="254" y="579" type="curve" smooth="yes"/>
      <point x="254" y="575"/>
      <point x="257" y="570"/>
      <point x="261" y="563" type="curve" smooth="yes"/>
      <point x="381" y="342" type="line"/>
      <point x="386" y="337"/>
      <point x="464" y="479"/>
      <point x="507" y="559" type="curve" smooth="yes"/>
      <point x="511" y="567"/>
      <point x="512" y="575"/>
      <point x="512" y="582" type="curve" smooth="yes"/>
      <point x="512" y="600"/>
      <point x="451" y="605"/>
      <point x="438" y="606" type="curve"/>
      <point x="433" y="613"/>
      <point x="434" y="637"/>
      <point x="438" y="643" type="curve"/>
      <point x="485" y="639"/>
      <point x="505" y="636"/>
      <point x="551" y="636" type="curve" smooth="yes"/>
      <point x="595" y="636"/>
      <point x="622" y="641"/>
      <point x="663" y="643" type="curve"/>
      <point x="667" y="637"/>
      <point x="668" y="613"/>
      <point x="663" y="606" type="curve"/>
      <point x="650" y="605"/>
      <point x="604" y="604"/>
      <point x="589" y="581" type="curve" smooth="yes"/>
      <point x="569" y="551"/>
      <point x="434" y="336"/>
      <point x="407" y="278" type="curve" smooth="yes"/>
      <point x="404" y="271"/>
      <point x="402" y="261"/>
      <point x="402" y="259" type="curve" smooth="yes"/>
      <point x="401" y="145" type="line" smooth="yes"/>
      <point x="401" y="102"/>
      <point x="401" y="71"/>
      <point x="409" y="51" type="curve" smooth="yes"/>
      <point x="414" y="38"/>
      <point x="460" y="34"/>
      <point x="473" y="33" type="curve"/>
      <point x="478" y="26"/>
      <point x="477" y="2"/>
      <point x="473" y="-4" type="curve"/>
      <point x="434" y="0"/>
      <point x="372" y="3"/>
      <point x="330" y="3" type="curve" smooth="yes"/>
      <point x="288" y="3"/>
      <point x="228" y="0"/>
      <point x="189" y="-4" type="curve"/>
      <point x="185" y="2"/>
      <point x="184" y="26"/>
      <point x="189" y="33" type="curve"/>
      <point x="202" y="34"/>
      <point x="248" y="38"/>
      <point x="253" y="51" type="curve" smooth="yes"/>
      <point x="261" y="71"/>
      <point x="261" y="102"/>
    </contour>
  </outline>
</glyph>
<glyph name="guillemotleft" format="1">
  <advance width="502"/>
  <unicode hex="00AB"/>
  <outline>
    <contour>
      <point x="213" y="248" type="curve" smooth="yes"/>
      <point x="213" y="253"/>
      <point x="216" y="259"/>
      <point x="220" y="263" type="curve"/>
      <point x="351" y="342"/>
      <point x="425" y="419"/>
      <point x="430" y="423" type="curve"/>
      <point x="436" y="422"/>
      <point x="453" y="414"/>
      <point x="457" y="404" type="curve"/>
      <point x="453" y="398"/>
      <point x="360" y="284"/>
      <point x="323" y="248" type="curve"/>
      <point x="360" y="212"/>
      <point x="453" y="98"/>
      <point x="457" y="92" type="curve"/>
      <point x="453" y="82"/>
      <point x="436" y="74"/>
      <point x="430" y="73" type="curve"/>
      <point x="425" y="77"/>
      <point x="351" y="154"/>
      <point x="220" y="233" type="curve"/>
      <point x="216" y="237"/>
      <point x="213" y="243"/>
    </contour>
    <contour>
      <point x="26" y="248" type="curve" smooth="yes"/>
      <point x="26" y="253"/>
      <point x="29" y="259"/>
      <point x="33" y="263" type="curve"/>
      <point x="164" y="342"/>
      <point x="238" y="419"/>
      <point x="243" y="423" type="curve"/>
      <point x="249" y="422"/>
      <point x="266" y="414"/>
      <point x="270" y="404" type="curve"/>
      <point x="266" y="398"/>
      <point x="173" y="284"/>
      <point x="136" y="248" type="curve"/>
      <point x="173" y="212"/>
      <point x="266" y="98"/>
      <point x="270" y="92" type="curve"/>
      <point x="266" y="82"/>
      <point x="249" y="74"/>
      <point x="243" y="73" type="curve"/>
      <point x="238" y="77"/>
      <point x="164" y="154"/>
      <point x="33" y="233" type="curve"/>
      <point x="29" y="237"/>
      <point x="26" y="243"/>
    </contour>
  </outline>
</glyph>
<glyph name="logicalnot" format="1">
  <advance width="589"/>
  <unicode hex="00AC"/>
  <outline>
    <contour>
      <point x="520" y="420" type="line"/>
      <point x="520" y="169" type="line"/>
      <point x="519" y="168"/>
      <point x="483" y="160"/>
      <point x="461" y="160" type="curve" smooth="yes"/>
      <point x="451" y="160"/>
      <point x="448" y="167"/>
      <point x="448" y="167" type="curve"/>
      <point x="448" y="167"/>
      <point x="448" y="326"/>
      <point x="448" y="362" type="curve"/>
      <point x="52" y="362" type="line"/>
      <point x="52" y="362"/>
      <point x="46" y="362"/>
      <point x="46" y="372" type="curve"/>
      <point x="46" y="372"/>
      <point x="51" y="420"/>
      <point x="61" y="420" type="curve" smooth="yes"/>
    </contour>
  </outline>
</glyph>
<glyph name="registered" format="1">
  <advance width="653"/>
  <unicode hex="00AE"/>
  <outline>
    <contour>
      <point x="325" y="501" type="curve" smooth="yes"/>
      <point x="375" y="501"/>
      <point x="417" y="475"/>
      <point x="417" y="427" type="curve" smooth="yes"/>
      <point x="417" y="394"/>
      <point x="375" y="367"/>
      <point x="356" y="362" type="curve"/>
      <point x="385" y="323"/>
      <point x="418" y="288"/>
      <point x="418" y="288" type="curve" smooth="yes"/>
      <point x="447" y="255"/>
      <point x="472" y="251"/>
      <point x="475" y="251" type="curve"/>
      <point x="477" y="248"/>
      <point x="475" y="235"/>
      <point x="475" y="234" type="curve"/>
      <point x="463" y="233"/>
      <point x="446" y="232"/>
      <point x="430" y="232" type="curve" smooth="yes"/>
      <point x="399" y="232"/>
      <point x="382" y="245"/>
      <point x="364" y="268" type="curve" smooth="yes"/>
      <point x="304" y="349" type="line" smooth="yes"/>
      <point x="304" y="349"/>
      <point x="300" y="355"/>
      <point x="297" y="355" type="curve" smooth="yes"/>
      <point x="291" y="355" type="line"/>
      <point x="291" y="295" type="line" smooth="yes"/>
      <point x="291" y="278"/>
      <point x="291" y="266"/>
      <point x="294" y="258" type="curve" smooth="yes"/>
      <point x="296" y="253"/>
      <point x="315" y="250"/>
      <point x="320" y="250" type="curve"/>
      <point x="322" y="247"/>
      <point x="322" y="236"/>
      <point x="320" y="234" type="curve"/>
      <point x="304" y="236"/>
      <point x="279" y="237"/>
      <point x="262" y="237" type="curve" smooth="yes"/>
      <point x="245" y="237"/>
      <point x="219" y="236"/>
      <point x="203" y="234" type="curve"/>
      <point x="201" y="236"/>
      <point x="201" y="247"/>
      <point x="203" y="250" type="curve"/>
      <point x="208" y="250"/>
      <point x="227" y="253"/>
      <point x="229" y="258" type="curve" smooth="yes"/>
      <point x="232" y="266"/>
      <point x="232" y="278"/>
      <point x="232" y="295" type="curve" smooth="yes"/>
      <point x="232" y="441" type="line" smooth="yes"/>
      <point x="232" y="458"/>
      <point x="232" y="470"/>
      <point x="229" y="478" type="curve" smooth="yes"/>
      <point x="227" y="483"/>
      <point x="208" y="484"/>
      <point x="203" y="484" type="curve"/>
      <point x="201" y="487"/>
      <point x="201" y="499"/>
      <point x="203" y="501" type="curve"/>
      <point x="221" y="500"/>
      <point x="246" y="500"/>
      <point x="263" y="500" type="curve" smooth="yes"/>
      <point x="280" y="500"/>
      <point x="301" y="501"/>
    </contour>
    <contour>
      <point x="355" y="424" type="curve" smooth="yes"/>
      <point x="355" y="456"/>
      <point x="340" y="482"/>
      <point x="313" y="482" type="curve" smooth="yes"/>
      <point x="304" y="482"/>
      <point x="295" y="482"/>
      <point x="293" y="478" type="curve" smooth="yes"/>
      <point x="291" y="473"/>
      <point x="291" y="465"/>
      <point x="291" y="453" type="curve" smooth="yes"/>
      <point x="291" y="374" type="line"/>
      <point x="307" y="374" type="line" smooth="yes"/>
      <point x="333" y="374"/>
      <point x="355" y="393"/>
    </contour>
    <contour>
      <point x="98" y="361" type="curve" smooth="yes"/>
      <point x="98" y="235"/>
      <point x="200" y="133"/>
      <point x="326" y="133" type="curve" smooth="yes"/>
      <point x="452" y="133"/>
      <point x="554" y="235"/>
      <point x="554" y="361" type="curve" smooth="yes"/>
      <point x="554" y="487"/>
      <point x="452" y="589"/>
      <point x="326" y="589" type="curve" smooth="yes"/>
      <point x="200" y="589"/>
      <point x="98" y="487"/>
    </contour>
    <contour>
      <point x="53" y="362" type="curve" smooth="yes"/>
      <point x="53" y="513"/>
      <point x="175" y="635"/>
      <point x="326" y="635" type="curve" smooth="yes"/>
      <point x="477" y="635"/>
      <point x="600" y="513"/>
      <point x="600" y="362" type="curve" smooth="yes"/>
      <point x="600" y="211"/>
      <point x="477" y="89"/>
      <point x="326" y="89" type="curve" smooth="yes"/>
      <point x="175" y="89"/>
      <point x="53" y="211"/>
    </contour>
  </outline>
</glyph>
<glyph name="degree" format="1">
  <advance width="290"/>
  <unicode hex="00B0"/>
  <outline>
    <contour>
      <point x="81" y="537" type="curve" smooth="yes"/>
      <point x="81" y="501"/>
      <point x="109" y="471"/>
      <point x="145" y="471" type="curve" smooth="yes"/>
      <point x="181" y="471"/>
      <point x="210" y="501"/>
      <point x="210" y="537" type="curve" smooth="yes"/>
      <point x="210" y="573"/>
      <point x="181" y="602"/>
      <point x="145" y="602" type="curve" smooth="yes"/>
      <point x="109" y="602"/>
      <point x="81" y="573"/>
    </contour>
    <contour>
      <point x="34" y="537" type="curve" smooth="yes"/>
      <point x="34" y="598"/>
      <point x="84" y="647"/>
      <point x="145" y="647" type="curve" smooth="yes"/>
      <point x="206" y="647"/>
      <point x="256" y="598"/>
      <point x="256" y="537" type="curve" smooth="yes"/>
      <point x="256" y="476"/>
      <point x="206" y="425"/>
      <point x="145" y="425" type="curve" smooth="yes"/>
      <point x="84" y="425"/>
      <point x="34" y="476"/>
    </contour>
  </outline>
</glyph>
<glyph name="mu" format="1">
  <advance width="521"/>
  <unicode hex="00B5"/>
  <outline>
    <contour>
      <point x="241" y="220" type="curve"/>
      <point x="247" y="179"/>
      <point x="268" y="114"/>
      <point x="319" y="114" type="curve" smooth="yes"/>
      <point x="378" y="114"/>
      <point x="433" y="165"/>
      <point x="433" y="217" type="curve"/>
      <point x="430" y="241"/>
      <point x="426" y="306"/>
      <point x="426" y="329" type="curve" smooth="yes"/>
      <point x="426" y="342"/>
      <point x="425" y="384"/>
      <point x="424" y="422" type="curve"/>
      <point x="429" y="430"/>
      <point x="442" y="446"/>
      <point x="454" y="446" type="curve" smooth="yes"/>
      <point x="464" y="446"/>
      <point x="536" y="419"/>
      <point x="536" y="406" type="curve" smooth="yes"/>
      <point x="536" y="374"/>
      <point x="521" y="326"/>
      <point x="510" y="282" type="curve" smooth="yes"/>
      <point x="502" y="251"/>
      <point x="495" y="229"/>
      <point x="486" y="195" type="curve"/>
      <point x="485" y="113"/>
      <point x="520" y="104"/>
      <point x="538" y="104" type="curve" smooth="yes"/>
      <point x="576" y="104"/>
      <point x="597" y="140"/>
      <point x="607" y="157" type="curve"/>
      <point x="613" y="157"/>
      <point x="623" y="136"/>
      <point x="625" y="129" type="curve" smooth="yes"/>
      <point x="626" y="125"/>
      <point x="624" y="112"/>
      <point x="623" y="109" type="curve" smooth="yes"/>
      <point x="609" y="67"/>
      <point x="582" y="-4"/>
      <point x="542" y="-4" type="curve" smooth="yes"/>
      <point x="494" y="-3"/>
      <point x="465" y="58"/>
      <point x="456" y="122" type="curve"/>
      <point x="436" y="52"/>
      <point x="396" y="-8"/>
      <point x="340" y="-8" type="curve" smooth="yes"/>
      <point x="290" y="-8"/>
      <point x="240" y="76"/>
      <point x="232" y="137" type="curve"/>
      <point x="234" y="112"/>
      <point x="239" y="-85"/>
      <point x="261" y="-203" type="curve"/>
      <point x="256" y="-211"/>
      <point x="237" y="-227"/>
      <point x="219" y="-227" type="curve" smooth="yes"/>
      <point x="200" y="-227"/>
      <point x="158" y="-188"/>
      <point x="158" y="-175" type="curve" smooth="yes"/>
      <point x="158" y="-157"/>
      <point x="171" y="112"/>
      <point x="183" y="216" type="curve"/>
      <point x="183" y="240"/>
      <point x="167" y="357"/>
      <point x="167" y="380" type="curve" smooth="yes"/>
      <point x="167" y="393"/>
      <point x="168" y="416"/>
      <point x="170" y="424" type="curve"/>
      <point x="174" y="435"/>
      <point x="183" y="446"/>
      <point x="195" y="446" type="curve" smooth="yes"/>
      <point x="205" y="446"/>
      <point x="274" y="419"/>
      <point x="274" y="406" type="curve" smooth="yes"/>
      <point x="274" y="368"/>
      <point x="266" y="336"/>
      <point x="260" y="308" type="curve" smooth="yes"/>
      <point x="252" y="269"/>
      <point x="247" y="248"/>
    </contour>
    <component base="uni03BC"/>
  </outline>
</glyph>
<glyph name="paragraph" format="1">
  <advance width="529"/>
  <unicode hex="00B6"/>
  <outline>
    <contour>
      <point x="355" y="338" type="curve"/>
      <point x="355" y="374"/>
      <point x="355" y="585"/>
      <point x="355" y="598" type="curve"/>
      <point x="351" y="602"/>
      <point x="336" y="603"/>
      <point x="326" y="603" type="curve" smooth="yes"/>
      <point x="316" y="603"/>
      <point x="304" y="603"/>
      <point x="298" y="597" type="curve"/>
      <point x="298" y="597"/>
      <point x="298" y="435"/>
      <point x="298" y="333" type="curve"/>
      <point x="304" y="333"/>
      <point x="351" y="335"/>
    </contour>
    <contour>
      <point x="354" y="292" type="curve"/>
      <point x="340" y="291"/>
      <point x="314" y="289"/>
      <point x="298" y="288" type="curve"/>
      <point x="298" y="231"/>
      <point x="298" y="175"/>
      <point x="298" y="118" type="curve" smooth="yes"/>
      <point x="298" y="82"/>
      <point x="298" y="66"/>
      <point x="303" y="52" type="curve" smooth="yes"/>
      <point x="304" y="49"/>
      <point x="315" y="47"/>
      <point x="326" y="47" type="curve" smooth="yes"/>
      <point x="336" y="47"/>
      <point x="347" y="48"/>
      <point x="348" y="51" type="curve" smooth="yes"/>
      <point x="355" y="66"/>
      <point x="354" y="91"/>
      <point x="354" y="112" type="curve" smooth="yes"/>
      <point x="354" y="112"/>
      <point x="354" y="223"/>
    </contour>
    <contour>
      <point x="404" y="299" type="curve"/>
      <point x="404" y="228"/>
      <point x="404" y="179"/>
      <point x="404" y="117" type="curve" smooth="yes"/>
      <point x="404" y="81"/>
      <point x="404" y="74"/>
      <point x="409" y="60" type="curve" smooth="yes"/>
      <point x="416" y="41"/>
      <point x="474" y="34"/>
      <point x="482" y="34" type="curve"/>
      <point x="488" y="24"/>
      <point x="486" y="2"/>
      <point x="484" y="-4" type="curve"/>
      <point x="448" y="-2"/>
      <point x="389" y="3"/>
      <point x="328" y="3" type="curve" smooth="yes"/>
      <point x="267" y="3"/>
      <point x="213" y="-2"/>
      <point x="172" y="-4" type="curve"/>
      <point x="167" y="5"/>
      <point x="170" y="33"/>
      <point x="172" y="33" type="curve" smooth="yes"/>
      <point x="184" y="33"/>
      <point x="234" y="41"/>
      <point x="242" y="59" type="curve" smooth="yes"/>
      <point x="249" y="74"/>
      <point x="248" y="95"/>
      <point x="248" y="116" type="curve" smooth="yes"/>
      <point x="248" y="116"/>
      <point x="248" y="220"/>
      <point x="248" y="287" type="curve"/>
      <point x="120" y="287"/>
      <point x="33" y="349"/>
      <point x="33" y="469" type="curve" smooth="yes"/>
      <point x="33" y="608"/>
      <point x="145" y="652"/>
      <point x="227" y="652" type="curve" smooth="yes"/>
      <point x="286" y="652"/>
      <point x="276" y="648"/>
      <point x="335" y="648" type="curve" smooth="yes"/>
      <point x="402" y="648"/>
      <point x="455" y="653"/>
      <point x="455" y="653" type="curve"/>
      <point x="460" y="648"/>
      <point x="459" y="619"/>
      <point x="454" y="616" type="curve"/>
      <point x="439" y="616"/>
      <point x="413" y="608"/>
      <point x="408" y="596" type="curve" smooth="yes"/>
      <point x="406" y="589"/>
      <point x="405" y="583"/>
      <point x="405" y="532" type="curve" smooth="yes"/>
      <point x="405" y="471"/>
      <point x="405" y="363"/>
      <point x="405" y="344" type="curve"/>
      <point x="410" y="343"/>
      <point x="454" y="357"/>
      <point x="454" y="357" type="curve"/>
      <point x="459" y="357"/>
      <point x="458" y="351"/>
      <point x="458" y="347" type="curve" smooth="yes"/>
      <point x="457" y="337"/>
      <point x="442" y="312"/>
      <point x="435" y="309" type="curve" smooth="yes"/>
      <point x="424" y="304"/>
      <point x="412" y="300"/>
    </contour>
  </outline>
</glyph>
<glyph name="onequarter" format="1">
  <advance width="737"/>
  <unicode hex="00BC"/>
  <outline>
    <contour>
      <point x="644" y="386" type="curve" smooth="yes"/>
      <point x="648" y="386"/>
      <point x="664" y="377"/>
      <point x="664" y="367" type="curve" smooth="yes"/>
      <point x="664" y="138" type="line"/>
      <point x="689" y="138" type="line"/>
      <point x="702" y="126"/>
      <point x="705" y="110"/>
      <point x="699" y="92" type="curve"/>
      <point x="664" y="92" type="line"/>
      <point x="664" y="2" type="line"/>
      <point x="664" y="2"/>
      <point x="644" y="-3"/>
      <point x="617" y="-3" type="curve" smooth="yes"/>
      <point x="595" y="-3"/>
      <point x="577" y="0"/>
      <point x="577" y="5" type="curve" smooth="yes"/>
      <point x="577" y="92" type="line"/>
      <point x="424" y="92" type="line"/>
      <point x="419" y="94"/>
      <point x="412" y="101"/>
      <point x="412" y="109" type="curve"/>
      <point x="487" y="199"/>
      <point x="566" y="298"/>
      <point x="631" y="378" type="curve" smooth="yes"/>
      <point x="635" y="383"/>
      <point x="639" y="386"/>
    </contour>
    <contour>
      <point x="577" y="138" type="curve"/>
      <point x="577" y="262" type="line"/>
      <point x="554" y="235"/>
      <point x="487" y="152"/>
      <point x="475" y="138" type="curve"/>
      <point x="470" y="138"/>
      <point x="545" y="138"/>
    </contour>
    <contour>
      <point x="194" y="536" type="curve" smooth="yes"/>
      <point x="194" y="346" type="line" smooth="yes"/>
      <point x="194" y="328"/>
      <point x="197" y="298"/>
      <point x="204" y="291" type="curve" smooth="yes"/>
      <point x="212" y="282"/>
      <point x="246" y="278"/>
      <point x="251" y="278" type="curve"/>
      <point x="253" y="278"/>
      <point x="252" y="253"/>
      <point x="251" y="252" type="curve"/>
      <point x="227" y="253"/>
      <point x="175" y="256"/>
      <point x="151" y="256" type="curve" smooth="yes"/>
      <point x="127" y="256"/>
      <point x="73" y="253"/>
      <point x="49" y="252" type="curve"/>
      <point x="46" y="255"/>
      <point x="46" y="278"/>
      <point x="49" y="278" type="curve"/>
      <point x="57" y="278"/>
      <point x="90" y="284"/>
      <point x="97" y="292" type="curve" smooth="yes"/>
      <point x="102" y="298"/>
      <point x="107" y="336"/>
      <point x="107" y="347" type="curve" smooth="yes"/>
      <point x="107" y="511" type="line" smooth="yes"/>
      <point x="107" y="538"/>
      <point x="100" y="558"/>
      <point x="88" y="558" type="curve" smooth="yes"/>
      <point x="79" y="558"/>
      <point x="54" y="547"/>
      <point x="43" y="542" type="curve"/>
      <point x="38" y="543"/>
      <point x="32" y="568"/>
      <point x="33" y="569" type="curve"/>
      <point x="104" y="599"/>
      <point x="188" y="641"/>
      <point x="190" y="641" type="curve"/>
      <point x="190" y="641"/>
      <point x="205" y="624"/>
      <point x="206" y="621" type="curve"/>
      <point x="203" y="610"/>
      <point x="194" y="575"/>
    </contour>
    <contour>
      <point x="219" y="-34" type="curve" smooth="yes"/>
      <point x="204" y="-37"/>
      <point x="202" y="-25"/>
      <point x="202" y="-25" type="curve"/>
      <point x="547" y="663" type="line"/>
      <point x="553" y="672"/>
      <point x="566" y="680"/>
      <point x="583" y="684" type="curve" smooth="yes"/>
      <point x="592" y="686"/>
      <point x="600" y="682"/>
      <point x="601" y="677" type="curve"/>
      <point x="256" y="-11" type="line" smooth="yes"/>
      <point x="253" y="-18"/>
      <point x="236" y="-30"/>
    </contour>
  </outline>
</glyph>
<glyph name="onehalf" format="1">
  <advance width="748"/>
  <unicode hex="00BD"/>
  <outline>
    <contour>
      <point x="587" y="386" type="curve" smooth="yes"/>
      <point x="657" y="386"/>
      <point x="703" y="351"/>
      <point x="703" y="282" type="curve" smooth="yes"/>
      <point x="703" y="228"/>
      <point x="660" y="182"/>
      <point x="622" y="147" type="curve" smooth="yes"/>
      <point x="592" y="120"/>
      <point x="564" y="96"/>
      <point x="527" y="69" type="curve"/>
      <point x="639" y="69" type="line" smooth="yes"/>
      <point x="669" y="69"/>
      <point x="679" y="102"/>
      <point x="689" y="124" type="curve" smooth="yes"/>
      <point x="690" y="127"/>
      <point x="696" y="129"/>
      <point x="700" y="129" type="curve" smooth="yes"/>
      <point x="704" y="129"/>
      <point x="711" y="128"/>
      <point x="714" y="126" type="curve"/>
      <point x="707" y="97"/>
      <point x="680" y="9"/>
      <point x="676" y="-2" type="curve"/>
      <point x="449" y="-2" type="line"/>
      <point x="446" y="1"/>
      <point x="443" y="9"/>
      <point x="442" y="12" type="curve"/>
      <point x="490" y="65"/>
      <point x="513" y="91"/>
      <point x="561" y="153" type="curve" smooth="yes"/>
      <point x="596" y="198"/>
      <point x="608" y="231"/>
      <point x="608" y="269" type="curve" smooth="yes"/>
      <point x="608" y="309"/>
      <point x="578" y="333"/>
      <point x="544" y="333" type="curve" smooth="yes"/>
      <point x="500" y="333"/>
      <point x="478" y="289"/>
      <point x="473" y="284" type="curve"/>
      <point x="470" y="284"/>
      <point x="457" y="286"/>
      <point x="457" y="298" type="curve"/>
      <point x="468" y="321"/>
      <point x="517" y="386"/>
    </contour>
    <contour>
      <point x="195" y="536" type="curve" smooth="yes"/>
      <point x="195" y="346" type="line" smooth="yes"/>
      <point x="195" y="328"/>
      <point x="198" y="298"/>
      <point x="205" y="291" type="curve" smooth="yes"/>
      <point x="213" y="282"/>
      <point x="247" y="278"/>
      <point x="252" y="278" type="curve"/>
      <point x="254" y="278"/>
      <point x="253" y="253"/>
      <point x="252" y="252" type="curve"/>
      <point x="228" y="253"/>
      <point x="176" y="256"/>
      <point x="152" y="256" type="curve" smooth="yes"/>
      <point x="128" y="256"/>
      <point x="74" y="253"/>
      <point x="50" y="252" type="curve"/>
      <point x="47" y="255"/>
      <point x="47" y="278"/>
      <point x="50" y="278" type="curve"/>
      <point x="58" y="278"/>
      <point x="91" y="284"/>
      <point x="98" y="292" type="curve" smooth="yes"/>
      <point x="103" y="298"/>
      <point x="108" y="336"/>
      <point x="108" y="347" type="curve" smooth="yes"/>
      <point x="108" y="511" type="line" smooth="yes"/>
      <point x="108" y="538"/>
      <point x="101" y="558"/>
      <point x="89" y="558" type="curve" smooth="yes"/>
      <point x="80" y="558"/>
      <point x="55" y="547"/>
      <point x="44" y="542" type="curve"/>
      <point x="39" y="543"/>
      <point x="32" y="562"/>
      <point x="34" y="569" type="curve"/>
      <point x="105" y="599"/>
      <point x="189" y="641"/>
      <point x="191" y="641" type="curve"/>
      <point x="197" y="635"/>
      <point x="206" y="624"/>
      <point x="207" y="621" type="curve"/>
      <point x="204" y="610"/>
      <point x="195" y="575"/>
    </contour>
    <contour>
      <point x="580" y="677" type="curve"/>
      <point x="235" y="-11" type="line" smooth="yes"/>
      <point x="232" y="-18"/>
      <point x="215" y="-30"/>
      <point x="198" y="-34" type="curve" smooth="yes"/>
      <point x="183" y="-37"/>
      <point x="181" y="-25"/>
      <point x="181" y="-25" type="curve"/>
      <point x="526" y="663" type="line"/>
      <point x="532" y="672"/>
      <point x="545" y="680"/>
      <point x="562" y="684" type="curve" smooth="yes"/>
      <point x="571" y="686"/>
      <point x="579" y="682"/>
    </contour>
  </outline>
</glyph>
<glyph name="AE" format="1">
  <advance width="901"/>
  <unicode hex="00C6"/>
  <outline>
    <contour>
      <point x="409" y="275" type="curve"/>
      <point x="409" y="520" type="line"/>
      <point x="258" y="280" type="line"/>
      <point x="258" y="280"/>
      <point x="257" y="276"/>
      <point x="259" y="276" type="curve" smooth="yes"/>
      <point x="279" y="274"/>
      <point x="312" y="273"/>
      <point x="335" y="273" type="curve" smooth="yes"/>
      <point x="364" y="273"/>
      <point x="382" y="273"/>
    </contour>
    <contour>
      <point x="480" y="657" type="curve" smooth="yes"/>
      <point x="522" y="657"/>
      <point x="746" y="663"/>
      <point x="805" y="664" type="curve"/>
      <point x="812" y="614"/>
      <point x="825" y="561"/>
      <point x="834" y="516" type="curve"/>
      <point x="831" y="513"/>
      <point x="818" y="511"/>
      <point x="811" y="511" type="curve" smooth="yes"/>
      <point x="804" y="511"/>
      <point x="797" y="514"/>
      <point x="795" y="519" type="curve" smooth="yes"/>
      <point x="774" y="574"/>
      <point x="748" y="620"/>
      <point x="687" y="620" type="curve" smooth="yes"/>
      <point x="604" y="620" type="line" smooth="yes"/>
      <point x="581" y="620"/>
      <point x="559" y="619"/>
      <point x="554" y="608" type="curve" smooth="yes"/>
      <point x="549" y="596"/>
      <point x="549" y="576"/>
      <point x="549" y="547" type="curve" smooth="yes"/>
      <point x="549" y="368" type="line" smooth="yes"/>
      <point x="549" y="362"/>
      <point x="570" y="357"/>
      <point x="592" y="357" type="curve" smooth="yes"/>
      <point x="645" y="357" type="line" smooth="yes"/>
      <point x="704" y="357"/>
      <point x="717" y="369"/>
      <point x="733" y="427" type="curve" smooth="yes"/>
      <point x="734" y="432"/>
      <point x="738" y="435"/>
      <point x="745" y="435" type="curve" smooth="yes"/>
      <point x="752" y="435"/>
      <point x="761" y="433"/>
      <point x="764" y="430" type="curve"/>
      <point x="764" y="238" type="line"/>
      <point x="762" y="236"/>
      <point x="753" y="234"/>
      <point x="746" y="234" type="curve" smooth="yes"/>
      <point x="739" y="234"/>
      <point x="733" y="237"/>
      <point x="732" y="242" type="curve" smooth="yes"/>
      <point x="720" y="290"/>
      <point x="706" y="299"/>
      <point x="697" y="303" type="curve" smooth="yes"/>
      <point x="685" y="308"/>
      <point x="659" y="310"/>
      <point x="621" y="310" type="curve" smooth="yes"/>
      <point x="593" y="310"/>
      <point x="549" y="308"/>
      <point x="549" y="296" type="curve" smooth="yes"/>
      <point x="549" y="141" type="line" smooth="yes"/>
      <point x="549" y="135"/>
      <point x="549" y="82"/>
      <point x="557" y="62" type="curve" smooth="yes"/>
      <point x="563" y="48"/>
      <point x="596" y="42"/>
      <point x="622" y="42" type="curve" smooth="yes"/>
      <point x="688" y="42" type="line" smooth="yes"/>
      <point x="726" y="42"/>
      <point x="758" y="52"/>
      <point x="781" y="75" type="curve" smooth="yes"/>
      <point x="802" y="96"/>
      <point x="818" y="125"/>
      <point x="835" y="170" type="curve" smooth="yes"/>
      <point x="836" y="174"/>
      <point x="842" y="176"/>
      <point x="849" y="176" type="curve" smooth="yes"/>
      <point x="859" y="176"/>
      <point x="876" y="173"/>
      <point x="879" y="170" type="curve"/>
      <point x="860" y="116"/>
      <point x="832" y="42"/>
      <point x="825" y="-2" type="curve"/>
      <point x="798" y="-2"/>
      <point x="619" y="-2"/>
      <point x="485" y="-2" type="curve" smooth="yes"/>
      <point x="411" y="-2"/>
      <point x="351" y="-3"/>
      <point x="337" y="-3" type="curve"/>
      <point x="333" y="3"/>
      <point x="332" y="27"/>
      <point x="337" y="34" type="curve"/>
      <point x="350" y="35"/>
      <point x="396" y="38"/>
      <point x="401" y="51" type="curve" smooth="yes"/>
      <point x="409" y="71"/>
      <point x="409" y="102"/>
      <point x="409" y="145" type="curve" smooth="yes"/>
      <point x="409" y="225" type="line"/>
      <point x="378" y="226"/>
      <point x="351" y="225"/>
      <point x="330" y="225" type="curve" smooth="yes"/>
      <point x="289" y="225"/>
      <point x="267" y="225"/>
      <point x="232" y="224" type="curve" smooth="yes"/>
      <point x="229" y="224"/>
      <point x="225" y="221"/>
      <point x="224" y="219" type="curve" smooth="yes"/>
      <point x="224" y="219"/>
      <point x="185" y="160"/>
      <point x="169" y="132" type="curve" smooth="yes"/>
      <point x="154" y="107"/>
      <point x="136" y="73"/>
      <point x="135" y="66" type="curve" smooth="yes"/>
      <point x="130" y="40"/>
      <point x="191" y="33"/>
      <point x="199" y="33" type="curve"/>
      <point x="204" y="26"/>
      <point x="204" y="0"/>
      <point x="200" y="-4" type="curve"/>
      <point x="166" y="0"/>
      <point x="133" y="4"/>
      <point x="89" y="4" type="curve" smooth="yes"/>
      <point x="43" y="4"/>
      <point x="16" y="0"/>
      <point x="-20" y="-4" type="curve"/>
      <point x="-23" y="0"/>
      <point x="-25" y="21"/>
      <point x="-19" y="32" type="curve"/>
      <point x="-7" y="32"/>
      <point x="46" y="48"/>
      <point x="59" y="64" type="curve" smooth="yes"/>
      <point x="82" y="92"/>
      <point x="91" y="106"/>
      <point x="108" y="134" type="curve" smooth="yes"/>
      <point x="402" y="604" type="line" smooth="yes"/>
      <point x="402" y="605"/>
      <point x="402" y="606"/>
      <point x="401" y="607" type="curve" smooth="yes"/>
      <point x="394" y="621"/>
      <point x="350" y="622"/>
      <point x="337" y="623" type="curve"/>
      <point x="332" y="630"/>
      <point x="333" y="654"/>
      <point x="337" y="660" type="curve"/>
      <point x="382" y="657"/>
      <point x="438" y="657"/>
    </contour>
  </outline>
</glyph>
<glyph name="Eth" format="1">
  <advance width="765"/>
  <unicode hex="00D0"/>
  <outline>
    <contour>
      <point x="383" y="308" type="curve"/>
      <point x="354" y="308"/>
      <point x="47" y="308"/>
      <point x="33" y="308" type="curve"/>
      <point x="29" y="308"/>
      <point x="28" y="339"/>
      <point x="34" y="348" type="curve"/>
      <point x="63" y="348"/>
      <point x="369" y="348"/>
      <point x="383" y="348" type="curve"/>
      <point x="387" y="348"/>
      <point x="387" y="317"/>
    </contour>
    <component base="D" xOffset="4"/>
  </outline>
</glyph>
<glyph name="Thorn" format="1">
  <advance width="583"/>
  <unicode hex="00DE"/>
  <outline>
    <contour>
      <point x="181" y="655" type="curve" smooth="yes"/>
      <point x="223" y="655"/>
      <point x="283" y="658"/>
      <point x="322" y="662" type="curve"/>
      <point x="326" y="656"/>
      <point x="327" y="632"/>
      <point x="322" y="625" type="curve"/>
      <point x="309" y="624"/>
      <point x="263" y="620"/>
      <point x="258" y="607" type="curve" smooth="yes"/>
      <point x="252" y="592"/>
      <point x="250" y="569"/>
      <point x="250" y="539" type="curve" smooth="yes"/>
      <point x="250" y="532"/>
      <point x="250" y="525"/>
      <point x="250" y="517" type="curve"/>
      <point x="276" y="518"/>
      <point x="305" y="519"/>
      <point x="335" y="519" type="curve" smooth="yes"/>
      <point x="460" y="519"/>
      <point x="561" y="455"/>
      <point x="561" y="341" type="curve" smooth="yes"/>
      <point x="561" y="221"/>
      <point x="465" y="146"/>
      <point x="364" y="146" type="curve" smooth="yes"/>
      <point x="328" y="146"/>
      <point x="302" y="162"/>
      <point x="295" y="169" type="curve" smooth="yes"/>
      <point x="291" y="173"/>
      <point x="288" y="186"/>
      <point x="288" y="194" type="curve" smooth="yes"/>
      <point x="288" y="198"/>
      <point x="289" y="201"/>
      <point x="291" y="201" type="curve"/>
      <point x="301" y="198"/>
      <point x="317" y="197"/>
      <point x="332" y="197" type="curve" smooth="yes"/>
      <point x="381" y="197"/>
      <point x="419" y="250"/>
      <point x="419" y="327" type="curve" smooth="yes"/>
      <point x="419" y="406"/>
      <point x="372" y="479"/>
      <point x="305" y="479" type="curve" smooth="yes"/>
      <point x="282" y="479"/>
      <point x="260" y="478"/>
      <point x="255" y="467" type="curve" smooth="yes"/>
      <point x="250" y="455"/>
      <point x="250" y="406"/>
      <point x="250" y="406" type="curve"/>
      <point x="250" y="145" type="line" smooth="yes"/>
      <point x="250" y="102"/>
      <point x="250" y="71"/>
      <point x="258" y="51" type="curve" smooth="yes"/>
      <point x="263" y="38"/>
      <point x="309" y="34"/>
      <point x="322" y="33" type="curve"/>
      <point x="327" y="26"/>
      <point x="326" y="2"/>
      <point x="322" y="-4" type="curve"/>
      <point x="283" y="0"/>
      <point x="221" y="3"/>
      <point x="179" y="3" type="curve" smooth="yes"/>
      <point x="137" y="3"/>
      <point x="77" y="0"/>
      <point x="38" y="-4" type="curve"/>
      <point x="34" y="2"/>
      <point x="33" y="26"/>
      <point x="38" y="33" type="curve"/>
      <point x="51" y="34"/>
      <point x="97" y="38"/>
      <point x="102" y="51" type="curve" smooth="yes"/>
      <point x="110" y="71"/>
      <point x="110" y="102"/>
      <point x="110" y="145" type="curve" smooth="yes"/>
      <point x="110" y="513" type="line" smooth="yes"/>
      <point x="110" y="556"/>
      <point x="110" y="587"/>
      <point x="102" y="607" type="curve" smooth="yes"/>
      <point x="97" y="620"/>
      <point x="51" y="624"/>
      <point x="38" y="625" type="curve"/>
      <point x="33" y="632"/>
      <point x="34" y="656"/>
      <point x="38" y="662" type="curve"/>
      <point x="77" y="658"/>
      <point x="139" y="655"/>
    </contour>
  </outline>
</glyph>
<glyph name="ae" format="1">
  <advance width="696"/>
  <unicode hex="00E6"/>
  <outline>
    <contour>
      <point x="202" y="191" type="curve" smooth="yes"/>
      <point x="174" y="173"/>
      <point x="165" y="146"/>
      <point x="166" y="124" type="curve" smooth="yes"/>
      <point x="167" y="81"/>
      <point x="201" y="62"/>
      <point x="227" y="62" type="curve" smooth="yes"/>
      <point x="252" y="62"/>
      <point x="296" y="85"/>
      <point x="296" y="102" type="curve"/>
      <point x="289" y="124"/>
      <point x="281" y="161"/>
      <point x="281" y="194" type="curve" smooth="yes"/>
      <point x="281" y="206"/>
      <point x="281" y="208"/>
      <point x="282" y="223" type="curve"/>
      <point x="263" y="216"/>
      <point x="222" y="204"/>
    </contour>
    <contour>
      <point x="480" y="406" type="curve" smooth="yes"/>
      <point x="421" y="406"/>
      <point x="399" y="316"/>
      <point x="399" y="282" type="curve"/>
      <point x="408" y="281"/>
      <point x="504" y="287"/>
      <point x="528" y="290" type="curve" smooth="yes"/>
      <point x="540" y="291"/>
      <point x="541" y="300"/>
      <point x="541" y="306" type="curve" smooth="yes"/>
      <point x="541" y="352"/>
      <point x="525" y="406"/>
    </contour>
    <contour>
      <point x="490" y="447" type="curve" smooth="yes"/>
      <point x="621" y="447"/>
      <point x="665" y="354"/>
      <point x="665" y="296" type="curve" smooth="yes"/>
      <point x="665" y="274"/>
      <point x="653" y="255"/>
      <point x="638" y="254" type="curve" smooth="yes"/>
      <point x="570" y="248"/>
      <point x="472" y="244"/>
      <point x="398" y="242" type="curve"/>
      <point x="398" y="102"/>
      <point x="493" y="75"/>
      <point x="538" y="75" type="curve" smooth="yes"/>
      <point x="596" y="75"/>
      <point x="629" y="102"/>
      <point x="650" y="125" type="curve"/>
      <point x="657" y="123"/>
      <point x="662" y="113"/>
      <point x="662" y="107" type="curve" smooth="yes"/>
      <point x="662" y="100"/>
      <point x="661" y="91"/>
      <point x="659" y="88" type="curve" smooth="yes"/>
      <point x="641" y="60"/>
      <point x="573" y="-9"/>
      <point x="478" y="-9" type="curve" smooth="yes"/>
      <point x="411" y="-9"/>
      <point x="353" y="16"/>
      <point x="318" y="64" type="curve"/>
      <point x="267" y="23"/>
      <point x="196" y="-8"/>
      <point x="162" y="-8" type="curve" smooth="yes"/>
      <point x="86" y="-8"/>
      <point x="31" y="55"/>
      <point x="31" y="114" type="curve" smooth="yes"/>
      <point x="31" y="153"/>
      <point x="57" y="186"/>
      <point x="83" y="194" type="curve" smooth="yes"/>
      <point x="121" y="206"/>
      <point x="234" y="245"/>
      <point x="285" y="263" type="curve"/>
      <point x="289" y="266"/>
      <point x="293" y="278"/>
      <point x="293" y="285" type="curve" smooth="yes"/>
      <point x="293" y="298"/>
      <point x="293" y="307"/>
      <point x="291" y="318" type="curve" smooth="yes"/>
      <point x="281" y="375"/>
      <point x="244" y="411"/>
      <point x="209" y="411" type="curve" smooth="yes"/>
      <point x="171" y="411"/>
      <point x="161" y="372"/>
      <point x="151" y="327" type="curve" smooth="yes"/>
      <point x="146" y="304"/>
      <point x="130" y="283"/>
      <point x="95" y="283" type="curve" smooth="yes"/>
      <point x="68" y="283"/>
      <point x="43" y="303"/>
      <point x="43" y="331" type="curve" smooth="yes"/>
      <point x="43" y="344"/>
      <point x="49" y="358"/>
      <point x="57" y="372" type="curve"/>
      <point x="70" y="385"/>
      <point x="160" y="449"/>
      <point x="248" y="449" type="curve" smooth="yes"/>
      <point x="295" y="449"/>
      <point x="337" y="429"/>
      <point x="365" y="394" type="curve"/>
      <point x="400" y="426"/>
      <point x="444" y="447"/>
    </contour>
  </outline>
</glyph>
<glyph name="eth" format="1">
  <advance width="540"/>
  <unicode hex="00F0"/>
  <outline>
    <contour>
      <point x="367" y="708" type="line"/>
      <point x="372" y="702"/>
      <point x="393" y="679"/>
      <point x="388" y="674" type="curve"/>
      <point x="135" y="502" type="line"/>
      <point x="129" y="509"/>
      <point x="110" y="532"/>
      <point x="115" y="537" type="curve"/>
    </contour>
    <contour>
      <point x="264" y="406" type="curve" smooth="yes"/>
      <point x="193" y="406"/>
      <point x="171" y="303"/>
      <point x="171" y="212" type="curve" smooth="yes"/>
      <point x="171" y="96"/>
      <point x="226" y="36"/>
      <point x="265" y="36" type="curve" smooth="yes"/>
      <point x="332" y="36"/>
      <point x="350" y="135"/>
      <point x="350" y="225" type="curve" smooth="yes"/>
      <point x="350" y="276"/>
      <point x="342" y="333"/>
      <point x="321" y="375" type="curve"/>
      <point x="309" y="392"/>
      <point x="292" y="406"/>
    </contour>
    <contour>
      <point x="246" y="448" type="curve" smooth="yes"/>
      <point x="271" y="448"/>
      <point x="290" y="445"/>
      <point x="311" y="440" type="curve"/>
      <point x="285" y="516"/>
      <point x="223" y="607"/>
      <point x="97" y="663" type="curve"/>
      <point x="95" y="674"/>
      <point x="96" y="685"/>
      <point x="104" y="691" type="curve"/>
      <point x="172" y="681"/>
      <point x="299" y="627"/>
      <point x="385" y="530" type="curve" smooth="yes"/>
      <point x="444" y="464"/>
      <point x="489" y="378"/>
      <point x="489" y="259" type="curve" smooth="yes"/>
      <point x="489" y="107"/>
      <point x="395" y="-6"/>
      <point x="263" y="-6" type="curve" smooth="yes"/>
      <point x="157" y="-6"/>
      <point x="33" y="59"/>
      <point x="33" y="218" type="curve" smooth="yes"/>
      <point x="33" y="373"/>
      <point x="149" y="448"/>
    </contour>
  </outline>
</glyph>
<glyph name="divide" format="1">
  <advance width="592"/>
  <unicode hex="00F7"/>
  <outline>
    <contour>
      <point x="233" y="432" type="curve" smooth="yes"/>
      <point x="233" y="466"/>
      <point x="261" y="494"/>
      <point x="295" y="494" type="curve" smooth="yes"/>
      <point x="329" y="494"/>
      <point x="357" y="466"/>
      <point x="357" y="432" type="curve" smooth="yes"/>
      <point x="357" y="398"/>
      <point x="329" y="370"/>
      <point x="295" y="370" type="curve" smooth="yes"/>
      <point x="261" y="370"/>
      <point x="233" y="398"/>
    </contour>
    <contour>
      <point x="233" y="64" type="curve" smooth="yes"/>
      <point x="233" y="98"/>
      <point x="261" y="126"/>
      <point x="295" y="126" type="curve" smooth="yes"/>
      <point x="329" y="126"/>
      <point x="357" y="98"/>
      <point x="357" y="64" type="curve" smooth="yes"/>
      <point x="357" y="30"/>
      <point x="329" y="2"/>
      <point x="295" y="2" type="curve" smooth="yes"/>
      <point x="261" y="2"/>
      <point x="233" y="30"/>
    </contour>
    <contour>
      <point x="63" y="223" type="line"/>
      <point x="58" y="223"/>
      <point x="57" y="229"/>
      <point x="57" y="239" type="curve" smooth="yes"/>
      <point x="57" y="243"/>
      <point x="59" y="269"/>
      <point x="68" y="281" type="curve"/>
      <point x="528" y="281" type="line" smooth="yes"/>
      <point x="534" y="281"/>
      <point x="537" y="273"/>
      <point x="537" y="267" type="curve" smooth="yes"/>
      <point x="537" y="246"/>
      <point x="531" y="233"/>
      <point x="523" y="223" type="curve"/>
    </contour>
  </outline>
</glyph>
<glyph name="oslash" format="1">
  <advance width="532"/>
  <unicode hex="00F8"/>
  <outline>
    <contour>
      <point x="373" y="455" type="line"/>
      <point x="381" y="452"/>
      <point x="407" y="443"/>
      <point x="405" y="436" type="curve"/>
      <point x="152" y="-16" type="line"/>
      <point x="144" y="-13"/>
      <point x="118" y="-3"/>
      <point x="120" y="4" type="curve"/>
    </contour>
    <component base="o"/>
  </outline>
</glyph>
<glyph name="thorn" format="1">
  <advance width="535"/>
  <unicode hex="00FE"/>
  <outline>
    <contour>
      <point x="307" y="448" type="curve" smooth="yes"/>
      <point x="428" y="448"/>
      <point x="503" y="345"/>
      <point x="503" y="234" type="curve" smooth="yes"/>
      <point x="503" y="81"/>
      <point x="368" y="-8"/>
      <point x="258" y="-8" type="curve" smooth="yes"/>
      <point x="230" y="-8"/>
      <point x="204" y="1"/>
      <point x="200" y="1" type="curve"/>
      <point x="197" y="1"/>
      <point x="197" y="-3"/>
      <point x="197" y="-15" type="curve" smooth="yes"/>
      <point x="197" y="-69" type="line" smooth="yes"/>
      <point x="197" y="-112"/>
      <point x="197" y="-143"/>
      <point x="205" y="-163" type="curve" smooth="yes"/>
      <point x="210" y="-176"/>
      <point x="256" y="-180"/>
      <point x="269" y="-181" type="curve"/>
      <point x="274" y="-188"/>
      <point x="273" y="-212"/>
      <point x="269" y="-218" type="curve"/>
      <point x="230" y="-214"/>
      <point x="174" y="-211"/>
      <point x="132" y="-211" type="curve" smooth="yes"/>
      <point x="90" y="-211"/>
      <point x="34" y="-214"/>
      <point x="-5" y="-218" type="curve"/>
      <point x="-9" y="-212"/>
      <point x="-10" y="-188"/>
      <point x="-5" y="-181" type="curve"/>
      <point x="8" y="-180"/>
      <point x="54" y="-176"/>
      <point x="59" y="-163" type="curve" smooth="yes"/>
      <point x="67" y="-143"/>
      <point x="67" y="-112"/>
      <point x="67" y="-69" type="curve" smooth="yes"/>
      <point x="67" y="558" type="line" smooth="yes"/>
      <point x="67" y="575"/>
      <point x="67" y="589"/>
      <point x="60" y="606" type="curve" smooth="yes"/>
      <point x="55" y="618"/>
      <point x="12" y="624"/>
      <point x="0" y="624" type="curve"/>
      <point x="-4" y="624"/>
      <point x="-5" y="652"/>
      <point x="0" y="656" type="curve"/>
      <point x="112" y="666"/>
      <point x="190" y="695"/>
      <point x="193" y="695" type="curve"/>
      <point x="199" y="694"/>
      <point x="207" y="683"/>
      <point x="208" y="678" type="curve"/>
      <point x="208" y="678"/>
      <point x="197" y="616"/>
      <point x="197" y="576" type="curve" smooth="yes"/>
      <point x="197" y="408"/>
      <point x="197" y="410"/>
      <point x="197" y="394" type="curve" smooth="yes"/>
      <point x="197" y="392"/>
      <point x="198" y="391"/>
      <point x="198" y="390" type="curve" smooth="yes"/>
      <point x="199" y="387"/>
      <point x="200" y="387"/>
      <point x="201" y="388" type="curve" smooth="yes"/>
      <point x="231" y="420"/>
      <point x="276" y="448"/>
    </contour>
    <contour>
      <point x="252" y="375" type="curve" smooth="yes"/>
      <point x="215" y="375"/>
      <point x="197" y="352"/>
      <point x="197" y="347" type="curve" smooth="yes"/>
      <point x="197" y="96" type="line" smooth="yes"/>
      <point x="197" y="56"/>
      <point x="230" y="36"/>
      <point x="265" y="36" type="curve" smooth="yes"/>
      <point x="298" y="36"/>
      <point x="359" y="83"/>
      <point x="359" y="199" type="curve" smooth="yes"/>
      <point x="359" y="302"/>
      <point x="333" y="375"/>
    </contour>
  </outline>
</glyph>
<glyph name="Aogonek" format="1">
  <advance width="671"/>
  <unicode hex="0104"/>
  <outline>
    <contour>
      <point x="299" y="225" type="curve" smooth="yes"/>
      <point x="258" y="225"/>
      <point x="230" y="225"/>
      <point x="195" y="224" type="curve" smooth="yes"/>
      <point x="192" y="224"/>
      <point x="189" y="221"/>
      <point x="188" y="219" type="curve" smooth="yes"/>
      <point x="188" y="219"/>
      <point x="163" y="163"/>
      <point x="152" y="135" type="curve" smooth="yes"/>
      <point x="142" y="110"/>
      <point x="130" y="76"/>
      <point x="130" y="69" type="curve" smooth="yes"/>
      <point x="130" y="43"/>
      <point x="199" y="33"/>
      <point x="207" y="33" type="curve"/>
      <point x="213" y="26"/>
      <point x="211" y="0"/>
      <point x="208" y="-4" type="curve"/>
      <point x="173" y="0"/>
      <point x="144" y="4"/>
      <point x="100" y="4" type="curve" smooth="yes"/>
      <point x="54" y="4"/>
      <point x="26" y="0"/>
      <point x="-9" y="-4" type="curve"/>
      <point x="-13" y="0"/>
      <point x="-15" y="21"/>
      <point x="-11" y="32" type="curve"/>
      <point x="1" y="32"/>
      <point x="49" y="48"/>
      <point x="59" y="64" type="curve" smooth="yes"/>
      <point x="76" y="92"/>
      <point x="82" y="106"/>
      <point x="94" y="134" type="curve" smooth="yes"/>
      <point x="307" y="624" type="line" smooth="yes"/>
      <point x="313" y="637"/>
      <point x="333" y="662"/>
      <point x="344" y="662" type="curve" smooth="yes"/>
      <point x="353" y="662"/>
      <point x="359" y="658"/>
      <point x="361" y="655" type="curve" smooth="yes"/>
      <point x="566" y="148" type="line" smooth="yes"/>
      <point x="579" y="117"/>
      <point x="585" y="97"/>
      <point x="594" y="76" type="curve" smooth="yes"/>
      <point x="611" y="35"/>
      <point x="665" y="33"/>
      <point x="673" y="33" type="curve"/>
      <point x="678" y="24"/>
      <point x="679" y="0"/>
      <point x="675" y="-4" type="curve"/>
      <point x="649" y="-3"/>
      <point x="622" y="0"/>
      <point x="593" y="2" type="curve"/>
      <point x="549" y="-24"/>
      <point x="491" y="-57"/>
      <point x="491" y="-101" type="curve" smooth="yes"/>
      <point x="491" y="-122"/>
      <point x="503" y="-148"/>
      <point x="540" y="-148" type="curve" smooth="yes"/>
      <point x="568" y="-148"/>
      <point x="605" y="-117"/>
      <point x="615" y="-109" type="curve"/>
      <point x="618" y="-109"/>
      <point x="621" y="-112"/>
      <point x="621" y="-120" type="curve" smooth="yes"/>
      <point x="621" y="-125"/>
      <point x="617" y="-141"/>
      <point x="614" y="-145" type="curve" smooth="yes"/>
      <point x="599" y="-164"/>
      <point x="547" y="-218"/>
      <point x="491" y="-218" type="curve" smooth="yes"/>
      <point x="458" y="-218"/>
      <point x="417" y="-192"/>
      <point x="417" y="-140" type="curve" smooth="yes"/>
      <point x="417" y="-84"/>
      <point x="490" y="-14"/>
      <point x="550" y="4" type="curve"/>
      <point x="548" y="4"/>
      <point x="547" y="4"/>
      <point x="545" y="4" type="curve" smooth="yes"/>
      <point x="499" y="4"/>
      <point x="430" y="-2"/>
      <point x="394" y="-4" type="curve"/>
      <point x="389" y="1"/>
      <point x="389" y="33"/>
      <point x="394" y="33" type="curve" smooth="yes"/>
      <point x="411" y="33"/>
      <point x="439" y="39"/>
      <point x="453" y="51" type="curve" smooth="yes"/>
      <point x="459" y="56"/>
      <point x="462" y="61"/>
      <point x="462" y="68" type="curve" smooth="yes"/>
      <point x="462" y="77"/>
      <point x="402" y="220"/>
      <point x="402" y="220" type="curve"/>
      <point x="402" y="220"/>
      <point x="398" y="224"/>
      <point x="395" y="224" type="curve" smooth="yes"/>
      <point x="357" y="226"/>
      <point x="324" y="225"/>
    </contour>
    <contour>
      <point x="295" y="273" type="curve" smooth="yes"/>
      <point x="326" y="273"/>
      <point x="344" y="273"/>
      <point x="375" y="275" type="curve" smooth="yes"/>
      <point x="377" y="275"/>
      <point x="378" y="280"/>
      <point x="378" y="280" type="curve"/>
      <point x="295" y="476" type="line"/>
      <point x="210" y="280" type="line"/>
      <point x="210" y="280"/>
      <point x="210" y="276"/>
      <point x="212" y="276" type="curve" smooth="yes"/>
      <point x="232" y="274"/>
      <point x="272" y="273"/>
    </contour>
  </outline>
</glyph>
<glyph name="eogonek" format="1">
  <advance width="460"/>
  <unicode hex="0119"/>
  <outline>
    <contour>
      <point x="373" y="37" type="curve" smooth="yes"/>
      <point x="301" y="-19"/>
      <point x="284" y="-57"/>
      <point x="284" y="-101" type="curve" smooth="yes"/>
      <point x="284" y="-122"/>
      <point x="296" y="-148"/>
      <point x="333" y="-148" type="curve" smooth="yes"/>
      <point x="361" y="-148"/>
      <point x="398" y="-117"/>
      <point x="408" y="-109" type="curve"/>
      <point x="411" y="-109"/>
      <point x="414" y="-112"/>
      <point x="414" y="-120" type="curve" smooth="yes"/>
      <point x="414" y="-125"/>
      <point x="410" y="-141"/>
      <point x="407" y="-145" type="curve" smooth="yes"/>
      <point x="392" y="-164"/>
      <point x="340" y="-218"/>
      <point x="284" y="-218" type="curve" smooth="yes"/>
      <point x="251" y="-218"/>
      <point x="210" y="-192"/>
      <point x="210" y="-140" type="curve" smooth="yes"/>
      <point x="210" y="-84"/>
      <point x="247" y="-32"/>
      <point x="277" y="-6" type="curve"/>
      <point x="266" y="-8"/>
      <point x="254" y="-9"/>
      <point x="242" y="-9" type="curve" smooth="yes"/>
      <point x="130" y="-9"/>
      <point x="32" y="69"/>
      <point x="32" y="200" type="curve" smooth="yes"/>
      <point x="32" y="326"/>
      <point x="139" y="447"/>
      <point x="254" y="447" type="curve" smooth="yes"/>
      <point x="385" y="447"/>
      <point x="429" y="354"/>
      <point x="429" y="296" type="curve" smooth="yes"/>
      <point x="429" y="274"/>
      <point x="417" y="255"/>
      <point x="402" y="254" type="curve" smooth="yes"/>
      <point x="334" y="248"/>
      <point x="236" y="244"/>
      <point x="162" y="242" type="curve"/>
      <point x="162" y="102"/>
      <point x="257" y="75"/>
      <point x="302" y="75" type="curve" smooth="yes"/>
      <point x="360" y="75"/>
      <point x="393" y="102"/>
      <point x="414" y="125" type="curve"/>
      <point x="421" y="123"/>
      <point x="426" y="113"/>
      <point x="426" y="107" type="curve" smooth="yes"/>
      <point x="426" y="100"/>
      <point x="425" y="91"/>
      <point x="423" y="88" type="curve" smooth="yes"/>
      <point x="415" y="76"/>
      <point x="398" y="56"/>
    </contour>
    <contour>
      <point x="163" y="282" type="curve"/>
      <point x="172" y="281"/>
      <point x="268" y="287"/>
      <point x="292" y="290" type="curve" smooth="yes"/>
      <point x="304" y="291"/>
      <point x="305" y="300"/>
      <point x="305" y="306" type="curve" smooth="yes"/>
      <point x="305" y="352"/>
      <point x="289" y="406"/>
      <point x="244" y="406" type="curve" smooth="yes"/>
      <point x="185" y="406"/>
      <point x="163" y="316"/>
    </contour>
  </outline>
</glyph>
<glyph name="Hbar" format="1">
  <advance width="741"/>
  <unicode hex="0126"/>
  <outline>
    <contour>
      <point x="685" y="535" type="line" smooth="yes"/>
      <point x="689" y="535"/>
      <point x="691" y="526"/>
      <point x="691" y="521" type="curve" smooth="yes"/>
      <point x="691" y="515"/>
      <point x="689" y="498"/>
      <point x="685" y="489" type="curve"/>
      <point x="42" y="489" type="line" smooth="yes"/>
      <point x="38" y="489"/>
      <point x="37" y="499"/>
      <point x="37" y="504" type="curve" smooth="yes"/>
      <point x="37" y="510"/>
      <point x="37" y="526"/>
      <point x="43" y="535" type="curve"/>
    </contour>
    <component base="H"/>
  </outline>
</glyph>
<glyph name="Iogonek" format="1">
  <advance width="360"/>
  <unicode hex="012E"/>
  <outline>
    <contour>
      <point x="181" y="655" type="curve" smooth="yes"/>
      <point x="223" y="655"/>
      <point x="283" y="658"/>
      <point x="322" y="662" type="curve"/>
      <point x="326" y="656"/>
      <point x="327" y="632"/>
      <point x="322" y="625" type="curve"/>
      <point x="309" y="624"/>
      <point x="263" y="620"/>
      <point x="258" y="607" type="curve" smooth="yes"/>
      <point x="250" y="587"/>
      <point x="250" y="556"/>
      <point x="250" y="513" type="curve" smooth="yes"/>
      <point x="250" y="145" type="line" smooth="yes"/>
      <point x="250" y="102"/>
      <point x="250" y="71"/>
      <point x="258" y="51" type="curve" smooth="yes"/>
      <point x="263" y="38"/>
      <point x="309" y="34"/>
      <point x="322" y="33" type="curve"/>
      <point x="327" y="26"/>
      <point x="326" y="2"/>
      <point x="322" y="-4" type="curve"/>
      <point x="301" y="-2"/>
      <point x="274" y="0"/>
      <point x="246" y="1" type="curve"/>
      <point x="203" y="-25"/>
      <point x="146" y="-58"/>
      <point x="146" y="-101" type="curve" smooth="yes"/>
      <point x="146" y="-122"/>
      <point x="158" y="-148"/>
      <point x="195" y="-148" type="curve" smooth="yes"/>
      <point x="223" y="-148"/>
      <point x="260" y="-117"/>
      <point x="270" y="-109" type="curve"/>
      <point x="273" y="-109"/>
      <point x="276" y="-112"/>
      <point x="276" y="-120" type="curve" smooth="yes"/>
      <point x="276" y="-125"/>
      <point x="272" y="-141"/>
      <point x="269" y="-145" type="curve" smooth="yes"/>
      <point x="254" y="-164"/>
      <point x="202" y="-218"/>
      <point x="146" y="-218" type="curve" smooth="yes"/>
      <point x="113" y="-218"/>
      <point x="72" y="-192"/>
      <point x="72" y="-140" type="curve" smooth="yes"/>
      <point x="72" y="-85"/>
      <point x="142" y="-17"/>
      <point x="201" y="3" type="curve"/>
      <point x="193" y="3"/>
      <point x="186" y="3"/>
      <point x="179" y="3" type="curve" smooth="yes"/>
      <point x="137" y="3"/>
      <point x="77" y="0"/>
      <point x="38" y="-4" type="curve"/>
      <point x="34" y="2"/>
      <point x="33" y="26"/>
      <point x="38" y="33" type="curve"/>
      <point x="51" y="34"/>
      <point x="97" y="38"/>
      <point x="102" y="51" type="curve" smooth="yes"/>
      <point x="110" y="71"/>
      <point x="110" y="102"/>
      <point x="110" y="145" type="curve" smooth="yes"/>
      <point x="110" y="513" type="line" smooth="yes"/>
      <point x="110" y="556"/>
      <point x="110" y="587"/>
      <point x="102" y="607" type="curve" smooth="yes"/>
      <point x="97" y="620"/>
      <point x="51" y="624"/>
      <point x="38" y="625" type="curve"/>
      <point x="33" y="632"/>
      <point x="34" y="656"/>
      <point x="38" y="662" type="curve"/>
      <point x="77" y="658"/>
      <point x="139" y="655"/>
    </contour>
  </outline>
</glyph>
<glyph name="dotlessi" format="1">
  <advance width="315"/>
  <unicode hex="0131"/>
  <outline>
    <contour>
      <point x="231" y="309" type="curve" smooth="yes"/>
      <point x="231" y="145" type="line" smooth="yes"/>
      <point x="231" y="108"/>
      <point x="231" y="71"/>
      <point x="239" y="51" type="curve" smooth="yes"/>
      <point x="244" y="38"/>
      <point x="283" y="34"/>
      <point x="296" y="33" type="curve"/>
      <point x="301" y="26"/>
      <point x="300" y="2"/>
      <point x="296" y="-4" type="curve"/>
      <point x="257" y="0"/>
      <point x="208" y="3"/>
      <point x="166" y="3" type="curve" smooth="yes"/>
      <point x="124" y="3"/>
      <point x="68" y="0"/>
      <point x="29" y="-4" type="curve"/>
      <point x="25" y="2"/>
      <point x="24" y="26"/>
      <point x="29" y="33" type="curve"/>
      <point x="42" y="34"/>
      <point x="88" y="38"/>
      <point x="93" y="51" type="curve" smooth="yes"/>
      <point x="101" y="71"/>
      <point x="101" y="102"/>
      <point x="101" y="145" type="curve" smooth="yes"/>
      <point x="101" y="260" type="line" smooth="yes"/>
      <point x="101" y="270"/>
      <point x="100" y="327"/>
      <point x="92" y="342" type="curve" smooth="yes"/>
      <point x="84" y="357"/>
      <point x="36" y="362"/>
      <point x="29" y="362" type="curve"/>
      <point x="26" y="364"/>
      <point x="25" y="393"/>
      <point x="30" y="393" type="curve"/>
      <point x="106" y="399"/>
      <point x="187" y="427"/>
      <point x="225" y="446" type="curve"/>
      <point x="232" y="444"/>
      <point x="242" y="432"/>
      <point x="242" y="429" type="curve"/>
      <point x="239" y="421"/>
      <point x="233" y="386"/>
      <point x="232" y="372" type="curve" smooth="yes"/>
      <point x="231" y="350"/>
      <point x="231" y="315"/>
    </contour>
  </outline>
</glyph>
<glyph name="kgreenlandic" format="1">
  <advance width="603"/>
  <unicode hex="0138"/>
  <outline>
    <contour>
      <point x="231" y="236" type="curve"/>
      <point x="248" y="242"/>
      <point x="270" y="257"/>
      <point x="305" y="287" type="curve" smooth="yes"/>
      <point x="375" y="347"/>
      <point x="393" y="368"/>
      <point x="393" y="383" type="curve" smooth="yes"/>
      <point x="393" y="395"/>
      <point x="347" y="404"/>
      <point x="329" y="405" type="curve"/>
      <point x="326" y="414"/>
      <point x="326" y="437"/>
      <point x="331" y="439" type="curve"/>
      <point x="331" y="439"/>
      <point x="420" y="435"/>
      <point x="462" y="435" type="curve" smooth="yes"/>
      <point x="498" y="435"/>
      <point x="528" y="438"/>
      <point x="573" y="440" type="curve"/>
      <point x="579" y="430"/>
      <point x="576" y="408"/>
      <point x="570" y="405" type="curve"/>
      <point x="539" y="402"/>
      <point x="497" y="392"/>
      <point x="471" y="374" type="curve" smooth="yes"/>
      <point x="450" y="359"/>
      <point x="400" y="310"/>
      <point x="339" y="256" type="curve"/>
      <point x="410" y="173"/>
      <point x="425" y="161"/>
      <point x="481" y="98" type="curve" smooth="yes"/>
      <point x="536" y="37"/>
      <point x="568" y="36"/>
      <point x="600" y="36" type="curve"/>
      <point x="606" y="25"/>
      <point x="601" y="8"/>
      <point x="600" y="6" type="curve"/>
      <point x="584" y="0"/>
      <point x="537" y="-6"/>
      <point x="499" y="-6" type="curve" smooth="yes"/>
      <point x="441" y="-6"/>
      <point x="392" y="18"/>
      <point x="362" y="53" type="curve" smooth="yes"/>
      <point x="362" y="53"/>
      <point x="293" y="127"/>
      <point x="244" y="188" type="curve" smooth="yes"/>
      <point x="240" y="194"/>
      <point x="231" y="201"/>
      <point x="231" y="201" type="curve"/>
      <point x="231" y="145" type="line" smooth="yes"/>
      <point x="231" y="102"/>
      <point x="231" y="71"/>
      <point x="239" y="51" type="curve" smooth="yes"/>
      <point x="244" y="38"/>
      <point x="290" y="34"/>
      <point x="303" y="33" type="curve"/>
      <point x="308" y="26"/>
      <point x="307" y="2"/>
      <point x="303" y="-4" type="curve"/>
      <point x="264" y="0"/>
      <point x="208" y="3"/>
      <point x="166" y="3" type="curve" smooth="yes"/>
      <point x="124" y="3"/>
      <point x="68" y="0"/>
      <point x="29" y="-4" type="curve"/>
      <point x="25" y="2"/>
      <point x="24" y="26"/>
      <point x="29" y="33" type="curve"/>
      <point x="42" y="34"/>
      <point x="88" y="38"/>
      <point x="93" y="51" type="curve" smooth="yes"/>
      <point x="101" y="71"/>
      <point x="101" y="102"/>
      <point x="101" y="145" type="curve" smooth="yes"/>
      <point x="101" y="260" type="line" smooth="yes"/>
      <point x="101" y="270"/>
      <point x="100" y="327"/>
      <point x="92" y="342" type="curve" smooth="yes"/>
      <point x="84" y="357"/>
      <point x="36" y="362"/>
      <point x="29" y="362" type="curve"/>
      <point x="26" y="364"/>
      <point x="25" y="393"/>
      <point x="30" y="393" type="curve"/>
      <point x="106" y="399"/>
      <point x="187" y="427"/>
      <point x="225" y="446" type="curve"/>
      <point x="232" y="444"/>
      <point x="242" y="432"/>
      <point x="242" y="429" type="curve"/>
      <point x="239" y="421"/>
      <point x="233" y="386"/>
      <point x="232" y="372" type="curve" smooth="yes"/>
      <point x="231" y="350"/>
      <point x="231" y="242"/>
    </contour>
  </outline>
</glyph>
<glyph name="Eng" format="1">
  <advance width="759"/>
  <unicode hex="014A"/>
  <outline>
    <contour>
      <point x="644" y="139" type="line" smooth="yes"/>
      <point x="644" y="-89"/>
      <point x="528" y="-218"/>
      <point x="346" y="-218" type="curve" smooth="yes"/>
      <point x="327" y="-218"/>
      <point x="298" y="-207"/>
      <point x="289" y="-200" type="curve"/>
      <point x="282" y="-189"/>
      <point x="273" y="-178"/>
      <point x="273" y="-157" type="curve" smooth="yes"/>
      <point x="273" y="-123"/>
      <point x="301" y="-90"/>
      <point x="333" y="-90" type="curve" smooth="yes"/>
      <point x="378" y="-90"/>
      <point x="406" y="-157"/>
      <point x="437" y="-157" type="curve" smooth="yes"/>
      <point x="500" y="-157"/>
      <point x="552" y="-69"/>
      <point x="552" y="68" type="curve"/>
      <point x="185" y="524" type="line"/>
      <point x="185" y="141" type="line" smooth="yes"/>
      <point x="185" y="105"/>
      <point x="185" y="74"/>
      <point x="190" y="60" type="curve" smooth="yes"/>
      <point x="197" y="41"/>
      <point x="270" y="34"/>
      <point x="278" y="34" type="curve"/>
      <point x="284" y="24"/>
      <point x="282" y="2"/>
      <point x="280" y="-4" type="curve"/>
      <point x="240" y="-2"/>
      <point x="198" y="4"/>
      <point x="154" y="4" type="curve" smooth="yes"/>
      <point x="108" y="4"/>
      <point x="78" y="-2"/>
      <point x="32" y="-4" type="curve"/>
      <point x="27" y="5"/>
      <point x="30" y="33"/>
      <point x="32" y="33" type="curve"/>
      <point x="44" y="33"/>
      <point x="109" y="41"/>
      <point x="117" y="59" type="curve" smooth="yes"/>
      <point x="124" y="74"/>
      <point x="124" y="106"/>
      <point x="124" y="144" type="curve" smooth="yes"/>
      <point x="124" y="275"/>
      <point x="124" y="406"/>
      <point x="124" y="537" type="curve" smooth="yes"/>
      <point x="124" y="565"/>
      <point x="122" y="589"/>
      <point x="109" y="608" type="curve" smooth="yes"/>
      <point x="102" y="619"/>
      <point x="52" y="625"/>
      <point x="40" y="625" type="curve" smooth="yes"/>
      <point x="35" y="625"/>
      <point x="33" y="657"/>
      <point x="38" y="662" type="curve"/>
      <point x="69" y="660"/>
      <point x="105" y="655"/>
      <point x="151" y="655" type="curve" smooth="yes"/>
      <point x="186" y="655"/>
      <point x="228" y="658"/>
      <point x="260" y="662" type="curve"/>
      <point x="298" y="584"/>
      <point x="456" y="404"/>
      <point x="581" y="243" type="curve"/>
      <point x="583" y="250"/>
      <point x="583" y="270"/>
      <point x="583" y="284" type="curve" smooth="yes"/>
      <point x="583" y="522" type="line" smooth="yes"/>
      <point x="583" y="560"/>
      <point x="583" y="592"/>
      <point x="576" y="607" type="curve" smooth="yes"/>
      <point x="568" y="625"/>
      <point x="503" y="633"/>
      <point x="491" y="633" type="curve"/>
      <point x="489" y="633"/>
      <point x="486" y="661"/>
      <point x="491" y="670" type="curve"/>
      <point x="537" y="668"/>
      <point x="567" y="662"/>
      <point x="613" y="662" type="curve" smooth="yes"/>
      <point x="657" y="662"/>
      <point x="699" y="668"/>
      <point x="739" y="670" type="curve"/>
      <point x="741" y="664"/>
      <point x="743" y="642"/>
      <point x="737" y="632" type="curve"/>
      <point x="729" y="632"/>
      <point x="656" y="625"/>
      <point x="649" y="606" type="curve" smooth="yes"/>
      <point x="644" y="592"/>
      <point x="644" y="561"/>
      <point x="644" y="525" type="curve" smooth="yes"/>
    </contour>
  </outline>
</glyph>
<glyph name="oe" format="1">
  <advance width="786"/>
  <unicode hex="0153"/>
  <outline>
    <contour>
      <point x="570" y="406" type="curve" smooth="yes"/>
      <point x="511" y="406"/>
      <point x="489" y="316"/>
      <point x="489" y="282" type="curve"/>
      <point x="498" y="281"/>
      <point x="594" y="287"/>
      <point x="618" y="290" type="curve" smooth="yes"/>
      <point x="630" y="291"/>
      <point x="631" y="300"/>
      <point x="631" y="306" type="curve" smooth="yes"/>
      <point x="631" y="352"/>
      <point x="615" y="406"/>
    </contour>
    <contour>
      <point x="254" y="406" type="curve" smooth="yes"/>
      <point x="181" y="406"/>
      <point x="174" y="310"/>
      <point x="174" y="237" type="curve" smooth="yes"/>
      <point x="174" y="149"/>
      <point x="204" y="35"/>
      <point x="277" y="35" type="curve" smooth="yes"/>
      <point x="350" y="35"/>
      <point x="358" y="130"/>
      <point x="358" y="202" type="curve" smooth="yes"/>
      <point x="358" y="291"/>
      <point x="327" y="406"/>
    </contour>
    <contour>
      <point x="628" y="75" type="curve" smooth="yes"/>
      <point x="686" y="75"/>
      <point x="719" y="102"/>
      <point x="740" y="125" type="curve"/>
      <point x="747" y="123"/>
      <point x="752" y="113"/>
      <point x="752" y="107" type="curve" smooth="yes"/>
      <point x="752" y="100"/>
      <point x="751" y="91"/>
      <point x="749" y="88" type="curve" smooth="yes"/>
      <point x="731" y="60"/>
      <point x="663" y="-9"/>
      <point x="568" y="-9" type="curve" smooth="yes"/>
      <point x="511" y="-9"/>
      <point x="458" y="12"/>
      <point x="419" y="49" type="curve"/>
      <point x="379" y="15"/>
      <point x="325" y="-7"/>
      <point x="267" y="-7" type="curve" smooth="yes"/>
      <point x="128" y="-7"/>
      <point x="32" y="91"/>
      <point x="32" y="217" type="curve" smooth="yes"/>
      <point x="32" y="343"/>
      <point x="134" y="447"/>
      <point x="265" y="447" type="curve" smooth="yes"/>
      <point x="335" y="447"/>
      <point x="394" y="423"/>
      <point x="436" y="382" type="curve"/>
      <point x="475" y="422"/>
      <point x="527" y="447"/>
      <point x="580" y="447" type="curve" smooth="yes"/>
      <point x="711" y="447"/>
      <point x="755" y="354"/>
      <point x="755" y="296" type="curve" smooth="yes"/>
      <point x="755" y="274"/>
      <point x="743" y="255"/>
      <point x="728" y="254" type="curve" smooth="yes"/>
      <point x="660" y="248"/>
      <point x="562" y="244"/>
      <point x="488" y="242" type="curve"/>
      <point x="488" y="102"/>
      <point x="583" y="75"/>
    </contour>
  </outline>
</glyph>
<glyph name="tbar" format="1">
  <advance width="344"/>
  <unicode hex="0167"/>
  <outline>
    <contour>
      <point x="327" y="273" type="curve"/>
      <point x="298" y="273"/>
      <point x="27" y="273"/>
      <point x="13" y="273" type="curve"/>
      <point x="9" y="273"/>
      <point x="8" y="301"/>
      <point x="14" y="310" type="curve"/>
      <point x="43" y="310"/>
      <point x="313" y="310"/>
      <point x="327" y="310" type="curve"/>
      <point x="331" y="310"/>
      <point x="331" y="282"/>
    </contour>
    <component base="t"/>
  </outline>
</glyph>
<glyph name="Uogonek" format="1">
  <advance width="751"/>
  <unicode hex="0172"/>
  <outline>
    <contour>
      <point x="466" y="4" type="curve"/>
      <point x="435" y="-4"/>
      <point x="408" y="-5"/>
      <point x="374" y="-5" type="curve" smooth="yes"/>
      <point x="223" y="-5"/>
      <point x="95" y="68"/>
      <point x="95" y="301" type="curve" smooth="yes"/>
      <point x="95" y="513" type="line" smooth="yes"/>
      <point x="95" y="556"/>
      <point x="95" y="587"/>
      <point x="87" y="607" type="curve" smooth="yes"/>
      <point x="82" y="620"/>
      <point x="36" y="624"/>
      <point x="23" y="625" type="curve"/>
      <point x="18" y="632"/>
      <point x="19" y="656"/>
      <point x="23" y="662" type="curve"/>
      <point x="62" y="658"/>
      <point x="124" y="655"/>
      <point x="166" y="655" type="curve" smooth="yes"/>
      <point x="208" y="655"/>
      <point x="268" y="658"/>
      <point x="307" y="662" type="curve"/>
      <point x="311" y="656"/>
      <point x="312" y="632"/>
      <point x="307" y="625" type="curve"/>
      <point x="294" y="624"/>
      <point x="248" y="620"/>
      <point x="243" y="607" type="curve" smooth="yes"/>
      <point x="235" y="587"/>
      <point x="235" y="556"/>
      <point x="235" y="513" type="curve" smooth="yes"/>
      <point x="235" y="330" type="line" smooth="yes"/>
      <point x="235" y="262"/>
      <point x="237" y="212"/>
      <point x="260" y="159" type="curve" smooth="yes"/>
      <point x="298" y="71"/>
      <point x="391" y="69"/>
      <point x="430" y="69" type="curve" smooth="yes"/>
      <point x="524" y="69"/>
      <point x="593" y="122"/>
      <point x="593" y="286" type="curve" smooth="yes"/>
      <point x="593" y="513" type="line" smooth="yes"/>
      <point x="593" y="556"/>
      <point x="593" y="587"/>
      <point x="585" y="607" type="curve" smooth="yes"/>
      <point x="580" y="620"/>
      <point x="523" y="624"/>
      <point x="510" y="625" type="curve"/>
      <point x="505" y="632"/>
      <point x="506" y="656"/>
      <point x="510" y="662" type="curve"/>
      <point x="557" y="658"/>
      <point x="583" y="655"/>
      <point x="629" y="655" type="curve" smooth="yes"/>
      <point x="673" y="655"/>
      <point x="699" y="660"/>
      <point x="740" y="662" type="curve"/>
      <point x="744" y="656"/>
      <point x="745" y="632"/>
      <point x="740" y="625" type="curve"/>
      <point x="727" y="624"/>
      <point x="668" y="620"/>
      <point x="663" y="607" type="curve" smooth="yes"/>
      <point x="655" y="587"/>
      <point x="655" y="562"/>
      <point x="655" y="519" type="curve" smooth="yes"/>
      <point x="655" y="318" type="line" smooth="yes"/>
      <point x="655" y="163"/>
      <point x="612" y="80"/>
      <point x="548" y="37" type="curve" smooth="yes"/>
      <point x="491" y="-1"/>
      <point x="437" y="-57"/>
      <point x="437" y="-101" type="curve" smooth="yes"/>
      <point x="437" y="-122"/>
      <point x="449" y="-148"/>
      <point x="486" y="-148" type="curve" smooth="yes"/>
      <point x="514" y="-148"/>
      <point x="551" y="-117"/>
      <point x="561" y="-109" type="curve"/>
      <point x="564" y="-109"/>
      <point x="567" y="-112"/>
      <point x="567" y="-120" type="curve" smooth="yes"/>
      <point x="567" y="-125"/>
      <point x="563" y="-141"/>
      <point x="560" y="-145" type="curve" smooth="yes"/>
      <point x="545" y="-164"/>
      <point x="493" y="-218"/>
      <point x="437" y="-218" type="curve" smooth="yes"/>
      <point x="404" y="-218"/>
      <point x="363" y="-192"/>
      <point x="363" y="-140" type="curve" smooth="yes"/>
      <point x="363" y="-84"/>
      <point x="407" y="-30"/>
    </contour>
  </outline>
</glyph>
<glyph name="Ohorn" format="1">
  <advance width="760"/>
  <unicode hex="01A0"/>
  <outline>
    <contour>
      <point x="347" y="611" type="curve" smooth="yes"/>
      <point x="235" y="611"/>
      <point x="197" y="484"/>
      <point x="197" y="350" type="curve" smooth="yes"/>
      <point x="197" y="226"/>
      <point x="240" y="46"/>
      <point x="378" y="46" type="curve" smooth="yes"/>
      <point x="485" y="46"/>
      <point x="528" y="174"/>
      <point x="528" y="309" type="curve" smooth="yes"/>
      <point x="528" y="443"/>
      <point x="492" y="611"/>
    </contour>
    <contour>
      <point x="362" y="667" type="curve" smooth="yes"/>
      <point x="424" y="667"/>
      <point x="474" y="646"/>
      <point x="480" y="643" type="curve" smooth="yes"/>
      <point x="524" y="626"/>
      <point x="582" y="603"/>
      <point x="614" y="603" type="curve" smooth="yes"/>
      <point x="637" y="603"/>
      <point x="650" y="610"/>
      <point x="650" y="622" type="curve" smooth="yes"/>
      <point x="650" y="636"/>
      <point x="628" y="650"/>
      <point x="628" y="674" type="curve" smooth="yes"/>
      <point x="628" y="714"/>
      <point x="690" y="720"/>
      <point x="722" y="720" type="curve"/>
      <point x="731" y="711"/>
      <point x="741" y="679"/>
      <point x="741" y="652" type="curve" smooth="yes"/>
      <point x="741" y="595"/>
      <point x="673" y="556"/>
      <point x="620" y="556" type="curve" smooth="yes"/>
      <point x="609" y="556"/>
      <point x="597" y="560"/>
      <point x="595" y="561" type="curve"/>
      <point x="650" y="500"/>
      <point x="684" y="418"/>
      <point x="684" y="328" type="curve" smooth="yes"/>
      <point x="684" y="141"/>
      <point x="538" y="-10"/>
      <point x="362" y="-10" type="curve" smooth="yes"/>
      <point x="186" y="-10"/>
      <point x="41" y="141"/>
      <point x="41" y="328" type="curve" smooth="yes"/>
      <point x="41" y="515"/>
      <point x="180" y="667"/>
    </contour>
  </outline>
</glyph>
<glyph name="uhorn" format="1">
  <advance width="613"/>
  <unicode hex="01B0"/>
  <outline>
    <contour>
      <point x="503" y="437" type="curve" smooth="yes"/>
      <point x="537" y="444"/>
      <point x="564" y="452"/>
      <point x="564" y="464" type="curve" smooth="yes"/>
      <point x="564" y="478"/>
      <point x="542" y="492"/>
      <point x="542" y="516" type="curve" smooth="yes"/>
      <point x="542" y="556"/>
      <point x="604" y="562"/>
      <point x="636" y="562" type="curve"/>
      <point x="645" y="553"/>
      <point x="655" y="521"/>
      <point x="655" y="494" type="curve" smooth="yes"/>
      <point x="655" y="414"/>
      <point x="539" y="391"/>
      <point x="520" y="382" type="curve" smooth="yes"/>
      <point x="501" y="373"/>
      <point x="499" y="360"/>
      <point x="499" y="327" type="curve" smooth="yes"/>
      <point x="499" y="131" type="line" smooth="yes"/>
      <point x="499" y="106"/>
      <point x="500" y="78"/>
      <point x="509" y="68" type="curve" smooth="yes"/>
      <point x="520" y="56"/>
      <point x="554" y="59"/>
      <point x="557" y="58" type="curve" smooth="yes"/>
      <point x="559" y="57"/>
      <point x="561" y="53"/>
      <point x="561" y="50" type="curve" smooth="yes"/>
      <point x="561" y="48"/>
      <point x="560" y="21"/>
      <point x="555" y="21" type="curve" smooth="yes"/>
      <point x="502" y="18"/>
      <point x="374" y="-5"/>
      <point x="373" y="-5" type="curve" smooth="yes"/>
      <point x="368" y="-5"/>
      <point x="367" y="6"/>
      <point x="367" y="13" type="curve" smooth="yes"/>
      <point x="367" y="50" type="line" smooth="yes"/>
      <point x="367" y="55"/>
      <point x="365" y="56"/>
      <point x="363" y="54" type="curve" smooth="yes"/>
      <point x="340" y="30"/>
      <point x="283" y="-4"/>
      <point x="214" y="-4" type="curve" smooth="yes"/>
      <point x="132" y="-4"/>
      <point x="84" y="80"/>
      <point x="84" y="174" type="curve" smooth="yes"/>
      <point x="84" y="271" type="line" smooth="yes"/>
      <point x="84" y="281"/>
      <point x="82" y="329"/>
      <point x="66" y="346" type="curve" smooth="yes"/>
      <point x="50" y="364"/>
      <point x="11" y="365"/>
      <point x="11" y="369" type="curve" smooth="yes"/>
      <point x="11" y="372"/>
      <point x="11" y="404"/>
      <point x="16" y="404" type="curve" smooth="yes"/>
      <point x="42" y="404"/>
      <point x="162" y="428"/>
      <point x="199" y="440" type="curve" smooth="yes"/>
      <point x="200" y="440"/>
      <point x="209" y="443"/>
      <point x="210" y="443" type="curve" smooth="yes"/>
      <point x="218" y="443"/>
      <point x="225" y="431"/>
      <point x="225" y="426" type="curve" smooth="yes"/>
      <point x="221" y="394"/>
      <point x="214" y="360"/>
      <point x="214" y="326" type="curve" smooth="yes"/>
      <point x="214" y="219" type="line" smooth="yes"/>
      <point x="214" y="113"/>
      <point x="240" y="78"/>
      <point x="301" y="78" type="curve" smooth="yes"/>
      <point x="351" y="78"/>
      <point x="369" y="107"/>
      <point x="369" y="128" type="curve" smooth="yes"/>
      <point x="369" y="271" type="line" smooth="yes"/>
      <point x="369" y="281"/>
      <point x="367" y="329"/>
      <point x="351" y="346" type="curve" smooth="yes"/>
      <point x="335" y="364"/>
      <point x="296" y="365"/>
      <point x="296" y="369" type="curve" smooth="yes"/>
      <point x="296" y="372"/>
      <point x="296" y="404"/>
      <point x="301" y="404" type="curve" smooth="yes"/>
      <point x="311" y="404"/>
      <point x="422" y="421"/>
    </contour>
  </outline>
</glyph>
<glyph name="uni01EA" format="1">
  <advance width="727"/>
  <unicode hex="01EA"/>
  <outline>
    <contour>
      <point x="349" y="611" type="curve" smooth="yes"/>
      <point x="237" y="611"/>
      <point x="199" y="484"/>
      <point x="199" y="350" type="curve" smooth="yes"/>
      <point x="199" y="226"/>
      <point x="242" y="46"/>
      <point x="380" y="46" type="curve" smooth="yes"/>
      <point x="487" y="46"/>
      <point x="530" y="174"/>
      <point x="530" y="309" type="curve" smooth="yes"/>
      <point x="530" y="443"/>
      <point x="494" y="611"/>
    </contour>
    <contour>
      <point x="364" y="667" type="curve" smooth="yes"/>
      <point x="540" y="667"/>
      <point x="686" y="515"/>
      <point x="686" y="328" type="curve" smooth="yes"/>
      <point x="686" y="208"/>
      <point x="630" y="111"/>
      <point x="544" y="48" type="curve" smooth="yes"/>
      <point x="489" y="8"/>
      <point x="440" y="-55"/>
      <point x="440" y="-110" type="curve" smooth="yes"/>
      <point x="440" y="-131"/>
      <point x="460" y="-142"/>
      <point x="481" y="-142" type="curve" smooth="yes"/>
      <point x="509" y="-142"/>
      <point x="548" y="-120"/>
      <point x="561" y="-109" type="curve" smooth="yes"/>
      <point x="562" y="-109"/>
      <point x="566" y="-119"/>
      <point x="566" y="-127" type="curve" smooth="yes"/>
      <point x="566" y="-132"/>
      <point x="563" y="-145"/>
      <point x="560" y="-149" type="curve" smooth="yes"/>
      <point x="545" y="-168"/>
      <point x="493" y="-218"/>
      <point x="437" y="-218" type="curve" smooth="yes"/>
      <point x="404" y="-218"/>
      <point x="356" y="-193"/>
      <point x="356" y="-140" type="curve" smooth="yes"/>
      <point x="356" y="-96"/>
      <point x="396" y="-32"/>
      <point x="443" y="1" type="curve"/>
      <point x="421" y="-7"/>
      <point x="389" y="-10"/>
      <point x="364" y="-10" type="curve" smooth="yes"/>
      <point x="188" y="-10"/>
      <point x="43" y="141"/>
      <point x="43" y="328" type="curve" smooth="yes"/>
      <point x="43" y="515"/>
      <point x="188" y="667"/>
    </contour>
  </outline>
</glyph>
<glyph name="uni0237" format="1">
  <advance width="286"/>
  <unicode hex="0237"/>
  <outline>
    <contour>
      <point x="89" y="64" type="curve" smooth="yes"/>
      <point x="89" y="260" type="line" smooth="yes"/>
      <point x="89" y="270"/>
      <point x="88" y="327"/>
      <point x="80" y="342" type="curve" smooth="yes"/>
      <point x="72" y="357"/>
      <point x="24" y="362"/>
      <point x="17" y="362" type="curve"/>
      <point x="14" y="364"/>
      <point x="13" y="393"/>
      <point x="18" y="393" type="curve"/>
      <point x="94" y="399"/>
      <point x="175" y="427"/>
      <point x="213" y="446" type="curve"/>
      <point x="220" y="444"/>
      <point x="230" y="432"/>
      <point x="230" y="429" type="curve"/>
      <point x="227" y="421"/>
      <point x="221" y="386"/>
      <point x="220" y="372" type="curve" smooth="yes"/>
      <point x="219" y="350"/>
      <point x="219" y="315"/>
      <point x="219" y="309" type="curve" smooth="yes"/>
      <point x="219" y="120" type="line" smooth="yes"/>
      <point x="219" y="36"/>
      <point x="208" y="-48"/>
      <point x="171" y="-102" type="curve" smooth="yes"/>
      <point x="124" y="-170"/>
      <point x="36" y="-218"/>
      <point x="2" y="-218" type="curve"/>
      <point x="-5" y="-214"/>
      <point x="-12" y="-207"/>
      <point x="-12" y="-201" type="curve" smooth="yes"/>
      <point x="-12" y="-199"/>
      <point x="-12" y="-195"/>
      <point x="-11" y="-194" type="curve" smooth="yes"/>
      <point x="-7" y="-192"/>
      <point x="89" y="-142"/>
    </contour>
  </outline>
</glyph>
<glyph name="gravecomb" format="1">
  <advance width="249"/>
  <unicode hex="0300"/>
  <outline>
    <contour>
      <point x="44" y="658" type="curve" smooth="yes"/>
      <point x="44" y="666"/>
      <point x="55" y="687"/>
      <point x="90" y="687" type="curve" smooth="yes"/>
      <point x="104" y="687"/>
      <point x="119" y="683"/>
      <point x="124" y="678" type="curve" smooth="yes"/>
      <point x="161" y="635"/>
      <point x="217" y="545"/>
      <point x="217" y="540" type="curve" smooth="yes"/>
      <point x="217" y="534"/>
      <point x="207" y="522"/>
      <point x="200" y="522" type="curve" smooth="yes"/>
      <point x="190" y="522"/>
      <point x="44" y="619"/>
    </contour>
  </outline>
</glyph>
<glyph name="acutecomb" format="1">
  <advance width="236"/>
  <unicode hex="0301"/>
  <outline>
    <contour>
      <point x="155" y="687" type="curve" smooth="yes"/>
      <point x="190" y="687"/>
      <point x="201" y="666"/>
      <point x="201" y="658" type="curve" smooth="yes"/>
      <point x="201" y="619"/>
      <point x="55" y="522"/>
      <point x="45" y="522" type="curve" smooth="yes"/>
      <point x="38" y="522"/>
      <point x="28" y="534"/>
      <point x="28" y="540" type="curve" smooth="yes"/>
      <point x="28" y="545"/>
      <point x="84" y="635"/>
      <point x="121" y="678" type="curve" smooth="yes"/>
      <point x="126" y="683"/>
      <point x="141" y="687"/>
    </contour>
  </outline>
</glyph>
<glyph name="uni0302" format="1">
  <advance width="285"/>
  <unicode hex="0302"/>
  <outline>
    <contour>
      <point x="258" y="493" type="curve"/>
      <point x="248" y="496"/>
      <point x="177" y="543"/>
      <point x="149" y="567" type="curve"/>
      <point x="121" y="543"/>
      <point x="54" y="499"/>
      <point x="40" y="493" type="curve"/>
      <point x="35" y="495"/>
      <point x="31" y="506"/>
      <point x="31" y="516" type="curve"/>
      <point x="38" y="523"/>
      <point x="55" y="540"/>
      <point x="97" y="594" type="curve" smooth="yes"/>
      <point x="119" y="623"/>
      <point x="128" y="638"/>
      <point x="136" y="651" type="curve" smooth="yes"/>
      <point x="140" y="658"/>
      <point x="143" y="661"/>
      <point x="149" y="661" type="curve" smooth="yes"/>
      <point x="155" y="661"/>
      <point x="156" y="657"/>
      <point x="161" y="651" type="curve" smooth="yes"/>
      <point x="172" y="636"/>
      <point x="180" y="622"/>
      <point x="198" y="599" type="curve" smooth="yes"/>
      <point x="239" y="545"/>
      <point x="260" y="523"/>
      <point x="267" y="516" type="curve"/>
      <point x="267" y="506"/>
      <point x="263" y="495"/>
    </contour>
  </outline>
</glyph>
<glyph name="uni0304" format="1">
  <advance width="431"/>
  <unicode hex="0304"/>
  <outline>
    <contour>
      <point x="53" y="571" type="curve" smooth="yes"/>
      <point x="53" y="596"/>
      <point x="65" y="608"/>
      <point x="68" y="608" type="curve" smooth="yes"/>
      <point x="331" y="608" type="line" smooth="yes"/>
      <point x="333" y="608"/>
      <point x="337" y="606"/>
      <point x="337" y="598" type="curve" smooth="yes"/>
      <point x="337" y="572"/>
      <point x="323" y="560"/>
      <point x="323" y="560" type="curve"/>
      <point x="59" y="560" type="line"/>
      <point x="59" y="560"/>
      <point x="53" y="559"/>
    </contour>
  </outline>
</glyph>
